<svg width="500" height="500" viewBox="0 0 500 500" fill="none" xmlns="http://www.w3.org/2000/svg">
<rect width="500" height="500" fill="white"/>
<path fill-rule="evenodd" clip-rule="evenodd" d="M418.499 142.617C422.289 142.617 425.362 145.69 425.362 149.48C425.362 153.271 422.289 156.344 418.499 156.344C414.709 156.344 411.636 153.271 411.636 149.48C411.636 145.69 414.709 142.617 418.499 142.617Z" fill="#00264E"/>
<path fill-rule="evenodd" clip-rule="evenodd" d="M418.499 143.359C415.123 143.359 412.377 146.105 412.377 149.481C412.377 152.855 415.123 155.602 418.499 155.602C421.873 155.602 424.62 152.855 424.62 149.481C424.62 146.105 421.873 143.359 418.499 143.359ZM418.499 157.086C414.305 157.086 410.893 153.675 410.893 149.481C410.893 145.286 414.305 141.874 418.499 141.874C422.693 141.874 426.104 145.286 426.104 149.481C426.104 153.675 422.693 157.086 418.499 157.086Z" fill="#00264E"/>
<path fill-rule="evenodd" clip-rule="evenodd" d="M283.983 355.882H257.414C253.625 355.882 250.552 358.955 250.552 362.745C250.552 366.535 253.625 369.609 257.414 369.609H283.983C288.074 369.609 291.401 372.938 291.401 377.029C291.401 381.119 288.074 384.447 283.983 384.447H212.467C201.721 384.447 191.617 379.71 184.744 371.449L167.642 350.891C158.465 339.862 145.112 333.4 130.822 332.985V292.574H156.014C168.443 292.574 180.21 297.328 189.15 305.959L226.063 341.588C228.666 344.1 228.787 348.307 226.334 350.966C223.834 353.675 219.588 353.852 216.87 351.362L187.89 324.795C185.096 322.235 180.754 322.423 178.193 325.217C175.631 328.011 175.819 332.352 178.614 334.914L207.595 361.48C211.506 365.065 216.456 366.836 221.393 366.836C226.907 366.836 232.402 364.629 236.421 360.276C243.895 352.179 243.526 339.364 235.597 331.712L198.685 296.082C187.173 284.968 172.019 278.847 156.016 278.847H129.586C127.065 272.618 120.957 268.211 113.835 268.211H81.6055C77.8141 268.211 74.7427 271.285 74.7427 275.075V325.141C74.7427 328.931 77.8141 332.004 81.6055 332.004C85.3969 332.004 88.4683 328.931 88.4683 325.141V281.938H113.835C115.633 281.938 117.095 283.4 117.095 285.199V340.075C117.095 341.875 115.633 343.337 113.835 343.337H106.725C102.933 343.337 99.8604 346.41 99.8604 350.2C99.8604 353.99 102.933 357.064 106.725 357.064H113.835C120.863 357.064 126.908 352.774 129.488 346.675C140.188 346.711 150.243 351.442 157.089 359.671L174.191 380.228C183.679 391.633 197.631 398.174 212.465 398.174H283.983C295.642 398.174 305.128 388.688 305.128 377.028C305.128 365.368 295.642 355.882 283.983 355.882Z" fill="#00264E"/>
<path fill-rule="evenodd" clip-rule="evenodd" d="M128.996 345.932L129.491 345.933C140.41 345.969 150.677 350.804 157.66 359.196L174.762 379.753C184.108 390.989 197.852 397.432 212.466 397.432H283.982C295.232 397.432 304.385 388.279 304.385 377.028C304.385 365.778 295.232 356.625 283.982 356.625H257.416C254.038 356.625 251.294 359.37 251.294 362.745C251.294 366.121 254.038 368.867 257.416 368.867H283.982C288.483 368.867 292.142 372.528 292.142 377.029C292.142 381.529 288.483 385.189 283.982 385.189H212.466C201.499 385.189 191.188 380.354 184.173 371.924L167.07 351.367C158.086 340.564 144.864 334.135 130.801 333.728L130.08 333.707V291.832H156.015C168.635 291.832 180.587 296.658 189.666 305.423L226.578 341.054C229.47 343.843 229.604 348.515 226.88 351.469C225.475 352.989 223.479 353.861 221.4 353.862C219.528 353.862 217.742 353.169 216.368 351.909L187.389 325.342C186.256 324.306 184.788 323.734 183.254 323.734C181.541 323.734 179.895 324.457 178.739 325.719C177.634 326.923 177.066 328.488 177.137 330.121C177.208 331.753 177.91 333.262 179.116 334.366L208.096 360.933C211.726 364.261 216.449 366.094 221.394 366.094C226.887 366.094 232.166 363.789 235.876 359.772C243.078 351.969 242.722 339.621 235.081 332.245L198.169 296.615C186.797 285.636 171.827 279.59 156.017 279.59H129.087L128.898 279.127C126.397 272.947 120.485 268.953 113.835 268.953H81.605C78.2308 268.953 75.4845 271.7 75.4845 275.075V325.142C75.4845 328.516 78.2308 331.262 81.605 331.262C84.9808 331.262 87.7256 328.516 87.7256 325.142V281.196H113.835C116.041 281.196 117.837 282.992 117.837 285.198V340.076C117.837 342.283 116.041 344.078 113.835 344.078H106.724C103.35 344.078 100.604 346.824 100.604 350.2C100.604 353.576 103.35 356.322 106.724 356.322H113.835C120.374 356.322 126.25 352.422 128.803 346.386L128.996 345.932ZM283.982 398.917H212.467C197.409 398.917 183.25 392.278 173.62 380.703L156.517 360.146C149.922 352.216 140.269 347.598 129.97 347.422C127.084 353.748 120.805 357.806 113.835 357.806H106.724C102.531 357.806 99.1191 354.394 99.1191 350.2C99.1191 346.006 102.531 342.593 106.724 342.593H113.835C115.224 342.593 116.353 341.465 116.353 340.076V285.198C116.353 283.81 115.224 282.68 113.835 282.68H89.2101V325.142C89.2101 329.334 85.7987 332.747 81.605 332.747C77.4113 332.747 74 329.334 74 325.142V275.075C74 270.88 77.4113 267.469 81.605 267.469H113.835C120.925 267.469 127.246 271.627 130.078 278.105H156.017C172.213 278.105 187.549 284.3 199.201 295.548L236.113 331.178C244.328 339.109 244.711 352.388 236.965 360.78C232.976 365.1 227.301 367.579 221.394 367.579C216.077 367.579 210.997 365.606 207.093 362.027L178.112 335.46C176.614 334.087 175.742 332.214 175.654 330.184C175.565 328.155 176.273 326.212 177.645 324.715C179.082 323.148 181.126 322.25 183.255 322.25C185.161 322.25 186.985 322.959 188.392 324.248L217.371 350.814C218.47 351.822 219.901 352.378 221.4 352.378C223.066 352.376 224.665 351.68 225.788 350.463C227.971 348.096 227.862 344.355 225.548 342.123L188.634 306.492C179.833 297.995 168.249 293.317 156.016 293.317H131.564V332.269C145.786 332.885 159.108 339.471 168.214 350.417L185.315 370.975C192.046 379.064 201.941 383.705 212.467 383.705H283.982C287.664 383.705 290.658 380.709 290.658 377.029C290.658 373.348 287.664 370.352 283.982 370.352H257.416C253.222 370.352 249.809 366.939 249.809 362.745C249.809 358.552 253.222 355.14 257.416 355.14H283.982C296.051 355.14 305.87 364.959 305.87 377.028C305.87 389.098 296.051 398.917 283.982 398.917Z" fill="#00264E"/>
<path fill-rule="evenodd" clip-rule="evenodd" d="M327.01 308.338C324.193 305.801 319.852 306.031 317.316 308.848C317.305 308.862 317.245 308.927 317.232 308.942C314.726 311.776 314.995 316.093 317.821 318.607C319.126 319.767 320.752 320.338 322.374 320.338C324.265 320.337 326.149 319.562 327.507 318.043L322.419 313.438L327.521 318.03C330.056 315.212 329.828 310.873 327.01 308.338Z" fill="#00264E"/>
<path fill-rule="evenodd" clip-rule="evenodd" d="M322.422 307.318C320.688 307.318 319.028 308.057 317.87 309.344C315.565 311.949 315.799 315.815 318.313 318.052C320.548 320.041 324.199 320.023 326.428 318.07L321.92 313.989L322.916 312.886L327.432 316.952C328.217 315.837 328.605 314.5 328.532 313.118C328.446 311.485 327.729 309.982 326.514 308.89C325.388 307.876 323.936 307.318 322.422 307.318ZM322.374 321.08C320.51 321.08 318.718 320.399 317.327 319.161C314.203 316.382 313.912 311.577 316.677 308.45C318.206 306.751 320.268 305.833 322.422 305.833C324.302 305.833 326.108 306.526 327.508 307.785C329.016 309.144 329.908 311.01 330.013 313.039C330.108 314.826 329.584 316.551 328.529 317.967L328.553 317.988L328.112 318.481C328.098 318.496 328.085 318.511 328.073 318.526L328.058 318.542C328.049 318.551 328.042 318.56 328.033 318.569L327.576 319.078L327.551 319.056C326.151 320.349 324.301 321.079 322.374 321.08Z" fill="#00264E"/>
<path fill-rule="evenodd" clip-rule="evenodd" d="M303.053 321.774C299.988 324.004 299.309 328.296 301.539 331.361C302.882 333.208 304.974 334.189 307.095 334.189C308.495 334.189 309.909 333.762 311.127 332.875L311.182 332.835C314.248 330.606 314.899 326.333 312.668 323.268C310.439 320.202 306.12 319.543 303.053 321.774Z" fill="#00264E"/>
<path fill-rule="evenodd" clip-rule="evenodd" d="M307.113 321.196C305.802 321.196 304.549 321.602 303.49 322.374C300.762 324.359 300.155 328.195 302.14 330.925C303.289 332.505 305.141 333.446 307.095 333.446C308.394 333.446 309.638 333.04 310.69 332.274C312.066 331.275 312.93 329.861 313.178 328.251C313.426 326.644 313.033 325.029 312.069 323.704C310.926 322.134 309.074 321.196 307.113 321.196ZM307.095 334.93C304.668 334.93 302.367 333.759 300.94 331.798C298.474 328.407 299.227 323.641 302.618 321.173C303.931 320.217 305.486 319.711 307.113 319.711C309.547 319.711 311.848 320.878 313.269 322.832C314.465 324.475 314.954 326.48 314.645 328.479C314.336 330.48 313.263 332.24 311.62 333.435C310.255 334.428 308.71 334.93 307.095 334.93Z" fill="#00264E"/>
<path fill-rule="evenodd" clip-rule="evenodd" d="M289.226 344.461C290.099 344.461 290.985 344.293 291.842 343.94C291.912 343.912 292.042 343.854 292.111 343.822C295.565 342.264 297.095 338.202 295.538 334.746C293.987 331.31 289.951 329.775 286.507 331.292C283.07 332.773 281.447 336.743 282.88 340.214C283.971 342.861 286.529 344.461 289.226 344.461Z" fill="#00264E"/>
<path fill-rule="evenodd" clip-rule="evenodd" d="M289.276 331.449C288.423 331.449 287.592 331.626 286.807 331.972C283.749 333.289 282.298 336.857 283.565 339.929C284.515 342.231 286.736 343.719 289.227 343.719C290.027 343.719 290.81 343.561 291.559 343.254L291.802 343.147C294.877 341.759 296.247 338.128 294.862 335.052C293.874 332.864 291.68 331.449 289.276 331.449ZM289.227 345.203C286.133 345.203 283.372 343.355 282.193 340.496C280.618 336.679 282.422 332.245 286.213 330.612C287.182 330.183 288.214 329.965 289.276 329.965C292.264 329.965 294.988 331.723 296.216 334.442C297.938 338.263 296.233 342.775 292.417 344.5L292.127 344.624C291.196 345.009 290.221 345.203 289.227 345.203Z" fill="#00264E"/>
<path fill-rule="evenodd" clip-rule="evenodd" d="M268.272 337.068C264.589 337.776 262.15 341.315 262.813 345.018C263.407 348.342 266.301 350.674 269.56 350.674C269.963 350.674 270.37 350.638 270.779 350.565C270.865 350.549 270.953 350.531 271.041 350.513C274.749 349.738 277.123 346.104 276.349 342.396C275.579 338.7 271.965 336.33 268.272 337.068Z" fill="#00264E"/>
<path fill-rule="evenodd" clip-rule="evenodd" d="M269.626 337.676C269.224 337.676 268.816 337.716 268.418 337.796C265.141 338.426 262.956 341.607 263.543 344.888C264.129 348.162 267.257 350.431 270.649 349.834L270.894 349.787C274.187 349.098 276.311 345.85 275.622 342.547C275.034 339.725 272.512 337.676 269.626 337.676ZM269.561 351.415C265.879 351.415 262.732 348.78 262.082 345.149C261.353 341.073 264.067 337.121 268.131 336.338C268.621 336.242 269.126 336.192 269.626 336.192C273.211 336.192 276.344 338.737 277.075 342.244C277.932 346.347 275.291 350.383 271.192 351.24L270.912 351.295C270.459 351.375 270.006 351.415 269.561 351.415Z" fill="#00264E"/>
<path fill-rule="evenodd" clip-rule="evenodd" d="M346.585 236.901L353.323 235.593C352.6 231.871 348.999 229.438 345.277 230.162C341.555 230.885 339.125 234.487 339.847 238.208L339.879 238.372C340.556 241.612 343.418 243.852 346.603 243.852C347.066 243.852 347.535 243.805 348.006 243.707C351.715 242.932 354.099 239.316 353.324 235.606L346.585 236.901Z" fill="#00264E"/>
<path fill-rule="evenodd" clip-rule="evenodd" d="M346.595 230.778C346.203 230.778 345.809 230.816 345.42 230.892C343.813 231.204 342.425 232.121 341.511 233.476C340.597 234.83 340.264 236.462 340.576 238.066L340.608 238.224C341.199 241.053 343.72 243.111 346.604 243.111C347.023 243.111 347.443 243.066 347.854 242.98C350.915 242.34 352.968 239.511 352.704 236.479L346.726 237.63L346.442 236.172L352.409 235.014C351.603 232.52 349.265 230.778 346.595 230.778ZM346.604 244.595C343.022 244.595 339.888 242.042 339.154 238.524L339.119 238.356C338.731 236.355 339.143 234.33 340.28 232.645C341.417 230.962 343.142 229.822 345.136 229.434C345.617 229.341 346.108 229.293 346.595 229.293C349.979 229.293 352.936 231.545 353.878 234.743L353.902 234.738L353.994 235.179C354.015 235.27 354.034 235.36 354.052 235.451L354.193 236.18L354.168 236.186C354.586 240.017 352.018 243.626 348.159 244.433C347.648 244.54 347.124 244.595 346.604 244.595Z" fill="#00264E"/>
<path fill-rule="evenodd" clip-rule="evenodd" d="M347.054 250.651C343.276 250.32 339.948 253.109 339.614 256.884C339.611 256.918 339.602 257.019 339.601 257.054C339.323 260.833 342.16 264.145 345.941 264.423C346.113 264.436 346.284 264.442 346.455 264.442C350.014 264.442 353.022 261.71 353.288 258.103L346.452 257.488L353.288 258.091C353.622 254.316 350.831 250.985 347.054 250.651Z" fill="#00264E"/>
<path fill-rule="evenodd" clip-rule="evenodd" d="M346.446 251.366C343.254 251.366 340.636 253.767 340.354 256.95L340.34 257.117C340.092 260.486 342.629 263.435 345.995 263.683C349.14 263.921 351.866 261.733 352.449 258.772L346.385 258.228L346.517 256.749L352.57 257.284C352.528 255.919 352.034 254.619 351.143 253.557C350.093 252.303 348.619 251.534 346.989 251.39C346.807 251.374 346.626 251.366 346.446 251.366ZM346.455 265.184C346.265 265.184 346.075 265.178 345.883 265.163C341.703 264.854 338.551 261.192 338.86 256.999L338.875 256.822C339.245 252.642 342.873 249.551 347.12 249.912C349.143 250.091 350.978 251.047 352.282 252.603C353.429 253.973 354.047 255.664 354.057 257.428L354.082 257.429L354.027 258.158C354.021 258.251 354.013 258.343 354.002 258.435L353.961 258.896L353.937 258.894C353.315 262.475 350.162 265.184 346.455 265.184Z" fill="#00264E"/>
<path fill-rule="evenodd" clip-rule="evenodd" d="M337.785 290.732C334.491 288.861 330.287 290.043 328.414 293.335C326.539 296.631 327.691 300.82 330.985 302.695C332.057 303.305 333.222 303.595 334.372 303.595C336.76 303.595 339.08 302.348 340.345 300.124C340.346 300.121 340.382 300.057 340.385 300.054C342.252 296.759 341.079 292.602 337.785 290.732Z" fill="#00264E"/>
<path fill-rule="evenodd" clip-rule="evenodd" d="M334.424 290.584C332.209 290.584 330.154 291.779 329.06 293.702C327.392 296.635 328.419 300.381 331.352 302.051C332.274 302.575 333.318 302.852 334.373 302.852C336.573 302.852 338.613 301.666 339.699 299.757C341.392 296.77 340.351 293.043 337.419 291.377C336.505 290.859 335.47 290.584 334.424 290.584ZM334.373 304.337C333.061 304.337 331.762 303.992 330.619 303.341C326.973 301.265 325.696 296.613 327.77 292.968C329.127 290.583 331.676 289.1 334.424 289.1C335.727 289.1 337.016 289.441 338.153 290.087C341.796 292.155 343.087 296.791 341.03 300.419L340.924 300.587C339.642 302.863 337.106 304.337 334.373 304.337Z" fill="#00264E"/>
<path fill-rule="evenodd" clip-rule="evenodd" d="M344.546 271.165C340.919 270.064 337.085 272.12 335.986 275.748C334.855 279.365 336.873 283.215 340.49 284.346C341.172 284.56 341.86 284.661 342.539 284.661C345.462 284.661 348.171 282.778 349.088 279.84L349.126 279.719C350.224 276.092 348.174 272.265 344.546 271.165Z" fill="#00264E"/>
<path fill-rule="evenodd" clip-rule="evenodd" d="M342.554 271.61C339.88 271.61 337.472 273.4 336.697 275.963C336.207 277.529 336.356 279.187 337.114 280.636C337.874 282.083 339.151 283.149 340.711 283.637C341.304 283.824 341.92 283.918 342.539 283.918C345.229 283.918 347.576 282.19 348.379 279.62C349.391 276.276 347.561 272.854 344.33 271.876C343.75 271.699 343.152 271.61 342.554 271.61ZM342.539 285.402C341.768 285.402 341.004 285.285 340.267 285.054C338.329 284.448 336.743 283.124 335.799 281.323C334.856 279.524 334.671 277.465 335.278 275.526C336.238 272.349 339.231 270.125 342.554 270.125C343.299 270.125 344.042 270.237 344.761 270.455C348.774 271.671 351.051 275.924 349.835 279.934C348.797 283.257 345.882 285.402 342.539 285.402Z" fill="#00264E"/>
<path fill-rule="evenodd" clip-rule="evenodd" d="M155.357 264.974C151.657 265.791 149.317 269.453 150.133 273.155L150.181 273.362C150.943 276.5 153.748 278.602 156.84 278.602C157.375 278.602 157.92 278.538 158.463 278.407C162.137 277.52 164.398 273.822 163.527 270.148C162.688 266.475 159.043 264.167 155.357 264.974Z" fill="#00264E"/>
<path fill-rule="evenodd" clip-rule="evenodd" d="M156.836 265.555C156.395 265.555 155.951 265.604 155.515 265.699C153.921 266.051 152.556 267.004 151.676 268.382C150.797 269.761 150.506 271.4 150.86 272.996L150.906 273.193C151.569 275.938 154.011 277.86 156.841 277.86C157.323 277.86 157.811 277.802 158.289 277.687C161.555 276.897 163.58 273.591 162.805 270.319C162.164 267.512 159.712 265.555 156.836 265.555ZM156.841 279.345C153.324 279.345 150.288 276.956 149.46 273.536L149.411 273.324C148.971 271.332 149.332 269.296 150.426 267.583C151.519 265.872 153.214 264.687 155.197 264.249C155.738 264.132 156.29 264.071 156.836 264.071C160.406 264.071 163.455 266.503 164.25 269.982C165.213 274.041 162.695 278.147 158.637 279.13C158.043 279.272 157.44 279.345 156.841 279.345Z" fill="#00264E"/>
<path fill-rule="evenodd" clip-rule="evenodd" d="M159.493 217.368C160.375 217.746 161.289 217.925 162.192 217.925C164.848 217.925 167.377 216.373 168.501 213.786C170.027 210.34 168.489 206.304 165.049 204.751C161.597 203.191 157.529 204.726 155.97 208.182L155.889 208.366C154.397 211.848 156.012 215.873 159.493 217.368Z" fill="#00264E"/>
<path fill-rule="evenodd" clip-rule="evenodd" d="M162.229 204.883C159.826 204.883 157.633 206.298 156.646 208.486L156.569 208.664C155.245 211.753 156.687 215.355 159.786 216.686C160.553 217.016 161.364 217.184 162.193 217.184C164.637 217.184 166.844 215.733 167.82 213.489C169.178 210.42 167.797 206.806 164.742 205.426C163.944 205.066 163.099 204.883 162.229 204.883ZM162.193 218.668C161.16 218.668 160.155 218.46 159.199 218.051C155.348 216.397 153.557 211.921 155.206 208.073L155.289 207.883C156.52 205.156 159.242 203.399 162.229 203.399C163.311 203.399 164.362 203.626 165.354 204.074C169.148 205.789 170.864 210.279 169.18 214.085C167.971 216.867 165.229 218.668 162.193 218.668Z" fill="#00264E"/>
<path fill-rule="evenodd" clip-rule="evenodd" d="M154.751 237.505C155.195 237.591 155.636 237.633 156.073 237.633C159.29 237.633 162.158 235.367 162.793 232.09C163.568 228.378 161.19 224.741 157.478 223.966C153.77 223.195 150.132 225.57 149.357 229.281L149.324 229.446C148.601 233.167 151.03 236.784 154.751 237.505Z" fill="#00264E"/>
<path fill-rule="evenodd" clip-rule="evenodd" d="M156.071 224.563C153.191 224.563 150.672 226.611 150.084 229.433L150.051 229.593C149.741 231.193 150.074 232.826 150.987 234.186C151.901 235.544 153.289 236.465 154.894 236.776C155.283 236.852 155.679 236.891 156.072 236.891C158.989 236.891 161.51 234.812 162.064 231.949C162.402 230.337 162.094 228.702 161.197 227.333C160.303 225.965 158.927 225.027 157.327 224.693C156.913 224.606 156.49 224.563 156.071 224.563ZM156.072 238.375C155.584 238.375 155.093 238.326 154.61 238.233C152.616 237.847 150.893 236.704 149.756 235.014C148.62 233.326 148.208 231.299 148.595 229.303L148.629 229.134C149.361 225.623 152.492 223.079 156.071 223.079C156.592 223.079 157.116 223.134 157.63 223.241C159.62 223.656 161.328 224.82 162.439 226.521C163.551 228.221 163.936 230.253 163.52 232.241C162.833 235.791 159.699 238.375 156.072 238.375Z" fill="#00264E"/>
<path fill-rule="evenodd" clip-rule="evenodd" d="M168.365 198.705C169.584 199.592 170.997 200.018 172.397 200.018C174.518 200.018 176.61 199.038 177.954 197.191L178.028 197.089C180.226 194.01 179.511 189.745 176.439 187.536C173.368 185.329 169.079 186.035 166.863 189.101L172.402 193.155L166.852 189.117C164.621 192.182 165.3 196.476 168.365 198.705Z" fill="#00264E"/>
<path fill-rule="evenodd" clip-rule="evenodd" d="M167.051 190.179C166.386 191.37 166.139 192.74 166.355 194.109C166.61 195.724 167.48 197.143 168.803 198.105C169.855 198.871 171.098 199.276 172.398 199.276C174.353 199.276 176.206 198.334 177.353 196.754C179.377 193.925 178.74 190.104 176.005 188.14C173.563 186.383 169.949 186.789 167.934 188.965L172.839 192.556L171.966 193.754L171.963 193.753L167.051 190.179ZM172.398 200.761C170.781 200.761 169.236 200.258 167.93 199.305C166.285 198.111 165.207 196.347 164.889 194.34C164.609 192.572 164.952 190.803 165.854 189.283L165.831 189.265L166.184 188.775C166.208 188.744 166.228 188.711 166.252 188.68L166.689 188.08L166.715 188.1C168.154 186.465 170.247 185.509 172.448 185.509C174.044 185.509 175.573 186.002 176.872 186.933C180.269 189.375 181.059 194.124 178.633 197.519C177.128 199.59 174.825 200.761 172.398 200.761Z" fill="#00264E"/>
<path fill-rule="evenodd" clip-rule="evenodd" d="M186.199 184.645C187.848 184.645 189.505 184.059 190.821 182.873C193.639 180.337 193.868 175.997 191.332 173.181C188.797 170.363 184.457 170.134 181.64 172.67C181.637 172.67 181.585 172.719 181.582 172.72C178.769 175.259 178.57 179.573 181.105 182.388C182.455 183.887 184.322 184.645 186.199 184.645Z" fill="#00264E"/>
<path fill-rule="evenodd" clip-rule="evenodd" d="M182.058 173.29C179.588 175.541 179.405 179.392 181.656 181.891C182.809 183.17 184.465 183.903 186.198 183.903C187.726 183.903 189.193 183.342 190.325 182.322C192.834 180.064 193.038 176.185 190.78 173.676C189.622 172.389 187.962 171.65 186.228 171.65C184.714 171.65 183.262 172.208 182.135 173.221L182.058 173.29ZM186.198 185.387C184.044 185.387 181.987 184.476 180.554 182.885C177.749 179.772 177.988 174.963 181.086 172.17L181.165 172.098C182.597 170.838 184.377 170.165 186.228 170.165C188.382 170.165 190.443 171.083 191.884 172.683C194.69 175.801 194.436 180.619 191.318 183.425C189.911 184.691 188.093 185.387 186.198 185.387Z" fill="#00264E"/>
<path fill-rule="evenodd" clip-rule="evenodd" d="M202.884 172.622C204.044 172.622 205.22 172.327 206.299 171.706C209.606 169.855 210.788 165.673 208.938 162.366C207.087 159.057 202.905 157.875 199.598 159.726C199.571 159.74 199.486 159.789 199.461 159.803C196.177 161.695 195.04 165.897 196.933 169.181C198.204 171.387 200.511 172.622 202.884 172.622Z" fill="#00264E"/>
<path fill-rule="evenodd" clip-rule="evenodd" d="M202.941 159.593C201.904 159.593 200.87 159.863 199.959 160.374C198.415 161.263 197.4 162.584 196.972 164.164C196.546 165.745 196.761 167.395 197.578 168.81C198.666 170.704 200.7 171.88 202.885 171.88C203.948 171.88 205 171.596 205.928 171.063C208.882 169.41 209.938 165.673 208.291 162.728C207.209 160.795 205.159 159.593 202.941 159.593ZM202.885 173.364C200.171 173.364 197.645 171.902 196.291 169.551C195.277 167.792 195.01 165.742 195.54 163.778C196.07 161.814 197.331 160.175 199.091 159.159L199.236 159.076C200.369 158.444 201.65 158.108 202.941 158.108C205.695 158.108 208.242 159.6 209.587 162.004C211.633 165.663 210.321 170.306 206.661 172.353C205.515 173.014 204.208 173.364 202.885 173.364Z" fill="#00264E"/>
<path fill-rule="evenodd" clip-rule="evenodd" d="M215.229 159.539C216.138 162.49 218.853 164.386 221.786 164.386C222.456 164.386 223.136 164.288 223.807 164.08C223.838 164.071 223.933 164.041 223.964 164.031C227.571 162.866 229.569 158.991 228.404 155.384C227.239 151.776 223.388 149.79 219.782 150.957L221.789 157.52L219.77 150.96C216.148 152.075 214.114 155.915 215.229 159.539Z" fill="#00264E"/>
<path fill-rule="evenodd" clip-rule="evenodd" d="M219.291 151.93C218.045 152.484 217.027 153.433 216.378 154.656C215.614 156.102 215.458 157.759 215.937 159.322C216.733 161.906 219.083 163.645 221.786 163.645C222.395 163.645 223.002 163.552 223.589 163.371L223.74 163.324C226.958 162.283 228.735 158.823 227.698 155.612C226.877 153.072 224.542 151.365 221.889 151.365C221.495 151.365 221.104 151.403 220.718 151.479L222.499 157.303L221.08 157.739L219.291 151.93ZM221.786 165.129C218.428 165.129 215.507 162.971 214.52 159.757C213.923 157.815 214.117 155.757 215.066 153.961C215.903 152.383 217.235 151.173 218.865 150.498L218.857 150.476L219.333 150.323C219.405 150.297 219.478 150.274 219.551 150.251L219.555 150.25C219.625 150.228 219.693 150.205 219.765 150.186L220.26 150.033L220.268 150.057C220.802 149.94 221.344 149.88 221.889 149.88C225.189 149.88 228.091 152 229.109 155.155C230.398 159.145 228.193 163.444 224.193 164.737L224.025 164.789C223.298 165.015 222.543 165.129 221.786 165.129Z" fill="#00264E"/>
<path fill-rule="evenodd" clip-rule="evenodd" d="M242.071 160.389C242.273 160.389 242.478 160.38 242.683 160.363C246.459 160.03 249.25 156.699 248.918 152.922C248.585 149.147 245.255 146.359 241.477 146.689L241.409 146.695C237.633 147.027 234.876 150.356 235.208 154.132C235.525 157.702 238.55 160.389 242.071 160.389Z" fill="#00264E"/>
<path fill-rule="evenodd" clip-rule="evenodd" d="M242.082 147.404C241.904 147.404 241.724 147.412 241.541 147.428C238.132 147.728 235.652 150.704 235.948 154.067C236.24 157.374 239.211 159.922 242.618 159.623C244.248 159.479 245.722 158.71 246.773 157.457C247.822 156.204 248.321 154.616 248.177 152.987C247.898 149.805 245.276 147.404 242.082 147.404ZM242.071 161.132C238.154 161.132 234.814 158.085 234.469 154.197C234.103 150.019 237.186 146.322 241.344 145.955C241.638 145.929 241.862 145.92 242.082 145.92C246.053 145.92 249.308 148.902 249.657 152.857C249.835 154.882 249.216 156.853 247.911 158.41C246.607 159.968 244.772 160.924 242.748 161.102C242.521 161.123 242.296 161.132 242.071 161.132Z" fill="#00264E"/>
<path fill-rule="evenodd" clip-rule="evenodd" d="M154.267 258.151C154.301 258.151 154.335 258.151 154.369 258.151C158.159 258.095 161.188 254.977 161.131 251.187C161.131 251.153 161.13 251.052 161.128 251.018C161.017 247.23 157.871 244.228 154.065 244.336C150.275 244.449 147.294 247.589 147.406 251.377L154.268 251.288L147.406 251.389C147.462 255.144 150.523 258.151 154.267 258.151Z" fill="#00264E"/>
<path fill-rule="evenodd" clip-rule="evenodd" d="M148.205 252.12C148.616 255.096 151.194 257.409 154.267 257.409V258.151L154.356 257.409C157.734 257.358 160.438 254.573 160.389 251.198L161.129 251.018L160.386 251.039C160.288 247.696 157.6 245.077 154.266 245.077L154.088 245.08C152.45 245.128 150.933 245.806 149.812 246.989C148.859 247.994 148.291 249.265 148.169 250.625L154.258 250.546L154.281 252.03L148.205 252.12ZM154.267 258.893C150.382 258.893 147.134 255.92 146.71 252.128H146.686L146.671 251.636C146.668 251.558 146.665 251.478 146.664 251.4V251.38C146.662 251.318 146.661 251.256 146.661 251.193L146.652 250.657H146.679C146.794 248.903 147.51 247.261 148.733 245.968C150.127 244.498 152.011 243.655 154.045 243.596L154.266 243.593C158.408 243.593 161.748 246.844 161.871 250.996L161.874 251.175C161.935 255.369 158.572 258.831 154.38 258.892L154.267 258.893Z" fill="#00264E"/>
<path fill-rule="evenodd" clip-rule="evenodd" d="M218.827 223.933V232.149C218.827 245.471 229.666 256.311 242.988 256.311H251.782L251.795 256.31H257.114C262.868 256.31 267.549 260.99 267.549 266.744V274.961C267.549 280.715 262.868 285.395 257.114 285.395H241.463C236.551 285.395 232.555 281.399 232.555 276.485C232.555 272.695 229.482 269.623 225.69 269.623C221.9 269.623 218.827 272.695 218.827 276.485C218.827 288.968 228.981 299.122 241.463 299.122H243.188V309.34C243.188 313.13 246.261 316.203 250.051 316.203C253.842 316.203 256.915 313.13 256.915 309.34V299.122H257.114C270.437 299.122 281.276 288.283 281.276 274.961V266.744C281.276 253.422 270.437 242.582 257.114 242.582H251.78H248.321H242.988C237.235 242.582 232.553 237.902 232.553 232.148V223.933C232.553 218.179 237.235 213.498 242.988 213.498H258.639C263.552 213.498 267.549 217.494 267.549 222.407C267.549 226.198 270.622 229.271 274.411 229.271C278.203 229.271 281.276 226.198 281.276 222.407C281.276 209.925 271.12 199.771 258.639 199.771H256.914V189.552C256.914 185.762 253.841 182.689 250.051 182.689C246.259 182.689 243.187 185.762 243.187 189.552V199.771H242.988C229.666 199.771 218.827 210.609 218.827 223.933Z" fill="#00264E"/>
<path fill-rule="evenodd" clip-rule="evenodd" d="M225.691 270.365C222.316 270.365 219.569 273.111 219.569 276.485C219.569 288.557 229.391 298.38 241.463 298.38H243.93V309.34C243.93 312.714 246.676 315.461 250.052 315.461C253.428 315.461 256.172 312.714 256.172 309.34V298.38H257.115C270.027 298.38 280.533 287.873 280.533 274.961V266.744C280.533 253.83 270.027 243.324 257.115 243.324H242.987C236.825 243.324 231.812 238.311 231.812 232.148V223.933C231.812 217.769 236.825 212.754 242.987 212.754H258.638C263.96 212.754 268.29 217.085 268.29 222.406C268.29 225.782 271.037 228.529 274.411 228.529C277.788 228.529 280.533 225.782 280.533 222.406C280.533 210.335 270.712 200.513 258.638 200.513H256.171V189.552C256.171 186.177 253.426 183.431 250.05 183.431C246.676 183.431 243.93 186.177 243.93 189.552V200.513H242.987C230.075 200.513 219.569 211.019 219.569 223.933V232.149C219.569 245.063 230.075 255.569 242.987 255.569L257.115 255.567C263.277 255.567 268.29 260.582 268.29 266.744V274.961C268.29 281.124 263.277 286.137 257.115 286.137H241.463C236.141 286.137 231.812 281.807 231.812 276.485C231.812 273.111 229.066 270.365 225.691 270.365ZM250.052 316.945C245.858 316.945 242.445 313.534 242.445 309.34V299.865H241.463C228.571 299.865 218.085 289.377 218.085 276.485C218.085 272.291 221.498 268.88 225.691 268.88C229.885 268.88 233.296 272.291 233.296 276.485C233.296 280.989 236.96 284.653 241.463 284.653H257.115C262.459 284.653 266.806 280.305 266.806 274.961V266.744C266.806 261.4 262.459 257.052 257.115 257.052L242.987 257.053C229.256 257.053 218.085 245.881 218.085 232.149V223.933C218.085 210.382 228.963 199.324 242.445 199.035V189.552C242.445 185.358 245.857 181.946 250.05 181.946C254.244 181.946 257.655 185.358 257.655 189.552V199.029H258.638C271.53 199.029 282.018 209.517 282.018 222.406C282.018 226.602 278.606 230.013 274.411 230.013C270.217 230.013 266.806 226.602 266.806 222.406C266.806 217.904 263.144 214.239 258.638 214.239H242.987C237.644 214.239 233.296 218.588 233.296 223.933V232.148C233.296 237.492 237.644 241.84 242.987 241.84H257.115C270.847 241.84 282.018 253.012 282.018 266.744V274.961C282.018 288.511 271.139 299.569 257.657 299.859V309.34C257.657 313.534 254.246 316.945 250.052 316.945Z" fill="#00264E"/>
<path fill-rule="evenodd" clip-rule="evenodd" d="M418.498 165.004C414.707 165.004 411.636 168.077 411.636 171.867V217.745H386.269C384.471 217.745 383.009 216.283 383.009 214.483V159.608C383.009 157.808 384.471 156.346 386.269 156.346H392.878C396.669 156.346 399.742 153.273 399.742 149.483C399.742 145.692 396.669 142.619 392.878 142.619H386.269C379.153 142.619 373.051 147.018 370.525 153.238C359.859 153.175 349.842 148.452 343.015 140.245L325.912 119.688C316.424 108.283 302.475 101.742 287.637 101.742H216.121C204.461 101.742 194.975 111.228 194.975 122.887C194.975 134.548 204.461 144.034 216.121 144.034H245.364C249.156 144.034 252.227 140.961 252.227 137.169C252.227 133.379 249.156 130.307 245.364 130.307H216.121C212.03 130.307 208.702 126.978 208.702 122.887C208.702 118.797 212.03 115.469 216.121 115.469H287.637C298.383 115.469 308.487 120.206 315.36 128.467L332.461 149.025C341.639 160.056 354.993 166.516 369.281 166.931V207.342H344.09C331.661 207.342 319.894 202.588 310.953 193.957L274.041 158.328C271.438 155.815 271.316 151.608 273.77 148.949C276.27 146.24 280.516 146.063 283.234 148.554L312.214 175.119C315.008 177.681 319.35 177.493 321.911 174.699C324.473 171.904 324.285 167.563 321.49 165.001L292.509 138.436C284.232 130.847 271.3 131.386 263.683 139.638C256.21 147.735 256.578 160.55 264.507 168.203L301.419 203.834C312.931 214.947 328.085 221.069 344.088 221.069H370.609C373.187 227.174 379.235 231.471 386.269 231.471H418.498C422.288 231.471 425.361 228.398 425.361 224.608V171.867C425.361 168.077 422.29 165.004 418.498 165.004Z" fill="#00264E"/>
<path fill-rule="evenodd" clip-rule="evenodd" d="M278.71 133.821C273.216 133.821 267.937 136.125 264.229 140.142C257.026 147.944 257.382 160.294 265.023 167.669L301.936 203.3C313.309 214.279 328.279 220.325 344.087 220.325H371.102L371.294 220.78C373.844 226.823 379.721 230.729 386.268 230.729H418.498C421.872 230.729 424.618 227.982 424.618 224.608V171.867C424.618 170.231 423.981 168.694 422.826 167.538C421.67 166.383 420.134 165.746 418.498 165.746C415.123 165.746 412.377 168.491 412.377 171.867V218.488H386.269C384.062 218.488 382.266 216.691 382.266 214.484V159.607C382.266 157.399 384.062 155.604 386.269 155.604H392.877C396.254 155.604 398.999 152.858 398.999 149.482C398.999 146.106 396.254 143.362 392.877 143.362H386.269C379.626 143.362 373.716 147.347 371.212 153.517L371.023 153.983L370.52 153.98C359.634 153.916 349.402 149.083 342.444 140.719L325.341 120.162C315.995 108.927 302.251 102.485 287.638 102.485H216.121C204.871 102.485 195.718 111.636 195.718 122.887C195.718 134.137 204.871 143.29 216.121 143.29H245.364C248.741 143.29 251.486 140.545 251.486 137.17C251.486 133.794 248.741 131.048 245.364 131.048H216.121C211.621 131.048 207.96 127.387 207.96 122.887C207.96 118.388 211.621 114.727 216.121 114.727H287.638C298.602 114.727 308.917 119.562 315.931 127.993L333.034 148.548C342.018 159.353 355.24 165.781 369.303 166.189L370.024 166.209V208.084H344.089C331.468 208.084 319.516 203.257 310.437 194.492L273.525 158.861C270.634 156.07 270.501 151.399 273.226 148.446C274.628 146.926 276.624 146.055 278.703 146.055C280.574 146.055 282.36 146.748 283.735 148.007L312.715 174.573C313.848 175.611 315.315 176.182 316.85 176.182C318.563 176.182 320.208 175.458 321.364 174.196C322.47 172.992 323.039 171.427 322.967 169.795C322.898 168.162 322.194 166.653 320.987 165.549L292.008 138.982C288.377 135.654 283.653 133.821 278.71 133.821ZM418.498 232.213H386.268C379.288 232.213 373.005 228.147 370.124 221.81H344.087C327.893 221.81 312.556 215.617 300.903 204.367L263.991 168.738C255.774 160.806 255.391 147.526 263.139 139.135C267.126 134.814 272.803 132.336 278.71 132.336C284.026 132.336 289.106 134.308 293.012 137.888L321.99 164.453C323.488 165.826 324.363 167.7 324.45 169.731C324.539 171.76 323.831 173.702 322.458 175.2C321.021 176.767 318.977 177.667 316.85 177.667C314.942 177.667 313.119 176.957 311.712 175.667L282.731 149.101C281.633 148.093 280.202 147.539 278.703 147.539C277.037 147.539 275.44 148.235 274.316 149.452C272.134 151.817 272.242 155.558 274.556 157.792L311.468 193.423C320.27 201.921 331.855 206.6 344.089 206.6H368.54V167.646C354.32 167.032 340.997 160.444 331.891 149.499L314.789 128.941C308.058 120.851 298.161 116.212 287.638 116.212H216.121C212.439 116.212 209.445 119.206 209.445 122.887C209.445 126.569 212.439 129.563 216.121 129.563H245.364C249.557 129.563 252.97 132.976 252.97 137.17C252.97 141.363 249.557 144.775 245.364 144.775H216.121C204.052 144.775 194.233 134.956 194.233 122.887C194.233 110.818 204.052 101 216.121 101H287.638C302.693 101 316.853 107.637 326.484 119.213L343.585 139.771C350.157 147.67 359.772 152.286 370.035 152.488C372.873 146.025 379.191 141.877 386.269 141.877H392.877C397.07 141.877 400.483 145.289 400.483 149.482C400.483 153.676 397.07 157.089 392.877 157.089H386.269C384.881 157.089 383.75 158.218 383.75 159.606V214.484C383.75 215.872 384.881 217.003 386.269 217.003H410.893V171.867C410.893 167.673 414.304 164.262 418.498 164.262C420.53 164.262 422.439 165.053 423.876 166.489C425.313 167.926 426.104 169.836 426.103 171.867V224.608C426.103 228.8 422.691 232.213 418.498 232.213Z" fill="#00264E"/>
<path fill-rule="evenodd" clip-rule="evenodd" d="M81.6055 343.339C85.3954 343.339 88.4683 346.412 88.4683 350.202C88.4683 353.993 85.3954 357.066 81.6055 357.066C77.8156 357.066 74.7427 353.993 74.7427 350.202C74.7427 346.412 77.8156 343.339 81.6055 343.339Z" fill="#00264E"/>
<path fill-rule="evenodd" clip-rule="evenodd" d="M81.6052 344.081C78.231 344.081 75.4847 346.828 75.4847 350.203C75.4847 353.578 78.231 356.324 81.6052 356.324C84.9795 356.324 87.7258 353.578 87.7258 350.203C87.7258 346.828 84.9795 344.081 81.6052 344.081ZM81.6052 357.809C77.4115 357.809 74.0002 354.397 74.0002 350.203C74.0002 346.008 77.4115 342.597 81.6052 342.597C85.7989 342.597 89.2103 346.008 89.2103 350.203C89.2103 354.397 85.7989 357.809 81.6052 357.809Z" fill="#00264E"/>
</svg>
