<svg width="72" height="137" viewBox="0 0 72 137" fill="none" xmlns="http://www.w3.org/2000/svg">
<path d="M15.2035 101.245C25.3649 99.3762 19.9138 118.732 39.0654 115.495C58.2171 112.257 36.291 134.642 26.1296 136.511C15.9682 138.379 5.28488 131.999 2.26771 122.261C-0.749457 112.522 5.0421 103.113 15.2035 101.245Z" fill="#FED06A" fill-opacity="0.43"/>
<path d="M13.7848 101.081C15.0179 100.854 15.995 100.953 16.8041 101.276C17.6143 101.6 18.2772 102.158 18.8675 102.886C19.4595 103.616 19.9719 104.509 20.4837 105.492C20.6743 105.858 20.866 106.239 21.0615 106.628C21.3858 107.272 21.7208 107.938 22.08 108.594C23.2383 110.708 24.6976 112.815 27.099 114.179C29.5039 115.546 32.8167 116.148 37.6432 115.332C40.0238 114.929 41.7359 114.931 42.9 115.225C44.0533 115.515 44.6403 116.082 44.8485 116.809C45.0639 117.562 44.8952 118.551 44.3757 119.718C43.8594 120.878 43.0129 122.175 41.9311 123.522C39.7684 126.215 36.6905 129.072 33.5202 131.372C30.3436 133.676 27.1048 135.399 24.6206 135.855C14.5811 137.701 4.02156 131.392 1.04264 121.777C-1.92908 112.185 3.76705 102.923 13.7848 101.081Z" stroke="black" stroke-opacity="0.2" stroke-width="0.5"/>
<path opacity="0.8" d="M55.8113 11.0662C55.8113 11.0662 -19.1915 35.8654 13.1311 101.168" stroke="#151E36" stroke-width="0.5" stroke-dasharray="3 5"/>
<path d="M71.9985 7.70469C71.917 11.8453 68.4936 15.1102 64.3523 14.9972C60.211 14.8841 56.9199 11.4359 57.0015 7.29531C57.083 3.15475 60.5064 -0.110198 64.6477 0.00284923C68.789 0.115896 72.0801 3.56413 71.9985 7.70469Z" fill="#3A4C57" fill-opacity="0.13"/>
</svg>
