<svg width="273" height="247" viewBox="0 0 273 247" fill="none" xmlns="http://www.w3.org/2000/svg">
<path d="M183.067 12.0797C243.702 41.1996 127.17 118.234 240.153 174.551C353.136 230.868 138.294 260.689 77.6584 231.57C17.0227 202.45 -8.53587 129.709 20.5718 69.0985C49.6795 8.48806 122.431 -17.0401 183.067 12.0797Z" fill="#FED06A" fill-opacity="0.63"/>
<path d="M175.266 15.4315C182.811 19.0552 187.578 23.4127 190.385 28.3614C193.192 33.3109 194.052 38.8774 193.737 44.9447C193.422 51.0151 191.932 57.5726 190.052 64.4951C189.342 67.1063 188.577 69.7717 187.798 72.4814C186.517 76.9433 185.201 81.5252 184.045 86.1825C180.326 101.166 178.231 117.046 184.17 132.716C190.11 148.391 204.069 163.804 232.349 177.901C246.461 184.935 255.422 191.541 260.207 197.645C262.598 200.695 263.94 203.611 264.369 206.385C264.797 209.158 264.318 211.805 263.04 214.327C260.477 219.384 254.698 223.943 246.575 227.921C238.461 231.895 228.045 235.271 216.264 237.982C192.703 243.404 163.714 246.16 136.829 245.741C109.934 245.322 85.1824 241.726 70.0743 234.471C9.56289 205.411 -15.9431 132.819 13.1048 72.3332C42.1527 11.8473 114.755 -13.6286 175.266 15.4315Z" stroke="black" stroke-opacity="0.8" stroke-width="0.5"/>
</svg>
