<svg width="131" height="20" viewBox="0 0 131 20" fill="none" xmlns="http://www.w3.org/2000/svg">
<path d="M1.67807 19.831H0L3.63144 14.9029L0.576835 10.7289H2.28112L4.49669 13.7456L6.71227 10.7289H8.39033L5.32262 14.8769L8.96717 19.831H7.24977L4.47047 16.0471L1.67807 19.831Z" fill="white"/>
<path d="M19.0193 20C17.6471 20 16.4934 19.5579 15.5583 18.6737C14.6406 17.7808 14.1817 16.6496 14.1817 15.28C14.1817 13.9103 14.6406 12.7834 15.5583 11.8992C16.4672 11.0063 17.6209 10.5599 19.0193 10.5599C19.9545 10.5599 20.7847 10.7636 21.5102 11.171V12.6144C20.7673 12.1376 19.9413 11.8992 19.0324 11.8992C18.071 11.8992 17.2669 12.2199 16.6202 12.8614C15.9822 13.4942 15.6631 14.3004 15.6631 15.28C15.6631 16.2595 15.9865 17.07 16.6333 17.7115C17.28 18.3443 18.0972 18.6607 19.0848 18.6607C20.1336 18.6607 21.0076 18.3833 21.7068 17.8285V19.2718C20.9377 19.7573 20.0419 20 19.0193 20Z" fill="white"/>
<path d="M34.89 19.831H28.1909V10.7289H34.7196V12.0422H29.633V14.3177H33.7757V15.631H29.633V18.5177H34.89V19.831Z" fill="white"/>
<path d="M47.641 19.831H41.309V10.7289H42.7642V18.5177H47.641V19.831Z" fill="white"/>
<path d="M60.5885 19.831H53.8893V10.7289H60.4181V12.0422H55.3314V14.3177H59.4742V15.631H55.3314V18.5177H60.5885V19.831Z" fill="white"/>
<path d="M68.4495 19.831H67.0074V10.7289H71.1895C72.1334 10.7289 72.8719 10.9673 73.4051 11.4441C73.9469 11.9295 74.2179 12.5537 74.2179 13.3165C74.2179 13.9493 74.0387 14.4911 73.6804 14.9419C73.3308 15.384 72.8457 15.6787 72.2252 15.8261L75.1093 19.831H73.3657L70.5995 15.9821H68.4495V19.831ZM68.4495 12.0422V14.7208H71.0977C71.6221 14.7208 72.0285 14.6038 72.3169 14.3698C72.6141 14.1357 72.7627 13.802 72.7627 13.3685C72.7627 12.9524 72.6141 12.6274 72.3169 12.3933C72.0285 12.1593 71.6221 12.0422 71.0977 12.0422H68.4495Z" fill="white"/>
<path d="M82.0235 19.831H80.4896L84.5013 10.6769H85.8909L89.9025 19.831H88.3556L87.3592 17.5685H83.0067L82.0235 19.831ZM85.183 12.4843L83.5049 16.3072H86.861L85.183 12.4843Z" fill="white"/>
<path d="M94.0336 12.0422V10.7289H101.546V12.0422H98.5041V19.831H97.062V12.0422H94.0336Z" fill="white"/>
<path d="M109.252 17.6985C109.873 18.34 110.633 18.6607 111.534 18.6607C112.434 18.6607 113.194 18.34 113.815 17.6985C114.435 17.0397 114.745 16.2335 114.745 15.28C114.745 14.3177 114.435 13.5159 113.815 12.8744C113.194 12.2243 112.434 11.8992 111.534 11.8992C110.633 11.8992 109.873 12.2243 109.252 12.8744C108.641 13.5072 108.335 14.3091 108.335 15.28C108.335 16.2508 108.641 17.057 109.252 17.6985ZM114.89 18.6477C113.998 19.5492 112.88 20 111.534 20C110.188 20 109.069 19.5492 108.177 18.6477C107.295 17.7288 106.853 16.6062 106.853 15.28C106.853 13.945 107.295 12.8267 108.177 11.9252C109.069 11.015 110.188 10.5599 111.534 10.5599C112.88 10.5599 113.998 11.015 114.89 11.9252C115.781 12.8267 116.227 13.945 116.227 15.28C116.227 16.6149 115.781 17.7375 114.89 18.6477Z" fill="white"/>
<path d="M124.34 19.831H122.898V10.7289H127.08C128.024 10.7289 128.763 10.9673 129.296 11.4441C129.838 11.9295 130.109 12.5537 130.109 13.3165C130.109 13.9493 129.929 14.4911 129.571 14.9419C129.221 15.384 128.736 15.6787 128.116 15.8261L131 19.831H129.256L126.49 15.9821H124.34V19.831ZM124.34 12.0422V14.7208H126.988C127.513 14.7208 127.919 14.6038 128.208 14.3698C128.505 14.1357 128.653 13.802 128.653 13.3685C128.653 12.9524 128.505 12.6274 128.208 12.3933C127.919 12.1593 127.513 12.0422 126.988 12.0422H124.34Z" fill="white"/>
<path d="M2.68019 6.30796H0.339284V0.482667H2.68019C3.63109 0.482667 4.41139 0.754514 5.02109 1.29821C5.62519 1.8419 5.92725 2.54094 5.92725 3.39531C5.92725 4.26079 5.62519 4.9626 5.02109 5.50074C4.42258 6.03889 3.64228 6.30796 2.68019 6.30796ZM1.84954 1.79752V4.99311H2.57111C3.14166 4.99311 3.58355 4.85441 3.89679 4.57702C4.21002 4.29962 4.36664 3.90572 4.36664 3.39531C4.36664 2.88491 4.21002 2.49101 3.89679 2.21361C3.58355 1.93622 3.14166 1.79752 2.57111 1.79752H1.84954Z" fill="white"/>
<path d="M8.82755 6.41614C8.36888 6.41614 7.99411 6.28577 7.70324 6.02502C7.41797 5.76981 7.27534 5.43139 7.27534 5.00975C7.28093 4.56037 7.45153 4.21918 7.78715 3.98617C8.12276 3.74761 8.50592 3.63387 8.93662 3.64497C9.35614 3.64497 9.71692 3.71709 10.019 3.86134V3.80308C10.019 3.49795 9.90151 3.30655 9.66658 3.22888C9.48199 3.1623 9.26944 3.12901 9.02892 3.12901C8.57584 3.12901 8.16191 3.23165 7.78715 3.43692V2.28019C8.22344 2.07491 8.75763 1.97228 9.3897 1.97228C10.0106 1.97228 10.5168 2.12762 10.9083 2.4383C11.2943 2.74344 11.4873 3.15675 11.4873 3.67826V4.95982C11.4873 5.10961 11.5712 5.18451 11.739 5.18451C11.8397 5.18451 11.9208 5.16787 11.9823 5.13458V6.18313C11.7921 6.32738 11.5404 6.3995 11.2272 6.3995C10.7238 6.3995 10.377 6.23861 10.1868 5.91683C9.84557 6.24971 9.3925 6.41614 8.82755 6.41614ZM9.33097 5.42585C9.62743 5.42585 9.85676 5.30379 10.019 5.05968V4.61863C9.85676 4.49657 9.6498 4.43554 9.39809 4.43554C9.20791 4.43554 9.04849 4.4827 8.91984 4.57702C8.79678 4.67133 8.73525 4.79338 8.73525 4.94318C8.73525 5.08742 8.79119 5.20393 8.90306 5.2927C9.01493 5.38146 9.15757 5.42585 9.33097 5.42585Z" fill="white"/>
<path d="M15.3451 6.41614C14.8976 6.41614 14.5397 6.29687 14.2712 6.05831C14.0027 5.8142 13.8684 5.473 13.8684 5.03472V3.26216H13.1217V2.08046H13.8684V0.998622H15.3535V2.08046H16.4359V3.26216H15.3535V4.63527C15.3535 4.81835 15.3899 4.94873 15.4626 5.0264C15.5409 5.10407 15.6696 5.1429 15.8486 5.1429C16.0499 5.1429 16.2457 5.09297 16.4359 4.99311V6.16649C16.1674 6.33293 15.8038 6.41614 15.3451 6.41614Z" fill="white"/>
<path d="M19.4079 6.41614C18.9492 6.41614 18.5744 6.28577 18.2836 6.02502C17.9983 5.76981 17.8557 5.43139 17.8557 5.00975C17.8613 4.56037 18.0319 4.21918 18.3675 3.98617C18.7031 3.74761 19.0863 3.63387 19.517 3.64497C19.9365 3.64497 20.2973 3.71709 20.5993 3.86134V3.80308C20.5993 3.49795 20.4818 3.30655 20.2469 3.22888C20.0623 3.1623 19.8498 3.12901 19.6093 3.12901C19.1562 3.12901 18.7423 3.23165 18.3675 3.43692V2.28019C18.8038 2.07491 19.338 1.97228 19.97 1.97228C20.5909 1.97228 21.0971 2.12762 21.4887 2.4383C21.8746 2.74344 22.0676 3.15675 22.0676 3.67826V4.95982C22.0676 5.10961 22.1515 5.18451 22.3193 5.18451C22.42 5.18451 22.5011 5.16787 22.5627 5.13458V6.18313C22.3725 6.32738 22.1208 6.3995 21.8075 6.3995C21.3041 6.3995 20.9573 6.23861 20.7671 5.91683C20.4259 6.24971 19.9728 6.41614 19.4079 6.41614ZM19.9113 5.42585C20.2078 5.42585 20.4371 5.30379 20.5993 5.05968V4.61863C20.4371 4.49657 20.2301 4.43554 19.9784 4.43554C19.7882 4.43554 19.6288 4.4827 19.5002 4.57702C19.3771 4.67133 19.3156 4.79338 19.3156 4.94318C19.3156 5.08742 19.3715 5.20393 19.4834 5.2927C19.5953 5.38146 19.7379 5.42585 19.9113 5.42585Z" fill="white"/>
<path d="M29.4115 6.42447C28.5054 6.42447 27.7474 6.21642 27.1377 5.80033V4.26911C27.3727 4.48548 27.7083 4.6741 28.1446 4.83499C28.5641 4.99033 28.9668 5.06801 29.3528 5.06801C29.9513 5.06801 30.2506 4.91544 30.2506 4.6103C30.2506 4.48825 30.175 4.37452 30.024 4.26911C29.9905 4.24137 29.8646 4.19144 29.6465 4.11931L29.1179 3.9612L28.69 3.83637L28.304 3.68658C28.1306 3.62 28.0019 3.55898 27.918 3.5035C27.616 3.28158 27.4258 3.10405 27.3475 2.9709C27.2077 2.7046 27.1377 2.41888 27.1377 2.11375C27.1377 1.55896 27.3419 1.129 27.7502 0.823863C28.1642 0.518728 28.7291 0.366161 29.4451 0.366161C30.1611 0.366161 30.8239 0.52705 31.4336 0.848828V2.28851C31.1707 2.12762 30.8603 1.99447 30.5023 1.88906C30.1331 1.7781 29.7863 1.72262 29.4619 1.72262C28.9473 1.72262 28.69 1.85022 28.69 2.10543C28.69 2.21639 28.7711 2.30515 28.9333 2.37173L29.2018 2.46327C29.2633 2.48546 29.3947 2.52429 29.5961 2.57977C29.7975 2.63525 29.9345 2.67409 30.0072 2.69628C30.5666 2.87936 31.0085 3.1096 31.3329 3.38699C31.6517 3.65884 31.8112 4.04719 31.8112 4.55205C31.8112 5.11794 31.5874 5.57286 31.1399 5.91683C30.698 6.25526 30.1219 6.42447 29.4115 6.42447Z" fill="white"/>
<path d="M35.6182 6.41614C34.9917 6.41614 34.4436 6.21642 33.9737 5.81697C33.5094 5.41752 33.2773 4.87383 33.2773 4.18589C33.2773 3.4924 33.5122 2.95148 33.9821 2.56313C34.4575 2.16923 35.0085 1.97228 35.635 1.97228C36.1104 1.97228 36.53 2.05827 36.8935 2.23026V3.46189C36.5411 3.31764 36.1999 3.24552 35.8699 3.24552C35.5455 3.24552 35.2742 3.33151 35.0561 3.5035C34.8435 3.67548 34.7372 3.90572 34.7372 4.19421C34.7372 4.4827 34.8435 4.71571 35.0561 4.89325C35.2686 5.06523 35.5371 5.15122 35.8615 5.15122C36.2699 5.15122 36.6334 5.06801 36.9523 4.90157V6.12488C36.5328 6.31906 36.0881 6.41614 35.6182 6.41614Z" fill="white"/>
<path d="M40.3056 6.30796H38.8206V2.08046H40.3056V6.30796ZM39.5589 1.69766C39.324 1.69766 39.1226 1.61721 38.9548 1.45632C38.7926 1.28989 38.7115 1.08739 38.7115 0.848828C38.7115 0.610269 38.7926 0.410544 38.9548 0.249655C39.1226 0.0832184 39.324 0 39.5589 0C39.7994 0 40.0008 0.0832184 40.163 0.249655C40.3308 0.410544 40.4147 0.610269 40.4147 0.848828C40.4147 1.08739 40.3308 1.28989 40.163 1.45632C40.0008 1.61721 39.7994 1.69766 39.5589 1.69766Z" fill="white"/>
<path d="M44.4049 6.41614C43.7449 6.41614 43.1827 6.21642 42.7185 5.81697C42.2598 5.41197 42.0305 4.87106 42.0305 4.19421C42.0305 3.5673 42.2374 3.04025 42.6513 2.61306C43.0653 2.18587 43.6106 1.97228 44.2875 1.97228C44.8972 1.97228 45.3894 2.18032 45.7642 2.59642C46.1501 3.00141 46.3431 3.53124 46.3431 4.18589V4.55205H43.4904C43.5519 4.76287 43.6945 4.92653 43.9183 5.04304C44.142 5.154 44.4133 5.20948 44.7321 5.20948C45.1964 5.20948 45.6523 5.08742 46.0998 4.84332V5.97509C45.6914 6.26913 45.1265 6.41614 44.4049 6.41614ZM43.482 3.7698H44.8916C44.886 3.55898 44.8188 3.38699 44.6902 3.25384C44.5615 3.12069 44.4049 3.05412 44.2203 3.05412C44.0246 3.05412 43.8595 3.11792 43.7253 3.24552C43.5911 3.37312 43.5099 3.54788 43.482 3.7698Z" fill="white"/>
<path d="M49.5412 3.66161V6.30796H48.0562V2.08046H49.5412V2.55481C49.9104 2.16645 50.3411 1.97228 50.8334 1.97228C51.3032 1.97228 51.6724 2.13039 51.9409 2.44662C52.215 2.75731 52.352 3.17895 52.352 3.71154V6.30796H50.8669V3.98617C50.8669 3.74761 50.811 3.57285 50.6991 3.46189C50.5872 3.34538 50.439 3.28713 50.2544 3.28713C49.9636 3.28713 49.7258 3.41196 49.5412 3.66161Z" fill="white"/>
<path d="M56.2955 6.41614C55.669 6.41614 55.1208 6.21642 54.651 5.81697C54.1867 5.41752 53.9546 4.87383 53.9546 4.18589C53.9546 3.4924 54.1895 2.95148 54.6593 2.56313C55.1348 2.16923 55.6858 1.97228 56.3122 1.97228C56.7877 1.97228 57.2072 2.05827 57.5708 2.23026V3.46189C57.2184 3.31764 56.8772 3.24552 56.5472 3.24552C56.2227 3.24552 55.9515 3.33151 55.7333 3.5035C55.5208 3.67548 55.4145 3.90572 55.4145 4.19421C55.4145 4.4827 55.5208 4.71571 55.7333 4.89325C55.9459 5.06523 56.2144 5.15122 56.5388 5.15122C56.9471 5.15122 57.3107 5.06801 57.6295 4.90157V6.12488C57.21 6.31906 56.7653 6.41614 56.2955 6.41614Z" fill="white"/>
<path d="M61.4799 6.41614C60.8199 6.41614 60.2577 6.21642 59.7934 5.81697C59.3348 5.41197 59.1054 4.87106 59.1054 4.19421C59.1054 3.5673 59.3124 3.04025 59.7263 2.61306C60.1402 2.18587 60.6856 1.97228 61.3624 1.97228C61.9721 1.97228 62.4644 2.18032 62.8391 2.59642C63.2251 3.00141 63.4181 3.53124 63.4181 4.18589V4.55205H60.5653C60.6269 4.76287 60.7695 4.92653 60.9933 5.04304C61.217 5.154 61.4883 5.20948 61.8071 5.20948C62.2714 5.20948 62.7273 5.08742 63.1747 4.84332V5.97509C62.7664 6.26913 62.2015 6.41614 61.4799 6.41614ZM60.557 3.7698H61.9665C61.9609 3.55898 61.8938 3.38699 61.7652 3.25384C61.6365 3.12069 61.4799 3.05412 61.2953 3.05412C61.0995 3.05412 60.9345 3.11792 60.8003 3.24552C60.666 3.37312 60.5849 3.54788 60.557 3.7698Z" fill="white"/>
</svg>
