<svg width="198" height="212" viewBox="0 0 198 212" fill="none" xmlns="http://www.w3.org/2000/svg">
<path d="M169.649 34.5292C210.875 70.9437 102.538 99.9398 178.903 169.323C255.269 238.705 80.0919 208.662 38.8664 172.248C-2.35911 135.833 -6.50226 75.4841 29.6124 37.4542C65.7271 -0.575688 128.424 -1.88526 169.649 34.5292Z" fill="#FED06A" fill-opacity="0.63"/>
<path d="M165.168 26.9854C170.295 31.5138 173.077 35.9089 174.193 40.2612C175.31 44.6129 174.769 48.9514 173.197 53.3813C171.624 57.8148 169.023 62.3275 166.032 67.0213C164.905 68.7903 163.721 70.5872 162.517 72.4143C160.534 75.4243 158.497 78.5165 156.569 81.7022C150.369 91.9526 145.24 103.277 146.474 116.403C147.708 129.532 155.302 144.407 174.42 161.776C183.957 170.442 189.54 177.532 191.957 183.229C193.164 186.074 193.575 188.56 193.307 190.715C193.038 192.867 192.09 194.707 190.544 196.264C187.44 199.389 181.921 201.376 174.675 202.361C167.439 203.345 158.527 203.325 148.687 202.479C129.008 200.786 105.652 195.789 84.6401 188.941C63.6204 182.09 44.9829 173.397 34.7165 164.329C-6.41189 128 -10.5308 67.8139 25.4783 29.8952C61.4931 -8.02954 124.036 -9.34714 165.168 26.9854Z" stroke="black" stroke-opacity="0.8" stroke-width="0.5"/>
</svg>
