<svg width="74" height="33" viewBox="0 0 74 33" fill="none" xmlns="http://www.w3.org/2000/svg">
<path d="M36 0C32.6863 0 30 2.46243 30 5.5C30 8.53757 32.6863 11 36 11C39.3137 11 42 8.53757 42 5.5C42 2.46243 39.3137 0 36 0Z" fill="#3A4C57" fill-opacity="0.07"/>
<path opacity="0.2" d="M43.5 8C40.4624 8 38 10.4624 38 13.5C38 16.5376 40.4624 19 43.5 19C46.5376 19 49 16.5376 49 13.5C49 10.4624 46.5376 8 43.5 8Z" fill="#151E36"/>
<path d="M52.5 0C49.4624 0 47 2.46243 47 5.5C47 8.53757 49.4624 11 52.5 11C55.5376 11 58 8.53757 58 5.5C58 2.46243 55.5376 0 52.5 0Z" fill="#3A4C57" fill-opacity="0.07"/>
<path opacity="0.2" d="M60.5 8C57.4624 8 55 10.4624 55 13.5C55 16.5376 57.4624 19 60.5 19C63.5376 19 66 16.5376 66 13.5C66 10.4624 63.5376 8 60.5 8Z" fill="#151E36"/>
<path d="M68 0C64.6863 0 62 2.46243 62 5.5C62 8.53757 64.6863 11 68 11C71.3137 11 74 8.53757 74 5.5C74 2.46243 71.3137 0 68 0Z" fill="#3A4C57" fill-opacity="0.07"/>
<path opacity="0.2" d="M13.5 8C10.4624 8 8 10.4624 8 13.5C8 16.5376 10.4624 19 13.5 19C16.5376 19 19 16.5376 19 13.5C19 10.4624 16.5376 8 13.5 8Z" fill="#151E36"/>
<path d="M6 0C2.68629 0 0 2.46243 0 5.5C0 8.53757 2.68629 11 6 11C9.31371 11 12 8.53757 12 5.5C12 2.46243 9.31371 0 6 0Z" fill="#3A4C57" fill-opacity="0.07"/>
<path d="M20.5 0C17.4624 0 15 2.46243 15 5.5C15 8.53757 17.4624 11 20.5 11C23.5376 11 26 8.53757 26 5.5C26 2.46243 23.5376 0 20.5 0Z" fill="#3A4C57" fill-opacity="0.07"/>
<path opacity="0.2" d="M29 8C25.6863 8 23 10.4624 23 13.5C23 16.5376 25.6863 19 29 19C32.3137 19 35 16.5376 35 13.5C35 10.4624 32.3137 8 29 8Z" fill="#151E36"/>
<path opacity="0.4" d="M20.5 15C17.4624 15 15 17.4624 15 20.5C15 23.5376 17.4624 26 20.5 26C23.5376 26 26 23.5376 26 20.5C26 17.4624 23.5376 15 20.5 15Z" fill="#151E36"/>
<path d="M36 15C31.0294 15 27 18.8056 27 23.5C27 28.1944 31.0294 32 36 32C40.9706 32 45 28.1944 45 23.5C45 18.8056 40.9706 15 36 15Z" fill="#FED579"/>
<path d="M37 15C32.0294 15 28 18.8056 28 23.5C28 28.1944 32.0294 32 37 32C41.9706 32 46 28.1944 46 23.5C46 18.8056 41.9706 15 37 15Z" stroke="black" stroke-width="0.2"/>
<path opacity="0.4" d="M53 15C49.6863 15 47 17.4624 47 20.5C47 23.5376 49.6863 26 53 26C56.3137 26 59 23.5376 59 20.5C59 17.4624 56.3137 15 53 15Z" fill="#151E36"/>
</svg>
