<svg width="71" height="31" viewBox="0 0 71 31" fill="none" xmlns="http://www.w3.org/2000/svg">
<path opacity="0.99" d="M63.671 12.7513C63.9659 13.4079 64.1683 14.0821 64.2709 14.7701L64.0236 14.807C64.0737 15.1426 64.0992 15.4815 64.0992 15.8234C64.0992 16.1653 64.0737 16.5042 64.0236 16.8398L64.2709 16.8767C64.1683 17.5647 63.9659 18.2388 63.671 18.8955L63.443 18.7931C63.1722 19.3959 62.8202 19.9858 62.3915 20.5594L62.5918 20.709C62.1872 21.2505 61.7174 21.776 61.187 22.2832L61.0142 22.1026C60.5323 22.5635 59.9985 23.0099 59.4163 23.4398L59.5649 23.641C59.0182 24.0447 58.4303 24.4334 57.8043 24.8055L57.6766 24.5906C57.0955 24.936 56.4807 25.2673 55.8345 25.5831L55.9442 25.8077C55.3277 26.1091 54.6833 26.3963 54.0133 26.6683L53.9193 26.4367C53.2856 26.6939 52.6286 26.9375 51.9498 27.1666L52.0298 27.4035C51.3763 27.6241 50.7031 27.8312 50.0118 28.024L49.9447 27.7832C49.2822 27.9681 48.6028 28.1398 47.908 28.2976L47.9633 28.5414C47.2863 28.6952 46.5948 28.8359 45.8902 28.9628L45.8459 28.7167C45.1659 28.8392 44.4735 28.9488 43.7699 29.0449L43.8038 29.2926C43.1141 29.3869 42.4138 29.4682 41.7039 29.5361L41.6801 29.2872C40.9895 29.3533 40.2898 29.4066 39.582 29.4466L39.5961 29.6962C38.8996 29.7355 38.1952 29.7621 37.4841 29.7753L37.4794 29.5254C37.1298 29.5319 36.7784 29.5352 36.4256 29.5352C36.0727 29.5352 35.7214 29.5319 35.3717 29.5254L35.3671 29.7753C34.6559 29.7621 33.9516 29.7355 33.255 29.6962L33.2691 29.4466C32.5613 29.4066 31.8616 29.3533 31.171 29.2872L31.1472 29.5361C30.4374 29.4682 29.737 29.3869 29.0474 29.2926L29.0812 29.0449C28.3776 28.9488 27.6852 28.8392 27.0052 28.7167L26.9609 28.9628C26.2563 28.8359 25.5648 28.6952 24.8878 28.5414L24.9432 28.2976C24.2483 28.1398 23.569 27.9681 22.9065 27.7832L22.8393 28.024C22.148 27.8312 21.4749 27.6241 20.8214 27.4035L20.9013 27.1666C20.2226 26.9375 19.5655 26.6939 18.9319 26.4367L18.8379 26.6683C18.1678 26.3963 17.5234 26.1091 16.9069 25.8077L17.0167 25.5831C16.3705 25.2673 15.7556 24.936 15.1746 24.5906L15.0468 24.8055C14.4208 24.4334 13.833 24.0447 13.2863 23.641L13.4348 23.4398C12.8526 23.0099 12.3189 22.5635 11.8369 22.1026L11.6641 22.2832C11.1338 21.776 10.6639 21.2505 10.2593 20.709L10.4596 20.5594C10.031 19.9858 9.67891 19.3959 9.40816 18.793L9.1801 18.8955C8.88522 18.2388 8.68286 17.5647 8.58022 16.8767L8.82749 16.8398C8.77742 16.5042 8.75195 16.1653 8.75195 15.8234C8.75195 15.4815 8.77742 15.1426 8.82749 14.807L8.58022 14.7701C8.68286 14.0821 8.88522 13.4079 9.1801 12.7513L9.40816 12.8537C9.67891 12.2508 10.031 11.661 10.4596 11.0874L10.2593 10.9377C10.6639 10.3963 11.1338 9.87073 11.6641 9.36352L11.8369 9.5442C12.3189 9.08329 12.8526 8.63685 13.4348 8.20691L13.2863 8.00581C13.833 7.60206 14.4208 7.21338 15.0468 6.84127L15.1746 7.05617C15.7556 6.71077 16.3705 6.37949 17.0167 6.06362L16.9069 5.83902C17.5234 5.53764 18.1678 5.25043 18.8379 4.97844L18.9319 5.21008C19.5655 4.95287 20.2226 4.70925 20.9013 4.48015L20.8214 4.24328C21.4749 4.0227 22.148 3.81558 22.8393 3.62273L22.9065 3.86353C23.569 3.6787 24.2483 3.50701 24.9432 3.34917L24.8878 3.10538C25.5648 2.95158 26.2563 2.81091 26.9609 2.684L27.0052 2.93004C27.6852 2.80757 28.3776 2.69797 29.0812 2.60183L29.0474 2.35413C29.737 2.2599 30.4374 2.17856 31.1472 2.11066L31.171 2.35952C31.8616 2.29346 32.5613 2.24018 33.2691 2.20018L33.255 1.95058C33.9516 1.91122 34.6559 1.88467 35.3671 1.87142L35.3717 2.12137C35.7214 2.11486 36.0727 2.11157 36.4256 2.11157C36.7784 2.11157 37.1298 2.11486 37.4794 2.12137L37.4841 1.87142C38.1952 1.88467 38.8996 1.91122 39.5961 1.95058L39.582 2.20018C40.2898 2.24018 40.9895 2.29346 41.6801 2.35952L41.7039 2.11066C42.4138 2.17856 43.1141 2.2599 43.8038 2.35413L43.7699 2.60183C44.4735 2.69797 45.1659 2.80757 45.8459 2.93004L45.8902 2.684C46.5948 2.81091 47.2863 2.95158 47.9633 3.10538L47.908 3.34917C48.6028 3.50701 49.2822 3.6787 49.9446 3.86353L50.0118 3.62273C50.7031 3.81558 51.3763 4.0227 52.0298 4.24328L51.9498 4.48015C52.6286 4.70925 53.2856 4.95287 53.9193 5.21008L54.0133 4.97844C54.6833 5.25043 55.3277 5.53764 55.9442 5.83901L55.8345 6.06362C56.4807 6.37949 57.0955 6.71077 57.6766 7.05617L57.8043 6.84127C58.4303 7.21338 59.0182 7.60206 59.5649 8.00581L59.4163 8.20691C59.9985 8.63685 60.5323 9.08329 61.0142 9.5442L61.187 9.36352C61.7174 9.87073 62.1872 10.3963 62.5918 10.9377L62.3915 11.0874C62.8202 11.661 63.1722 12.2508 63.443 12.8537L63.671 12.7513Z" stroke="#9194A1" stroke-width="0.5" stroke-dasharray="2 2 2 2 2 2 2 2"/>
<circle r="7.03887" transform="matrix(1 0 0 -1 63.3123 15.5394)" fill="#FED579"/>
<circle r="6.93887" transform="matrix(1 0 0 -1 62.5076 15.8327)" stroke="black" stroke-width="0.2"/>
<circle r="7.03887" transform="matrix(1 0 0 -1 7.71563 15.598)" fill="#FED579"/>
<circle r="6.93887" transform="matrix(1 0 0 -1 7.03887 15.8328)" stroke="black" stroke-width="0.2"/>
<circle cx="43.8715" cy="2.79236" r="2.54236" fill="white" stroke="black" stroke-width="0.5"/>
<circle cx="25.5326" cy="28.1649" r="2.54236" fill="white" stroke="black" stroke-width="0.5"/>
<circle cx="48.0612" cy="28.3891" r="0.896181" fill="black" stroke="black"/>
<circle cx="23.86" cy="3.51209" r="0.896181" fill="black" stroke="black"/>
</svg>
