<svg width="61" height="31" viewBox="0 0 61 31" fill="none" xmlns="http://www.w3.org/2000/svg">
<path d="M14.3009 29.583C22.1991 29.583 28.6018 23.1492 28.6018 15.2128C28.6018 7.27634 22.1991 0.84259 14.3009 0.84259C6.40274 0.84259 0 7.27634 0 15.2128C0 23.1492 6.40274 29.583 14.3009 29.583Z" fill="#3A4C57" fill-opacity="0.13"/>
<path d="M44.713 29.583C52.6112 29.583 59.014 23.1492 59.014 15.2128C59.014 7.27634 52.6112 0.84259 44.713 0.84259C36.8149 0.84259 30.4121 7.27634 30.4121 15.2128C30.4121 23.1492 36.8149 29.583 44.713 29.583Z" fill="#FED579"/>
<path d="M46.1149 29.4068C53.9163 29.4068 60.2405 23.0519 60.2405 15.2127C60.2405 7.37357 53.9163 1.01868 46.1149 1.01868C38.3135 1.01868 31.9893 7.37357 31.9893 15.2127C31.9893 23.0519 38.3135 29.4068 46.1149 29.4068Z" stroke="black" stroke-width="0.5"/>
<path opacity="0.5" d="M29.5068 30.3927V0.704529" stroke="#151E36" stroke-width="0.5" stroke-dasharray="2 2 2 2 2 2"/>
</svg>
