<svg width="49" height="36" viewBox="0 0 49 36" fill="none" xmlns="http://www.w3.org/2000/svg">
<g opacity="0.4">
<path opacity="0.6" d="M25.5651 14.086L18.9419 19.9988" stroke="#151E36" stroke-width="0.5" stroke-dasharray="2 2 2 2 2 2 2 2"/>
<path opacity="0.6" d="M40.9855 10.9029L32.1516 11.7922" stroke="#151E36" stroke-width="0.5" stroke-dasharray="2 2 2 2 2 2"/>
<path opacity="0.6" d="M7.38441 8.58091L10.5377 16.8806" stroke="#151E36" stroke-width="0.5" stroke-dasharray="2 2 2 2 2 2 2 2"/>
<path opacity="0.6" d="M37.7592 18.8989L32.0694 12.0832" stroke="#151E36" stroke-width="0.5" stroke-dasharray="2 2"/>
<circle cx="13.0266" cy="23.8388" r="7.15076" transform="rotate(-93.8423 13.0266 23.8388)" fill="#A1A5AF"/>
<circle cx="28.4086" cy="11.902" r="3.72833" transform="rotate(-93.8423 28.4086 11.902)" fill="#A1A5AF"/>
<circle cx="44.7748" cy="10.8028" r="3.72833" transform="rotate(-93.8423 44.7748 10.8028)" fill="#A1A5AF"/>
<circle cx="40.9779" cy="21.0223" r="3.72833" transform="rotate(-93.8423 40.9779 21.0223)" fill="#A1A5AF"/>
<circle cx="6.01797" cy="4.93585" r="3.72833" transform="rotate(-93.8423 6.01797 4.93585)" fill="#A1A5AF"/>
</g>
<path opacity="0.6" d="M24.5651 18.086L17.9419 23.9988" stroke="#151E36" stroke-width="0.5" stroke-dasharray="2 2 2 2 2 2 2 2"/>
<path opacity="0.6" d="M39.9855 14.9029L31.1516 15.7922" stroke="#151E36" stroke-width="0.5" stroke-dasharray="2 2 2 2 2 2"/>
<path opacity="0.6" d="M6.38441 12.5809L9.53768 20.8806" stroke="#151E36" stroke-width="0.5" stroke-dasharray="2 2 2 2 2 2 2 2"/>
<path opacity="0.6" d="M36.7592 22.8989L31.0694 16.0832" stroke="#151E36" stroke-width="0.5" stroke-dasharray="2 2"/>
<circle cx="12.0266" cy="27.8388" r="7.15076" transform="rotate(-93.8423 12.0266 27.8388)" fill="#FED06A"/>
<circle cx="27.4086" cy="15.902" r="3.72833" transform="rotate(-93.8423 27.4086 15.902)" fill="#FED06A"/>
<circle cx="43.7758" cy="14.8028" r="3.72833" transform="rotate(-93.8423 43.7758 14.8028)" fill="#FED06A"/>
<circle cx="39.9779" cy="25.0223" r="3.72833" transform="rotate(-93.8423 39.9779 25.0223)" fill="#FED06A"/>
<circle cx="5.01797" cy="8.93585" r="3.72833" transform="rotate(-93.8423 5.01797 8.93585)" fill="#FED06A"/>
<circle cx="11.3889" cy="27.8388" r="7.05076" transform="rotate(-93.8423 11.3889 27.8388)" stroke="black" stroke-width="0.2"/>
<circle cx="26.7709" cy="15.9019" r="3.62833" transform="rotate(-93.8423 26.7709 15.9019)" stroke="black" stroke-width="0.2"/>
<circle cx="43.1371" cy="14.8027" r="3.62833" transform="rotate(-93.8423 43.1371 14.8027)" stroke="black" stroke-width="0.2"/>
<circle cx="39.3402" cy="25.0223" r="3.62833" transform="rotate(-93.8423 39.3402 25.0223)" stroke="black" stroke-width="0.2"/>
<circle cx="4.38027" cy="8.93573" r="3.62833" transform="rotate(-93.8423 4.38027 8.93573)" stroke="black" stroke-width="0.2"/>
</svg>
