<svg width="400" height="209" viewBox="0 0 400 209" fill="none" xmlns="http://www.w3.org/2000/svg">
<path d="M134.665 70.5753C134.632 106.136 68.7005 67.7304 67.6179 134.453C66.5354 201.176 0.657404 105.116 0.690349 69.556C0.723293 33.9958 30.7412 5.39677 67.7372 5.67826C104.733 5.95975 134.698 35.0152 134.665 70.5753Z" fill="#FED06A" fill-opacity="0.43"/>
<path d="M136.861 66.1706C136.857 70.5759 135.833 73.8105 134.063 76.2422C132.291 78.6756 129.754 80.3293 126.68 81.5398C123.604 82.7512 120.005 83.5131 116.125 84.1715C114.663 84.4194 113.16 84.6529 111.631 84.8904C109.11 85.2819 106.52 85.6843 103.933 86.1799C95.6087 87.7744 87.203 90.3518 80.815 96.744C74.4215 103.142 70.0856 113.323 69.8143 130.044C69.6792 138.371 68.5326 144.122 66.654 147.761C65.7163 149.577 64.6007 150.858 63.3456 151.675C62.0925 152.491 60.6867 152.853 59.1508 152.809C56.0665 152.723 52.4531 151.001 48.5546 148.016C44.6627 145.036 40.5175 140.821 36.3745 135.799C28.089 125.758 19.8341 112.519 13.6534 99.5717C7.46857 86.6153 3.37845 73.9865 3.38663 65.155C3.41944 29.7422 33.3159 1.24492 70.1833 1.52543C107.051 1.80594 136.894 30.7577 136.861 66.1706Z" stroke="black" stroke-opacity="0.2" stroke-width="0.5"/>
<path opacity="0.8" d="M136.649 73.3814C233.387 59.9295 315.023 87.6148 355.467 149.297" stroke="#151E36" stroke-width="0.5" stroke-dasharray="3 5"/>
<path d="M399.248 179.065C398.916 195.903 384.995 209.181 368.153 208.721C351.312 208.261 337.928 194.238 338.26 177.4C338.592 160.562 352.513 147.284 369.354 147.744C386.196 148.204 399.58 162.227 399.248 179.065Z" fill="#3A4C57" fill-opacity="0.13"/>
<path d="M272.728 84.989C272.9 84.2578 273.672 83.7716 274.481 83.9524C275.286 84.1324 275.758 84.8903 275.587 85.6167C275.415 86.3478 274.643 86.834 273.834 86.6532C273.029 86.4733 272.557 85.7153 272.728 84.989Z" fill="white" stroke="black"/>
</svg>
