<svg width="1489" height="606" viewBox="0 0 1489 606" fill="none" xmlns="http://www.w3.org/2000/svg">
<path d="M432.406 164.784C473.96 280.605 223.237 231.217 298.022 449.707C372.807 668.197 54.7097 431.025 13.155 315.204C-28.3997 199.383 31.7661 71.8188 147.539 30.2814C263.312 -11.256 390.851 48.9629 432.406 164.784Z" fill="#FED06A" fill-opacity="0.43"/>
<path d="M434.645 147.726C439.827 162.168 440.444 174.012 437.728 184.112C435.011 194.213 428.952 202.599 420.728 210.113C412.503 217.63 402.122 224.265 390.777 230.865C386.493 233.358 382.07 235.847 377.574 238.376C370.176 242.539 362.583 246.81 355.096 251.389C331.015 266.118 307.93 284.08 295.559 312.056C283.186 340.037 281.551 377.987 300.26 432.646C309.604 459.945 312.799 480.095 311.184 494.238C310.376 501.307 308.368 506.864 305.336 511.065C302.306 515.263 298.243 518.12 293.3 519.775C283.402 523.089 269.965 521.584 254.264 516.325C238.571 511.069 220.655 502.076 201.822 490.467C164.156 467.25 122.851 433.586 88.3659 398.49C53.875 363.388 26.2346 326.88 15.8649 297.978C-25.6432 182.286 34.4551 54.8653 150.098 13.3746C265.741 -28.1161 393.137 32.0351 434.645 147.726Z" stroke="black" stroke-opacity="0.2" stroke-width="0.5"/>
<path opacity="0.8" d="M438.413 207.929C764.414 164.929 1058.41 246.429 1217.41 430.929" stroke="#151E36" stroke-width="0.5" stroke-dasharray="3 5"/>
<path d="M930.367 246.881C930.826 243.582 933.873 241.28 937.172 241.739C940.472 242.198 942.774 245.245 942.315 248.544C941.856 251.844 938.809 254.146 935.509 253.687C932.21 253.228 929.908 250.181 930.367 246.881Z" fill="white" stroke="black"/>
<path d="M1334.81 502.247C1342.58 551.023 1308.86 596.946 1259.48 604.817C1210.1 612.688 1163.77 579.528 1155.99 530.751C1148.22 481.975 1181.94 436.053 1231.32 428.181C1280.7 420.31 1327.03 453.47 1334.81 502.247Z" fill="#3A4C57" fill-opacity="0.13"/>
</svg>
