<svg width="500" height="500" viewBox="0 0 500 500" fill="none" xmlns="http://www.w3.org/2000/svg">
<rect width="500" height="500" fill="white"/>
<path fill-rule="evenodd" clip-rule="evenodd" d="M198.623 308.877C203.865 312.725 210.219 315.195 217.122 315.757V397.143H198.623V308.877ZM161.095 138.887C172.012 138.887 180.893 147.77 180.893 158.687C180.893 169.604 172.012 178.486 161.095 178.486C150.178 178.486 141.294 169.604 141.294 158.687C141.294 147.77 150.176 138.887 161.095 138.887ZM257.124 163.504C281.162 163.504 302.48 177.431 311.435 198.985C314.214 205.674 315.623 212.751 315.623 220.018V280.919C315.623 290.962 308.105 299.35 298.185 301.179V222.137C298.185 218.177 294.975 214.968 291.017 214.968C287.059 214.968 283.85 218.177 283.85 222.137V397.142H263.233V310.594C263.233 306.635 260.022 303.426 256.064 303.426C252.107 303.426 248.897 306.635 248.897 310.594V397.142H231.458V222.135C231.458 218.177 228.249 214.968 224.291 214.968C220.333 214.968 217.122 218.177 217.122 222.135V301.348C206.684 299.941 198.623 291.319 198.623 280.919V276.007V220.018C198.623 212.682 200.062 205.54 202.895 198.79C202.9 198.775 202.906 198.762 202.912 198.748C211.924 177.337 233.202 163.504 257.124 163.504ZM255.137 102.337C268.048 102.337 278.552 112.841 278.552 125.753C278.552 138.664 268.048 149.168 255.137 149.168C242.226 149.168 231.722 138.664 231.722 125.753C231.722 112.841 242.226 102.337 255.137 102.337ZM349.887 138.891H349.929C360.827 138.891 369.706 147.745 369.73 158.647C369.741 163.936 367.691 168.912 363.96 172.661C360.228 176.408 355.26 178.479 349.972 178.49H349.928C344.655 178.49 339.697 176.442 335.96 172.721C332.211 168.99 330.142 164.022 330.131 158.734C330.107 147.815 338.97 138.915 349.887 138.891ZM298.184 315.659C304.799 314.926 310.871 312.432 315.897 308.666L316.07 397.143H298.184V315.659ZM411.125 397.142H389.243L388.914 243.596C388.907 239.642 385.699 236.443 381.747 236.443H381.733C377.773 236.452 374.571 239.667 374.579 243.626L374.907 397.142H330.406L330.078 229.386C330.076 228.955 330.033 228.536 329.958 228.127V220.018C329.958 212.912 328.885 205.95 326.769 199.244C334.361 195.052 342.896 192.841 351.754 192.822H351.87C365.418 192.822 378.154 197.915 387.738 207.169C397.29 216.392 402.566 228.656 402.594 241.708L402.708 273.721C402.723 277.671 405.929 280.863 409.875 280.863H409.893C413.861 280.848 417.059 277.629 417.044 273.669L416.93 241.667C416.894 224.713 410.064 208.797 397.696 196.857C390.988 190.379 383.079 185.506 374.467 182.409C380.676 175.99 384.085 167.566 384.065 158.617C384.024 139.819 368.719 124.555 349.931 124.555H349.856C331.035 124.596 315.755 139.94 315.795 158.763C315.814 167.881 319.382 176.446 325.844 182.879C326.055 183.091 326.277 183.291 326.494 183.496C324.646 184.259 322.833 185.108 321.057 186.041C312.31 170.406 298.03 158.781 281.137 153.083C288.367 146.202 292.888 136.498 292.888 125.753C292.888 104.935 275.953 88 255.137 88C234.321 88 217.386 104.935 217.386 125.753C217.386 137.049 222.38 147.194 230.268 154.119C214.692 160.098 201.554 171.207 193.295 185.855C190.785 184.557 188.2 183.424 185.553 182.463C191.535 176.311 195.229 167.925 195.229 158.686C195.229 139.864 179.916 124.551 161.095 124.551C142.272 124.551 126.959 139.864 126.959 158.686C126.959 168.423 131.062 177.212 137.624 183.437C114.233 193.043 97.7742 215.589 97.7742 241.806V273.819C97.7742 277.779 100.983 280.988 104.941 280.988C108.899 280.988 112.11 277.779 112.11 273.819V241.806C112.11 214.796 134.869 192.822 162.846 192.822C171.582 192.822 180.019 194.957 187.546 199.029C185.385 205.8 184.287 212.834 184.287 220.018V276.005V280.919V397.142H141.062V243.675C141.062 239.715 137.851 236.506 133.893 236.506C129.935 236.506 126.726 239.715 126.726 243.675V397.142H88.1671C84.2091 397.142 81 400.352 81 404.311C81 408.269 84.2091 411.478 88.1671 411.478H133.894H411.125C415.083 411.478 418.292 408.269 418.292 404.311C418.292 400.352 415.083 397.142 411.125 397.142Z" fill="#00264E"/>
</svg>
