<svg width="500" height="500" viewBox="0 0 500 500" fill="none" xmlns="http://www.w3.org/2000/svg">
<rect width="500" height="500" fill="white"/>
<path fill-rule="evenodd" clip-rule="evenodd" d="M342.881 215.533C341.627 215.533 340.363 215.138 339.287 214.321L296.283 181.653C294.802 180.529 293.933 178.775 293.933 176.916V147.39C293.933 144.103 296.597 141.44 299.881 141.44C303.167 141.44 305.832 144.103 305.832 147.39V173.964L346.484 204.846C349.101 206.833 349.611 210.566 347.623 213.183C346.453 214.723 344.677 215.533 342.881 215.533Z" fill="#00264E"/>
<path fill-rule="evenodd" clip-rule="evenodd" d="M299.882 142.785C297.342 142.785 295.277 144.85 295.277 147.39V176.916C295.277 178.347 295.958 179.717 297.096 180.582L340.101 213.249C340.909 213.864 341.87 214.188 342.882 214.188C344.336 214.188 345.673 213.525 346.551 212.368C347.297 211.39 347.615 210.178 347.447 208.96C347.282 207.743 346.65 206.661 345.67 205.917L304.487 174.632V147.39C304.487 144.85 302.423 142.785 299.882 142.785ZM342.882 216.879C341.277 216.879 339.754 216.364 338.472 215.392L295.469 182.726C293.664 181.354 292.587 179.182 292.587 176.916V147.39C292.587 143.367 295.86 140.095 299.882 140.095C303.905 140.095 307.178 143.367 307.178 147.39V173.297L347.3 203.774C348.85 204.953 349.849 206.665 350.114 208.596C350.378 210.528 349.874 212.445 348.694 213.996C347.304 215.828 345.185 216.879 342.882 216.879Z" fill="#00264E"/>
<path fill-rule="evenodd" clip-rule="evenodd" d="M299.882 116.239C303.168 116.239 305.832 118.903 305.832 122.189C305.832 125.475 303.168 128.139 299.882 128.139C296.596 128.139 293.932 125.475 293.932 122.189C293.932 118.903 296.596 116.239 299.882 116.239Z" fill="#00264E"/>
<path fill-rule="evenodd" clip-rule="evenodd" d="M299.882 117.584C297.342 117.584 295.277 119.65 295.277 122.189C295.277 124.728 297.342 126.794 299.882 126.794C302.423 126.794 304.487 124.728 304.487 122.189C304.487 119.65 302.423 117.584 299.882 117.584ZM299.882 129.484C295.86 129.484 292.587 126.212 292.587 122.189C292.587 118.166 295.86 114.893 299.882 114.893C303.905 114.893 307.178 118.166 307.178 122.189C307.178 126.212 303.905 129.484 299.882 129.484Z" fill="#00264E"/>
<path fill-rule="evenodd" clip-rule="evenodd" d="M189.711 321.011C190.624 319.655 192.086 318.879 193.72 318.879C195.356 318.879 196.818 319.655 197.731 321.011L208.795 337.426L189.801 365.608C188.147 368.062 188.796 371.392 191.249 373.045C193.704 374.7 197.033 374.05 198.686 371.597L260.469 279.925C261.383 278.57 262.845 277.792 264.48 277.792C266.114 277.792 267.576 278.57 268.49 279.925L353.225 405.65H132.667L189.711 321.011ZM269.837 227.016L282.378 232.571L269.837 240.446V227.016ZM374.636 405.65H366.138C366.113 405.611 366.094 405.571 366.067 405.532L277.375 273.937C275.517 271.18 272.866 269.142 269.837 268.031V253.098L296.605 236.289C298.284 235.235 299.243 233.342 299.1 231.366C298.957 229.391 297.737 227.655 295.926 226.852L266.649 213.884C264.993 213.151 263.076 213.305 261.557 214.292C260.038 215.282 259.122 216.971 259.122 218.783V250.055C259.121 250.112 259.121 250.17 259.122 250.227V268.031C256.093 269.142 253.442 271.18 251.584 273.935L215.255 327.839L206.617 315.021C203.721 310.726 198.901 308.162 193.72 308.162C188.541 308.162 183.719 310.726 180.825 315.021L119.745 405.65H111.041C108.082 405.65 105.683 408.049 105.683 411.008C105.683 413.966 108.082 416.366 111.041 416.366H122.583H122.589H122.598H374.636C377.595 416.366 379.994 413.966 379.994 411.008C379.994 408.049 377.595 405.65 374.636 405.65Z" fill="#00264E"/>
<path fill-rule="evenodd" clip-rule="evenodd" d="M270.509 228.05V239.228L280.948 232.674L270.509 228.05ZM269.165 241.663V225.983L283.805 232.468L269.165 241.663ZM133.93 404.978H351.958L267.932 280.301C267.146 279.134 265.887 278.465 264.479 278.465C263.072 278.465 261.814 279.134 261.027 280.301L199.245 371.972C198.121 373.638 196.249 374.633 194.239 374.633C193.039 374.633 191.874 374.277 190.874 373.602C189.539 372.703 188.634 371.335 188.325 369.756C188.017 368.173 188.342 366.567 189.243 365.232L207.982 337.426L197.172 321.388C196.386 320.219 195.128 319.55 193.721 319.55C192.315 319.55 191.055 320.219 190.27 321.388L133.93 404.978ZM354.488 406.323H131.401L189.153 320.635C190.195 319.09 191.86 318.205 193.721 318.205C195.582 318.205 197.247 319.09 198.289 320.635L209.606 337.426L190.358 365.983C189.66 367.022 189.406 368.269 189.645 369.498C189.884 370.725 190.588 371.788 191.625 372.488C192.403 373.011 193.307 373.288 194.239 373.288C195.803 373.288 197.256 372.516 198.128 371.22L259.911 279.549C260.953 278.005 262.618 277.119 264.479 277.119C266.342 277.119 268.007 278.005 269.049 279.549L354.488 406.323ZM111.04 406.323C108.457 406.323 106.355 408.425 106.355 411.008C106.355 413.591 108.457 415.692 111.04 415.692H374.635C377.219 415.692 379.322 413.591 379.322 411.008C379.322 408.425 377.219 406.323 374.635 406.323H365.763L365.565 406.004L276.816 274.312C275.058 271.701 272.565 269.747 269.606 268.664L269.165 268.502V252.726L296.248 235.718C297.718 234.796 298.554 233.147 298.429 231.416C298.303 229.684 297.241 228.171 295.652 227.466L266.376 214.499C264.943 213.866 263.237 214.001 261.924 214.856C260.592 215.724 259.795 217.191 259.795 218.783V268.5L259.354 268.663C256.395 269.747 253.901 271.701 252.141 274.312L215.255 329.043L206.059 315.398C203.29 311.288 198.676 308.835 193.721 308.835C188.764 308.835 184.152 311.288 181.383 315.398L120.104 406.323H111.04ZM122.589 417.039L111.04 417.038C107.714 417.038 105.011 414.332 105.011 411.008C105.011 407.683 107.714 404.978 111.04 404.978H119.386L180.266 314.646C183.287 310.165 188.316 307.489 193.721 307.489C199.126 307.489 204.155 310.165 207.176 314.646L215.255 326.635L251.024 273.561C252.857 270.843 255.416 268.78 258.45 267.568V218.783C258.45 216.736 259.474 214.845 261.19 213.729C262.882 212.629 265.078 212.454 266.92 213.269L296.199 226.237C298.241 227.142 299.61 229.09 299.769 231.318C299.932 233.548 298.854 235.67 296.964 236.859L270.509 253.47V267.569C273.543 268.78 276.103 270.843 277.933 273.561L366.505 404.978H374.635C377.961 404.978 380.666 407.683 380.666 411.008C380.666 414.332 377.961 417.038 374.635 417.038L122.589 417.039Z" fill="#00264E"/>
<path fill-rule="evenodd" clip-rule="evenodd" d="M270.846 228.566V238.62L280.234 232.726L270.846 228.566ZM268.829 242.27V225.466L284.521 232.417L268.829 242.27ZM134.563 404.641H351.327L267.653 280.489C266.929 279.416 265.774 278.801 264.479 278.801C263.185 278.801 262.03 279.416 261.306 280.489L199.523 372.161C198.338 373.919 196.362 374.97 194.239 374.97C192.97 374.97 191.741 374.594 190.685 373.882C189.276 372.93 188.32 371.489 187.994 369.82C187.668 368.15 188.015 366.454 188.964 365.044L207.578 337.427L196.894 321.574C196.171 320.503 195.014 319.887 193.72 319.887C192.428 319.887 191.271 320.503 190.548 321.576L134.563 404.641ZM355.122 406.659H130.769L188.874 320.447C189.98 318.808 191.746 317.87 193.72 317.87C195.696 317.87 197.462 318.808 198.568 320.447L210.012 337.427L190.638 366.171C189.989 367.135 189.754 368.293 189.976 369.434C190.199 370.574 190.85 371.558 191.812 372.208C192.536 372.695 193.374 372.952 194.239 372.952C195.69 372.952 197.04 372.235 197.849 371.034L259.632 279.361C260.736 277.723 262.503 276.783 264.479 276.783C266.455 276.783 268.223 277.723 269.325 279.361L355.122 406.659ZM111.039 406.659C108.642 406.659 106.691 408.61 106.691 411.008C106.691 413.406 108.642 415.357 111.039 415.357H374.636C377.033 415.357 378.984 413.406 378.984 411.008C378.984 408.61 377.033 406.659 374.636 406.659H365.587L365.289 406.197L276.538 274.5C274.819 271.948 272.38 270.04 269.49 268.979L268.829 268.737V252.54L296.069 235.435C297.433 234.577 298.21 233.046 298.094 231.438C297.977 229.832 296.99 228.428 295.518 227.775L266.24 214.806C264.912 214.22 263.327 214.344 262.108 215.138C260.87 215.944 260.13 217.306 260.13 218.783V268.735L259.469 268.979C256.578 270.04 254.14 271.949 252.421 274.5L215.255 329.643L205.78 315.586C203.072 311.569 198.564 309.171 193.72 309.171C188.877 309.171 184.369 311.569 181.661 315.586L120.283 406.659H111.039ZM122.589 417.376L111.039 417.374C107.529 417.374 104.674 414.518 104.674 411.008C104.674 407.497 107.529 404.641 111.039 404.641H119.207L179.987 314.458C183.071 309.884 188.203 307.152 193.72 307.152C199.237 307.152 204.37 309.884 207.454 314.458L215.255 326.033L250.747 273.373C252.573 270.663 255.11 268.59 258.113 267.341V218.783C258.113 216.62 259.195 214.625 261.007 213.446C262.792 212.287 265.11 212.099 267.058 212.961L296.334 225.93C298.491 226.887 299.936 228.942 300.106 231.294C300.276 233.647 299.14 235.888 297.142 237.144L270.846 253.655V267.343C273.849 268.59 276.387 270.663 278.212 273.371L366.683 404.641H374.636C378.146 404.641 381.002 407.497 381.002 411.008C381.002 414.518 378.146 417.374 374.636 417.374L122.589 417.376Z" fill="#00264E"/>
<path fill-rule="evenodd" clip-rule="evenodd" d="M271.518 229.601V237.403L278.805 232.828L271.518 229.601ZM270.174 239.837V227.533L281.663 232.623L270.174 239.837ZM269.501 226.5V241.053L283.091 232.52L269.501 226.5ZM268.157 243.487V224.431L285.949 232.313L268.157 243.487ZM135.829 403.969H350.063L267.094 280.864C266.501 279.98 265.546 279.473 264.48 279.473C263.413 279.473 262.46 279.98 261.865 280.864L200.082 372.535C198.772 374.482 196.586 375.643 194.24 375.643C192.836 375.643 191.478 375.226 190.311 374.439C188.75 373.388 187.693 371.794 187.334 369.948C186.974 368.103 187.356 366.229 188.407 364.668L206.767 337.426L196.336 321.95C195.741 321.067 194.787 320.56 193.72 320.56C192.655 320.56 191.701 321.067 191.105 321.951L135.829 403.969ZM352.593 405.314H133.299L189.989 321.2C190.841 319.938 192.201 319.213 193.72 319.213C195.241 319.213 196.601 319.937 197.451 321.198L208.389 337.426L189.522 365.42C188.672 366.682 188.364 368.199 188.656 369.69C188.946 371.184 189.801 372.473 191.061 373.324C192.007 373.96 193.104 374.298 194.24 374.298C196.14 374.298 197.905 373.358 198.966 371.784L260.748 280.113C261.6 278.851 262.958 278.128 264.48 278.128C266.001 278.128 267.361 278.851 268.211 280.113L352.593 405.314ZM132.034 405.986H353.857L268.768 279.737C267.793 278.287 266.229 277.456 264.48 277.456C262.73 277.456 261.168 278.287 260.191 279.737L198.408 371.408C197.473 372.796 195.914 373.624 194.24 373.624C193.24 373.624 192.272 373.328 191.436 372.767C190.324 372.017 189.572 370.878 189.316 369.562C189.059 368.244 189.332 366.908 190.079 365.797L209.2 337.426L198.01 320.822C197.031 319.372 195.468 318.541 193.72 318.541C191.974 318.541 190.411 319.374 189.431 320.824L132.034 405.986ZM356.387 407.332H129.504L188.315 320.071C189.55 318.244 191.519 317.196 193.72 317.196C195.922 317.196 197.892 318.244 199.125 320.071L210.824 337.426L191.196 366.548C190.648 367.362 190.449 368.34 190.636 369.305C190.823 370.269 191.374 371.102 192.188 371.65C193.825 372.752 196.2 372.277 197.291 370.658L259.075 278.985C260.306 277.158 262.276 276.11 264.48 276.11C266.685 276.11 268.655 277.158 269.885 278.985L356.387 407.332ZM111.041 407.332C109.013 407.332 107.364 408.981 107.364 411.008C107.364 413.034 109.013 414.685 111.041 414.685H374.636C376.662 414.685 378.312 413.034 378.312 411.008C378.312 408.981 376.662 407.332 374.636 407.332H365.223L364.725 406.563L275.98 274.876C274.341 272.443 272.016 270.621 269.259 269.611L268.157 269.207V252.168L295.711 234.864C296.865 234.141 297.52 232.845 297.423 231.488C297.324 230.128 296.489 228.942 295.245 228.389L265.967 215.421C264.863 214.934 263.48 215.048 262.475 215.701C261.428 216.383 260.804 217.535 260.804 218.783V269.205L259.7 269.611C256.943 270.621 254.619 272.441 252.979 274.876L215.255 330.847L205.221 315.961C202.64 312.13 198.34 309.844 193.72 309.844C189.099 309.844 184.801 312.13 182.219 315.961L120.639 407.332H111.041ZM374.636 416.03H111.041C108.272 416.03 106.02 413.777 106.02 411.008C106.02 408.239 108.272 405.986 111.041 405.986H119.923L181.104 315.21C183.934 311.007 188.653 308.498 193.72 308.498C198.789 308.498 203.506 311.007 206.338 315.21L215.255 328.441L251.862 274.124C253.663 271.454 256.212 269.456 259.237 268.346L259.458 268.267V218.783C259.458 217.078 260.313 215.505 261.741 214.575C263.12 213.675 264.995 213.52 266.512 214.19L295.79 227.159C297.491 227.913 298.63 229.536 298.764 231.39C298.9 233.246 298.004 235.013 296.427 236.005L269.501 252.912V268.267L269.722 268.348C272.747 269.457 275.296 271.454 277.097 274.123L365.953 405.986H374.636C377.403 405.986 379.656 408.239 379.656 411.008C379.656 413.777 377.403 416.03 374.636 416.03ZM111.041 405.314C107.901 405.314 105.345 407.868 105.345 411.008C105.345 414.147 107.901 416.702 111.041 416.702H122.59H374.636C377.774 416.702 380.329 414.147 380.329 411.008C380.329 407.868 377.774 405.314 374.636 405.314H366.325L366.125 405.017L277.654 273.747C275.908 271.159 273.465 269.158 270.588 267.963L270.174 267.791V253.284L296.783 236.574C298.571 235.451 299.588 233.447 299.436 231.342C299.283 229.238 297.99 227.399 296.063 226.546L266.785 213.576C265.077 212.818 262.943 212.989 261.374 214.01C259.755 215.066 258.785 216.85 258.785 218.783V267.791L258.371 267.963C255.493 269.158 253.05 271.159 251.305 273.748L215.255 327.237L206.895 314.835C203.938 310.446 199.013 307.826 193.72 307.826C188.427 307.826 183.504 310.446 180.547 314.834L119.567 405.314H111.041ZM122.59 418.047H111.041C107.158 418.047 104 414.89 104 411.008C104 407.127 107.158 403.969 111.041 403.969H118.851L179.43 314.082C182.638 309.323 187.981 306.48 193.72 306.48C199.461 306.48 204.804 309.323 208.011 314.084L215.255 324.829L250.188 272.997C251.998 270.313 254.498 268.212 257.441 266.899V218.783C257.441 216.392 258.638 214.187 260.64 212.883C262.594 211.612 265.199 211.404 267.329 212.347L296.607 225.316C298.991 226.372 300.59 228.644 300.777 231.245C300.965 233.847 299.71 236.325 297.5 237.713L271.518 254.028V266.899C274.461 268.212 276.96 270.312 278.771 272.995L367.041 403.969H374.636C378.516 403.969 381.673 407.127 381.673 411.008C381.673 414.89 378.516 418.047 374.636 418.047H122.59Z" fill="#00264E"/>
<path fill-rule="evenodd" clip-rule="evenodd" d="M180.69 383.102C183.648 383.102 186.047 385.501 186.047 388.46C186.047 391.419 183.648 393.818 180.69 393.818C177.731 393.818 175.332 391.419 175.332 388.46C175.332 385.501 177.731 383.102 180.69 383.102Z" fill="#00264E"/>
<path fill-rule="evenodd" clip-rule="evenodd" d="M180.69 384.447C178.478 384.447 176.678 386.248 176.678 388.46C176.678 390.673 178.478 392.472 180.69 392.472C182.902 392.472 184.703 390.673 184.703 388.46C184.703 386.248 182.902 384.447 180.69 384.447ZM180.69 395.163C176.994 395.163 173.987 392.155 173.987 388.46C173.987 384.764 176.994 381.757 180.69 381.757C184.386 381.757 187.393 384.764 187.393 388.46C187.393 392.155 184.386 395.163 180.69 395.163Z" fill="#00264E"/>
<path fill-rule="evenodd" clip-rule="evenodd" d="M180.69 384.111C178.291 384.111 176.34 386.062 176.34 388.46C176.34 390.857 178.291 392.808 180.69 392.808C183.088 392.808 185.039 390.857 185.039 388.46C185.039 386.062 183.088 384.111 180.69 384.111ZM180.69 394.827C177.179 394.827 174.323 391.97 174.323 388.46C174.323 384.95 177.179 382.094 180.69 382.094C184.2 382.094 187.057 384.95 187.057 388.46C187.057 391.97 184.2 394.827 180.69 394.827Z" fill="#00264E"/>
<path fill-rule="evenodd" clip-rule="evenodd" d="M180.69 385.457C179.034 385.457 177.686 386.804 177.686 388.46C177.686 390.116 179.034 391.463 180.69 391.463C182.346 391.463 183.693 390.116 183.693 388.46C183.693 386.804 182.346 385.457 180.69 385.457ZM180.69 396.171C176.437 396.171 172.978 392.713 172.978 388.46C172.978 384.207 176.437 380.747 180.69 380.747C184.943 380.747 188.401 384.207 188.401 388.46C188.401 392.713 184.943 396.171 180.69 396.171Z" fill="#00264E"/>
<path fill-rule="evenodd" clip-rule="evenodd" d="M302.423 272.431C299.177 272.431 296.49 269.857 296.377 266.588C296.26 263.246 298.875 260.444 302.217 260.327C348.209 258.725 384.324 220.006 382.724 174.014C381.949 151.734 372.543 131.089 356.241 115.882C339.938 100.678 318.71 92.7401 296.409 93.5049C250.417 95.1066 214.301 133.827 215.902 179.82C216.608 200.078 224.638 219.354 238.513 234.096C240.806 236.531 240.69 240.362 238.256 242.653C235.82 244.946 231.987 244.828 229.699 242.394C213.806 225.512 204.61 203.438 203.802 180.241C202.914 154.729 212.015 130.398 229.426 111.73C246.838 93.0628 270.476 82.2926 295.989 81.4055C321.523 80.5111 345.832 89.6176 364.499 107.029C383.166 124.441 393.936 148.079 394.823 173.591C396.658 226.257 355.303 270.595 302.637 272.427C302.566 272.429 302.494 272.431 302.423 272.431Z" fill="#00264E"/>
<path fill-rule="evenodd" clip-rule="evenodd" d="M299.351 92.109C320.871 92.109 341.401 100.203 357.159 114.899C373.726 130.351 383.282 151.328 384.067 173.966C385.694 220.7 348.995 260.044 302.264 261.672C301.006 261.715 299.842 262.245 298.984 263.165C298.125 264.086 297.677 265.284 297.721 266.541C297.81 269.09 299.874 271.085 302.422 271.085L302.596 271.082C327.702 270.208 350.998 259.58 368.184 241.153C385.37 222.728 394.354 198.751 393.48 173.639C392.604 148.486 381.987 125.18 363.582 108.013C345.248 90.9125 321.116 81.8619 296.037 82.749C270.882 83.6243 247.575 94.2427 230.411 112.647C213.243 131.052 204.272 155.041 205.146 180.194C205.943 203.066 215.011 224.827 230.678 241.473C232.4 243.306 235.502 243.402 237.332 241.675C238.249 240.813 238.775 239.645 238.812 238.389C238.85 237.132 238.398 235.935 237.534 235.019C223.434 220.037 215.275 200.45 214.559 179.866C212.933 133.131 249.631 93.7874 296.363 92.1606C297.363 92.1267 298.357 92.109 299.351 92.109ZM302.422 273.776C298.417 273.776 295.171 270.639 295.032 266.634C294.963 264.659 295.667 262.776 297.016 261.33C298.364 259.885 300.194 259.051 302.17 258.983C347.42 257.406 382.953 219.31 381.38 174.061C380.616 152.14 371.364 131.829 355.323 116.866C339.358 101.979 318.339 94.1072 296.456 94.8498C251.206 96.4251 215.673 134.521 217.246 179.772C217.94 199.703 225.842 218.669 239.494 233.174C240.848 234.613 241.561 236.494 241.501 238.47C241.442 240.446 240.617 242.279 239.177 243.634C237.799 244.93 235.997 245.644 234.107 245.644C232.073 245.644 230.109 244.796 228.718 243.316C212.605 226.196 203.279 203.813 202.458 180.288C201.557 154.417 210.785 129.744 228.442 110.813C246.099 91.8821 270.07 80.9616 295.943 80.0598C321.743 79.1594 346.562 88.459 365.418 106.046C384.347 123.702 395.269 147.674 396.168 173.545C397.067 199.375 387.828 224.038 370.153 242.989C352.476 261.94 328.514 272.873 302.684 273.772L302.422 273.776Z" fill="#00264E"/>
<path fill-rule="evenodd" clip-rule="evenodd" d="M342.881 217.007C341.627 217.007 340.363 216.612 339.287 215.794L296.283 183.127C294.802 182.002 293.933 180.249 293.933 178.389V148.864C293.933 145.576 296.597 142.914 299.881 142.914C303.167 142.914 305.832 145.576 305.832 148.864V175.438L346.484 206.319C349.101 208.307 349.611 212.039 347.623 214.656C346.453 216.196 344.677 217.007 342.881 217.007Z" fill="#00264E"/>
<path fill-rule="evenodd" clip-rule="evenodd" d="M299.882 144.259C297.342 144.259 295.277 146.323 295.277 148.864V178.389C295.277 179.82 295.958 181.191 297.096 182.056L340.101 214.723C340.909 215.337 341.87 215.661 342.882 215.661C344.336 215.661 345.673 214.998 346.551 213.842C347.297 212.863 347.615 211.652 347.447 210.433C347.282 209.216 346.65 208.135 345.67 207.39L304.487 176.105V148.864C304.487 146.323 302.423 144.259 299.882 144.259ZM342.882 218.352C341.277 218.352 339.754 217.838 338.472 216.865L295.469 184.2C293.664 182.828 292.587 180.656 292.587 178.389V148.864C292.587 144.841 295.86 141.568 299.882 141.568C303.905 141.568 307.178 144.841 307.178 148.864V174.77L347.3 205.248C348.85 206.427 349.849 208.139 350.114 210.069C350.378 212.001 349.874 213.918 348.694 215.47C347.304 217.302 345.185 218.352 342.882 218.352Z" fill="#00264E"/>
<path fill-rule="evenodd" clip-rule="evenodd" d="M299.882 117.712C303.168 117.712 305.832 120.376 305.832 123.662C305.832 126.948 303.168 129.613 299.882 129.613C296.596 129.613 293.932 126.948 293.932 123.662C293.932 120.376 296.596 117.712 299.882 117.712Z" fill="#00264E"/>
<path fill-rule="evenodd" clip-rule="evenodd" d="M299.882 119.058C297.342 119.058 295.277 121.123 295.277 123.662C295.277 126.201 297.342 128.267 299.882 128.267C302.423 128.267 304.487 126.201 304.487 123.662C304.487 121.123 302.423 119.058 299.882 119.058ZM299.882 130.958C295.86 130.958 292.587 127.685 292.587 123.662C292.587 119.64 295.86 116.367 299.882 116.367C303.905 116.367 307.178 119.64 307.178 123.662C307.178 127.685 303.905 130.958 299.882 130.958Z" fill="#00264E"/>
<path fill-rule="evenodd" clip-rule="evenodd" d="M189.711 322.485C190.624 321.129 192.086 320.352 193.72 320.352C195.356 320.352 196.818 321.129 197.731 322.485L208.795 338.9L189.801 367.082C188.147 369.535 188.796 372.865 191.249 374.519C193.704 376.173 197.033 375.524 198.686 373.07L260.469 281.399C261.383 280.043 262.845 279.265 264.48 279.265C266.114 279.265 267.576 280.043 268.49 281.399L353.225 407.124H132.667L189.711 322.485ZM269.837 228.49L282.378 234.045L269.837 241.919V228.49ZM374.636 407.124H366.138C366.113 407.084 366.094 407.044 366.067 407.006L277.375 275.41C275.517 272.653 272.866 270.615 269.837 269.504V254.571L296.605 237.763C298.284 236.709 299.243 234.815 299.1 232.839C298.957 230.865 297.737 229.129 295.926 228.326L266.649 215.357C264.993 214.625 263.076 214.778 261.557 215.765C260.038 216.756 259.122 218.444 259.122 220.257V251.529C259.121 251.586 259.121 251.643 259.122 251.701V269.504C256.093 270.615 253.442 272.653 251.584 275.409L215.255 329.313L206.617 316.495C203.721 312.199 198.901 309.635 193.72 309.635C188.541 309.635 183.719 312.199 180.825 316.495L119.745 407.124H111.041C108.082 407.124 105.683 409.523 105.683 412.482C105.683 415.439 108.082 417.84 111.041 417.84H122.583H122.589H122.598H374.636C377.595 417.84 379.994 415.439 379.994 412.482C379.994 409.523 377.595 407.124 374.636 407.124Z" fill="#00264E"/>
<path fill-rule="evenodd" clip-rule="evenodd" d="M270.509 229.524V240.702L280.948 234.148L270.509 229.524ZM269.165 243.136V227.456L283.805 233.941L269.165 243.136ZM133.93 406.452H351.958L267.932 281.774C267.146 280.607 265.887 279.938 264.479 279.938C263.072 279.938 261.814 280.607 261.027 281.774L199.245 373.446C198.121 375.112 196.249 376.107 194.239 376.107C193.039 376.107 191.874 375.75 190.874 375.075C189.539 374.176 188.634 372.809 188.325 371.229C188.017 369.647 188.342 368.041 189.243 366.705L207.982 338.9L197.172 322.861C196.386 321.693 195.128 321.024 193.721 321.024C192.315 321.024 191.055 321.693 190.27 322.861L133.93 406.452ZM354.488 407.797H131.401L189.153 322.108C190.195 320.564 191.86 319.679 193.721 319.679C195.582 319.679 197.247 320.564 198.289 322.108L209.606 338.9L190.358 367.457C189.66 368.496 189.406 369.742 189.645 370.971C189.884 372.199 190.588 373.261 191.625 373.961C192.403 374.484 193.307 374.761 194.239 374.761C195.803 374.761 197.256 373.989 198.128 372.694L259.911 281.023C260.953 279.479 262.618 278.593 264.479 278.593C266.342 278.593 268.007 279.479 269.049 281.023L354.488 407.797ZM111.04 407.797C108.457 407.797 106.355 409.898 106.355 412.481C106.355 415.065 108.457 417.166 111.04 417.166H374.635C377.219 417.166 379.322 415.065 379.322 412.481C379.322 409.898 377.219 407.797 374.635 407.797H365.763L365.565 407.477L276.816 275.786C275.058 273.175 272.565 271.221 269.606 270.138L269.165 269.976V254.2L296.248 237.192C297.718 236.27 298.554 234.621 298.429 232.889C298.303 231.158 297.241 229.644 295.652 228.94L266.376 215.973C264.943 215.339 263.237 215.475 261.924 216.329C260.592 217.197 259.795 218.665 259.795 220.256V269.974L259.354 270.136C256.395 271.221 253.901 273.175 252.141 275.786L215.255 330.517L206.059 316.871C203.29 312.762 198.676 310.308 193.721 310.308C188.764 310.308 184.152 312.762 181.383 316.871L120.104 407.797H111.04ZM122.589 418.513L111.04 418.511C107.714 418.511 105.011 415.806 105.011 412.481C105.011 409.157 107.714 406.452 111.04 406.452H119.386L180.266 316.12C183.287 311.639 188.316 308.963 193.721 308.963C199.126 308.963 204.155 311.639 207.176 316.12L215.255 328.109L251.024 275.034C252.857 272.317 255.416 270.254 258.45 269.041V220.256C258.45 218.21 259.474 216.319 261.19 215.202C262.882 214.103 265.078 213.928 266.92 214.742L296.199 227.711C298.241 228.616 299.61 230.564 299.769 232.792C299.932 235.021 298.854 237.143 296.964 238.333L270.509 254.944V269.043C273.543 270.254 276.103 272.317 277.933 275.034L366.505 406.452H374.635C377.961 406.452 380.666 409.157 380.666 412.481C380.666 415.806 377.961 418.511 374.635 418.511L122.589 418.513Z" fill="#00264E"/>
<path fill-rule="evenodd" clip-rule="evenodd" d="M270.846 230.04V240.094L280.234 234.2L270.846 230.04ZM268.829 243.744V226.939L284.521 233.89L268.829 243.744ZM134.563 406.115H351.327L267.653 281.962C266.929 280.889 265.774 280.275 264.479 280.275C263.185 280.275 262.03 280.889 261.306 281.962L199.523 373.635C198.338 375.393 196.362 376.443 194.239 376.443C192.97 376.443 191.741 376.067 190.685 375.356C189.276 374.404 188.32 372.963 187.994 371.293C187.668 369.624 188.015 367.928 188.964 366.517L207.578 338.9L196.894 323.048C196.171 321.976 195.014 321.36 193.72 321.36C192.428 321.36 191.271 321.976 190.548 323.049L134.563 406.115ZM355.122 408.132H130.769L188.874 321.92C189.98 320.282 191.746 319.343 193.72 319.343C195.696 319.343 197.462 320.282 198.568 321.92L210.012 338.9L190.638 367.645C189.989 368.608 189.754 369.767 189.976 370.907C190.199 372.048 190.85 373.032 191.812 373.682C192.536 374.168 193.374 374.426 194.239 374.426C195.69 374.426 197.04 373.708 197.849 372.507L259.632 280.835C260.736 279.196 262.503 278.256 264.479 278.256C266.455 278.256 268.223 279.196 269.325 280.835L355.122 408.132ZM111.039 408.132C108.642 408.132 106.691 410.083 106.691 412.482C106.691 414.879 108.642 416.83 111.039 416.83H374.636C377.033 416.83 378.984 414.879 378.984 412.482C378.984 410.083 377.033 408.132 374.636 408.132H365.587L365.289 407.671L276.538 275.973C274.819 273.421 272.38 271.513 269.49 270.452L268.829 270.21V254.013L296.069 236.908C297.433 236.05 298.21 234.519 298.094 232.912C297.977 231.306 296.99 229.901 295.518 229.249L266.24 216.28C264.912 215.693 263.327 215.817 262.108 216.611C260.87 217.417 260.13 218.779 260.13 220.257V270.209L259.469 270.452C256.578 271.513 254.14 273.423 252.421 275.973L215.255 331.117L205.78 317.059C203.072 313.042 198.564 310.645 193.72 310.645C188.877 310.645 184.369 313.042 181.661 317.059L120.283 408.132H111.039ZM122.589 418.849L111.039 418.848C107.529 418.848 104.674 415.992 104.674 412.482C104.674 408.97 107.529 406.115 111.039 406.115H119.207L179.987 315.932C183.071 311.358 188.203 308.626 193.72 308.626C199.237 308.626 204.37 311.358 207.454 315.932L215.255 327.507L250.747 274.846C252.573 272.136 255.11 270.063 258.113 268.815V220.257C258.113 218.094 259.195 216.099 261.007 214.92C262.792 213.76 265.11 213.573 267.058 214.435L296.334 227.404C298.491 228.36 299.936 230.416 300.106 232.767C300.276 235.121 299.14 237.362 297.142 238.617L270.846 255.129V268.816C273.849 270.063 276.387 272.136 278.212 274.845L366.683 406.115H374.636C378.146 406.115 381.002 408.97 381.002 412.482C381.002 415.992 378.146 418.848 374.636 418.848L122.589 418.849Z" fill="#00264E"/>
<path fill-rule="evenodd" clip-rule="evenodd" d="M271.518 231.074V238.877L278.805 234.301L271.518 231.074ZM270.174 241.311V229.007L281.663 234.096L270.174 241.311ZM269.501 227.974V242.527L283.091 233.993L269.501 227.974ZM268.157 244.961V225.905L285.949 233.787L268.157 244.961ZM135.829 405.443H350.063L267.094 282.338C266.501 281.454 265.546 280.947 264.48 280.947C263.413 280.947 262.46 281.454 261.865 282.338L200.082 374.009C198.772 375.955 196.586 377.117 194.24 377.117C192.836 377.117 191.478 376.7 190.311 375.913C188.75 374.862 187.693 373.268 187.334 371.421C186.974 369.576 187.356 367.702 188.407 366.142L206.767 338.9L196.336 323.423C195.741 322.541 194.787 322.034 193.72 322.034C192.655 322.034 191.701 322.541 191.105 323.425L135.829 405.443ZM352.593 406.788H133.299L189.989 322.673C190.841 321.412 192.201 320.687 193.72 320.687C195.241 320.687 196.601 321.41 197.451 322.672L208.389 338.9L189.522 366.893C188.672 368.156 188.364 369.672 188.656 371.163C188.946 372.658 189.801 373.947 191.061 374.797C192.007 375.434 193.104 375.771 194.24 375.771C196.14 375.771 197.905 374.831 198.966 373.257L260.748 281.586C261.6 280.325 262.958 279.601 264.48 279.601C266.001 279.601 267.361 280.325 268.211 281.586L352.593 406.788ZM132.034 407.46H353.857L268.768 281.21C267.793 279.76 266.229 278.929 264.48 278.929C262.73 278.929 261.168 279.76 260.191 281.21L198.408 372.882C197.473 374.27 195.914 375.098 194.24 375.098C193.24 375.098 192.272 374.802 191.436 374.24C190.324 373.49 189.572 372.351 189.316 371.035C189.059 369.718 189.332 368.381 190.079 367.27L209.2 338.9L198.01 322.296C197.031 320.846 195.468 320.015 193.72 320.015C191.974 320.015 190.411 320.847 189.431 322.297L132.034 407.46ZM356.387 408.805H129.504L188.315 321.544C189.55 319.717 191.519 318.67 193.72 318.67C195.922 318.67 197.892 319.717 199.125 321.544L210.824 338.9L191.196 368.022C190.648 368.835 190.449 369.814 190.636 370.779C190.823 371.743 191.374 372.575 192.188 373.123C193.825 374.225 196.2 373.751 197.291 372.132L259.075 280.459C260.306 278.632 262.276 277.584 264.48 277.584C266.685 277.584 268.655 278.632 269.885 280.459L356.387 408.805ZM111.041 408.805C109.013 408.805 107.364 410.454 107.364 412.482C107.364 414.508 109.013 416.158 111.041 416.158H374.636C376.662 416.158 378.312 414.508 378.312 412.482C378.312 410.454 376.662 408.805 374.636 408.805H365.223L364.725 408.036L275.98 276.349C274.341 273.916 272.016 272.095 269.259 271.084L268.157 270.68V253.642L295.711 236.338C296.865 235.614 297.52 234.319 297.423 232.962C297.324 231.602 296.489 230.416 295.245 229.863L265.967 216.894C264.863 216.408 263.48 216.521 262.475 217.174C261.428 217.856 260.804 219.009 260.804 220.257V270.679L259.7 271.084C256.943 272.095 254.619 273.915 252.979 276.349L215.255 332.321L205.221 317.435C202.64 313.604 198.34 311.318 193.72 311.318C189.099 311.318 184.801 313.604 182.219 317.435L120.639 408.805H111.041ZM374.636 417.504H111.041C108.272 417.504 106.02 415.251 106.02 412.482C106.02 409.713 108.272 407.46 111.041 407.46H119.923L181.104 316.683C183.934 312.481 188.653 309.971 193.72 309.971C198.789 309.971 203.506 312.481 206.338 316.683L215.255 329.914L251.862 275.598C253.663 272.928 256.212 270.929 259.237 269.82L259.458 269.74V220.257C259.458 218.552 260.313 216.978 261.741 216.048C263.12 215.148 264.995 214.993 266.512 215.664L295.79 228.633C297.491 229.387 298.63 231.009 298.764 232.863C298.9 234.72 298.004 236.487 296.427 237.478L269.501 254.386V269.74L269.722 269.821C272.747 270.931 275.296 272.928 277.097 275.596L365.953 407.46H374.636C377.403 407.46 379.656 409.713 379.656 412.482C379.656 415.251 377.403 417.504 374.636 417.504ZM111.041 406.788C107.901 406.788 105.345 409.342 105.345 412.482C105.345 415.621 107.901 418.176 111.041 418.176H122.59H374.636C377.774 418.176 380.329 415.621 380.329 412.482C380.329 409.342 377.774 406.788 374.636 406.788H366.325L366.125 406.49L277.654 275.22C275.908 272.633 273.465 270.632 270.588 269.437L270.174 269.264V254.757L296.783 238.047C298.571 236.924 299.588 234.92 299.436 232.816C299.283 230.712 297.99 228.873 296.063 228.02L266.785 215.049C265.077 214.292 262.943 214.463 261.374 215.484C259.755 216.539 258.785 218.324 258.785 220.257V269.264L258.371 269.437C255.493 270.632 253.05 272.633 251.305 275.222L215.255 328.71L206.895 316.309C203.938 311.919 199.013 309.299 193.72 309.299C188.427 309.299 183.504 311.919 180.547 316.307L119.567 406.788H111.041ZM122.59 419.521H111.041C107.158 419.521 104 416.363 104 412.482C104 408.601 107.158 405.443 111.041 405.443H118.851L179.43 315.556C182.638 310.796 187.981 307.954 193.72 307.954C199.461 307.954 204.804 310.796 208.011 315.557L215.255 326.303L250.188 274.47C251.998 271.787 254.498 269.686 257.441 268.373V220.257C257.441 217.865 258.638 215.661 260.64 214.357C262.594 213.085 265.199 212.877 267.329 213.82L296.607 226.789C298.991 227.846 300.59 230.118 300.777 232.719C300.965 235.321 299.71 237.798 297.5 239.186L271.518 255.501V268.373C274.461 269.686 276.96 271.786 278.771 274.469L367.041 405.443H374.636C378.516 405.443 381.673 408.601 381.673 412.482C381.673 416.363 378.516 419.521 374.636 419.521H122.59Z" fill="#00264E"/>
<path fill-rule="evenodd" clip-rule="evenodd" d="M180.69 384.576C183.648 384.576 186.047 386.975 186.047 389.934C186.047 392.893 183.648 395.291 180.69 395.291C177.731 395.291 175.332 392.893 175.332 389.934C175.332 386.975 177.731 384.576 180.69 384.576Z" fill="#00264E"/>
<path fill-rule="evenodd" clip-rule="evenodd" d="M180.69 385.921C178.478 385.921 176.678 387.722 176.678 389.933C176.678 392.147 178.478 393.946 180.69 393.946C182.902 393.946 184.703 392.147 184.703 389.933C184.703 387.722 182.902 385.921 180.69 385.921ZM180.69 396.637C176.994 396.637 173.987 393.629 173.987 389.933C173.987 386.238 176.994 383.23 180.69 383.23C184.386 383.23 187.393 386.238 187.393 389.933C187.393 393.629 184.386 396.637 180.69 396.637Z" fill="#00264E"/>
<path fill-rule="evenodd" clip-rule="evenodd" d="M180.69 385.585C178.291 385.585 176.34 387.536 176.34 389.933C176.34 392.331 178.291 394.282 180.69 394.282C183.088 394.282 185.039 392.331 185.039 389.933C185.039 387.536 183.088 385.585 180.69 385.585ZM180.69 396.301C177.179 396.301 174.323 393.443 174.323 389.933C174.323 386.423 177.179 383.568 180.69 383.568C184.2 383.568 187.057 386.423 187.057 389.933C187.057 393.443 184.2 396.301 180.69 396.301Z" fill="#00264E"/>
<path fill-rule="evenodd" clip-rule="evenodd" d="M180.69 386.93C179.034 386.93 177.686 388.277 177.686 389.933C177.686 391.59 179.034 392.937 180.69 392.937C182.346 392.937 183.693 391.59 183.693 389.933C183.693 388.277 182.346 386.93 180.69 386.93ZM180.69 397.645C176.437 397.645 172.978 394.186 172.978 389.933C172.978 385.681 176.437 382.221 180.69 382.221C184.943 382.221 188.401 385.681 188.401 389.933C188.401 394.186 184.943 397.645 180.69 397.645Z" fill="#00264E"/>
<path fill-rule="evenodd" clip-rule="evenodd" d="M302.423 273.905C299.177 273.905 296.49 271.33 296.377 268.062C296.26 264.72 298.875 261.917 302.217 261.801C348.209 260.199 384.324 221.48 382.724 175.487C381.949 153.207 372.543 132.563 356.241 117.356C339.938 102.152 318.71 94.2135 296.409 94.9783C250.417 96.5801 214.301 135.301 215.902 181.293C216.608 201.552 224.638 220.827 238.513 235.57C240.806 238.004 240.69 241.836 238.256 244.127C235.82 246.42 231.987 246.302 229.699 243.868C213.806 226.985 204.61 204.911 203.802 181.715C202.914 156.203 212.015 131.872 229.426 113.203C246.838 94.5363 270.476 83.7661 295.989 82.879C321.523 81.9845 345.832 91.0911 364.499 108.503C383.166 125.914 393.936 149.553 394.823 175.064C396.658 227.731 355.303 272.068 302.637 273.9C302.566 273.903 302.494 273.905 302.423 273.905Z" fill="#00264E"/>
<path fill-rule="evenodd" clip-rule="evenodd" d="M299.351 93.5826C320.871 93.5826 341.401 101.677 357.159 116.372C373.726 131.824 383.282 152.802 384.067 175.44C385.694 222.174 348.995 261.517 302.264 263.146C301.006 263.188 299.842 263.719 298.984 264.638C298.125 265.559 297.677 266.757 297.721 268.014C297.81 270.564 299.874 272.559 302.422 272.559L302.596 272.556C327.702 271.682 350.998 261.053 368.184 242.626C385.37 224.201 394.354 200.225 393.48 175.113C392.604 149.959 381.987 126.653 363.582 109.487C345.248 92.386 321.116 83.3355 296.037 84.2226C270.882 85.0979 247.575 95.7163 230.411 114.121C213.243 132.526 204.272 156.515 205.146 181.667C205.943 204.54 215.011 226.301 230.678 242.946C232.4 244.779 235.502 244.875 237.332 243.148C238.249 242.286 238.775 241.119 238.812 239.862C238.85 238.605 238.398 237.409 237.534 236.492C223.434 221.51 215.275 201.924 214.559 181.34C212.933 134.605 249.631 95.2609 296.363 93.6341C297.363 93.6003 298.357 93.5826 299.351 93.5826ZM302.422 275.249C298.417 275.249 295.171 272.112 295.032 268.107C294.963 266.133 295.667 264.249 297.016 262.804C298.364 261.358 300.194 260.524 302.17 260.456C347.42 258.88 382.953 220.784 381.38 175.534C380.616 153.614 371.364 133.302 355.323 118.34C339.358 103.452 318.339 95.5807 296.456 96.3234C251.206 97.8986 215.673 135.994 217.246 181.246C217.94 201.177 225.842 220.143 239.494 234.647C240.848 236.087 241.561 237.967 241.501 239.943C241.442 241.919 240.617 243.752 239.177 245.108C237.799 246.403 235.997 247.118 234.107 247.118C232.073 247.118 230.109 246.269 228.718 244.79C212.605 227.67 203.279 205.287 202.458 181.761C201.557 155.89 210.785 131.217 228.442 112.286C246.099 93.3556 270.07 82.4351 295.943 81.5333C321.743 80.633 346.562 89.9326 365.418 107.519C384.347 125.175 395.269 149.147 396.168 175.018C397.067 200.848 387.828 225.511 370.153 244.463C352.476 263.414 328.514 274.346 302.684 275.245L302.422 275.249Z" fill="#00264E"/>
</svg>
