<svg width="160" height="182" viewBox="0 0 160 182" fill="none" xmlns="http://www.w3.org/2000/svg">
<path fill-rule="evenodd" clip-rule="evenodd" d="M44.0007 186.556L119.345 261.901L339.901 41.3438L264.557 -34.0007L44.0007 186.556Z" fill="white"/>
<path fill-rule="evenodd" clip-rule="evenodd" d="M97.816 57.1372L125.76 85.2564L133.179 92.7221L125.737 100.165L115.626 110.276L120.826 115.51L126.987 121.709L120.807 127.89L102.637 146.062L102.028 146.67L129.646 174.448L139.147 184L148.678 174.465L176.525 146.616L185.996 137.143L176.554 127.642L140.99 91.8551L94.1413 45.0057L58.3544 9.4419L48.8531 0L44.7153 4.1378L61.0051 20.326L97.816 57.1372Z" stroke="white" stroke-width="2"/>
<path fill-rule="evenodd" clip-rule="evenodd" d="M121.906 118.609L118.826 115.51L113.625 110.276L101.856 122.047L94.3673 129.539L86.9019 122.033L59.0046 93.9741L22.1924 57.1371L16.3701 51.351L11.1489 56.5725L10.4705 57.251L45.2909 91.8547L92.1408 138.737L97 143.5L121.906 118.609Z" fill="url(#paint0_linear)"/>
<path fill-rule="evenodd" clip-rule="evenodd" d="M9.53476 37.3186L5.90381 40.9495L16.3704 51.3509L29.3196 38.4019L35.4996 32.2216L41.6993 38.3824L65.0508 61.5882L95.6202 92.1579L113.626 110.277L123.737 100.165L131.179 92.722L123.76 85.2565L95.8161 57.137L59.0048 20.3258L42.7154 4.13794L37.3819 9.47145L9.53476 37.3186Z" fill="url(#paint1_linear)"/>
<path fill-rule="evenodd" clip-rule="evenodd" d="M59.0048 93.9742L86.9021 122.033L94.3675 129.539L101.856 122.047L113.626 110.276L95.6204 92.1581L65.0508 61.5884L41.6992 38.3825L35.4999 32.2218L29.3195 38.4021L16.3706 51.3511L22.1929 57.1372L59.0048 93.9742Z" fill="#F4B828"/>
<path fill-rule="evenodd" clip-rule="evenodd" d="M57.1372 88.1851L85.2564 60.2414L92.7221 52.8224L100.165 60.2646L110.276 70.3752L115.51 65.1752L121.709 59.0141L127.89 65.1945L146.062 83.3646L146.67 83.9727L174.448 56.3551L184 46.8542L174.465 37.3235L146.616 9.47643L137.143 0.00512695L127.642 9.44703L91.8551 45.0108L45.0057 91.8599L9.44194 127.647L0 137.148L4.13778 141.286L20.326 124.996L57.1372 88.1851Z" fill="url(#paint2_linear)"/>
<path fill-rule="evenodd" clip-rule="evenodd" d="M91.855 138.709L57.251 173.53L62.7913 179.07L68.991 172.832L92.158 149.52L122.749 118.949L146.051 95.7821L152.284 89.5828L146.67 83.9717L138.737 91.8588L91.855 138.709Z" fill="#DAE1E3"/>
<path fill-rule="evenodd" clip-rule="evenodd" d="M127.89 65.1933L121.709 59.0129L115.51 65.174L110.277 70.3744L122.047 82.1438L129.539 89.6325L122.033 97.098L93.9742 124.995L57.1372 161.807L51.3511 167.63L56.5726 172.851L57.2511 173.529L91.8551 138.709L138.737 91.859L146.67 83.9715L146.062 83.3637L127.89 65.1933Z" fill="#FDBD10" stroke="white"/>
<path fill-rule="evenodd" clip-rule="evenodd" d="M37.3185 174.465L40.9495 178.096L51.3509 167.63L38.4019 154.681L32.2216 148.5L38.3824 142.301L61.5885 118.949L92.1579 88.3799L110.277 70.3744L100.165 60.2635L92.7219 52.8213L85.2565 60.2402L57.137 88.184L20.3258 124.995L4.13794 141.285L9.47146 146.618L37.3185 174.465Z" stroke="white" stroke-width="2"/>
<path fill-rule="evenodd" clip-rule="evenodd" d="M92.9743 124.995L121.033 97.098L128.539 89.6325L121.047 82.1438L109.277 70.3744L91.1582 88.3796L60.5885 118.949L37.3827 142.301L31.2219 148.5L37.4022 154.68L50.3512 167.629L56.1373 161.807L92.9743 124.995Z" stroke="white" stroke-width="3"/>
<defs>
<linearGradient id="paint0_linear" x1="66.1884" y1="51.351" x2="66.1884" y2="143.5" gradientUnits="userSpaceOnUse">
<stop stop-color="#335C63"/>
<stop offset="1" stop-color="#141F36"/>
</linearGradient>
<linearGradient id="paint1_linear" x1="68.5413" y1="4.13794" x2="68.5413" y2="110.277" gradientUnits="userSpaceOnUse">
<stop stop-color="#335C63"/>
<stop offset="1" stop-color="#141F36"/>
</linearGradient>
<linearGradient id="paint2_linear" x1="92" y1="0.00512695" x2="92" y2="141.286" gradientUnits="userSpaceOnUse">
<stop stop-color="#335C63"/>
<stop offset="1" stop-color="#141F36"/>
</linearGradient>
</defs>
</svg>
