<svg width="500" height="500" viewBox="0 0 500 500" fill="none" xmlns="http://www.w3.org/2000/svg">
<rect width="500" height="500" fill="white"/>
<path fill-rule="evenodd" clip-rule="evenodd" d="M184.975 329.819H168.458V245.701C168.458 219.374 189.876 197.956 216.203 197.956H289.267C304.439 197.956 316.784 185.612 316.784 170.44V132.051H333.301V170.44C333.301 194.719 313.548 214.473 289.267 214.473H216.203C198.985 214.473 184.975 228.481 184.975 245.701V329.819Z" fill="#00264E"/>
<path fill-rule="evenodd" clip-rule="evenodd" d="M325.042 92.5166C316.874 92.5166 310.227 99.1629 310.227 107.331C310.227 115.5 316.874 122.145 325.042 122.145C333.211 122.145 339.857 115.5 339.857 107.331C339.857 99.1629 333.211 92.5166 325.042 92.5166ZM325.042 138.662C307.766 138.662 293.71 124.608 293.71 107.331C293.71 90.0542 307.766 76 325.042 76C342.319 76 356.373 90.0542 356.373 107.331C356.373 124.608 342.319 138.662 325.042 138.662Z" fill="#00264E"/>
<path fill-rule="evenodd" clip-rule="evenodd" d="M176.717 339.725C168.549 339.725 161.901 346.371 161.901 354.539C161.901 362.709 168.549 369.353 176.717 369.353C184.885 369.353 191.531 362.709 191.531 354.539C191.531 346.371 184.885 339.725 176.717 339.725ZM176.717 385.87C159.44 385.87 145.384 371.816 145.384 354.539C145.384 337.262 159.44 323.208 176.717 323.208C193.993 323.208 208.048 337.262 208.048 354.539C208.048 371.816 193.993 385.87 176.717 385.87Z" fill="#00264E"/>
<path fill-rule="evenodd" clip-rule="evenodd" d="M146.63 152.252L164.445 170.067L182.26 152.252L200.075 170.067L217.891 152.252L200.075 134.437L217.891 116.622L200.075 98.8065L182.26 116.622L164.445 98.8065L146.63 116.622L164.445 134.437L146.63 152.252Z" fill="#00264E"/>
<path fill-rule="evenodd" clip-rule="evenodd" d="M280.733 290.477L298.548 308.292L316.364 290.477L334.179 308.292L351.994 290.477L334.179 272.662L351.994 254.847L334.179 237.031L316.364 254.847L298.548 237.031L280.733 254.847L298.548 272.662L280.733 290.477Z" fill="#00264E"/>
<path fill-rule="evenodd" clip-rule="evenodd" d="M371.677 424.341H129.134C124.643 424.341 121 420.7 121 416.207C121 411.714 124.643 408.073 129.134 408.073H371.677C376.169 408.073 379.811 411.714 379.811 416.207C379.811 420.7 376.169 424.341 371.677 424.341Z" fill="#00264E"/>
</svg>
