<svg width="511" height="221" viewBox="0 0 511 221" fill="none" xmlns="http://www.w3.org/2000/svg">
<g clip-path="url(#clip0)">
<path fill-rule="evenodd" clip-rule="evenodd" d="M328.081 -212.637L422.713 -117.411L447.837 -92.128L422.634 -66.923L388.394 -32.68L406.005 -14.958L426.869 6.03713L405.939 26.9691L344.406 88.5077L342.347 90.5671L435.874 184.636L468.049 216.986L500.325 184.695L594.629 90.3836L626.704 58.3048L594.729 26.1285L474.291 -95.0642L315.637 -253.72L194.444 -374.157L162.267 -406.133L148.255 -392.12L203.42 -337.298L328.081 -212.637Z" stroke="white" stroke-width="5"/>
<path fill-rule="evenodd" clip-rule="evenodd" d="M424.109 5.27692L385.634 -33.4403L319.416 32.7921L55.2774 -231.992L35.2981 -212.011L338.587 90.8068L424.109 5.27692Z" fill="#8FC4FA"/>
<path fill-rule="evenodd" clip-rule="evenodd" d="M201.42 -85.888L295.894 9.13481L321.176 34.5523L346.536 9.18144L386.394 -30.6801L325.419 -92.0382L221.894 -195.563L142.814 -274.15L121.82 -295.013L100.89 -274.083L57.0386 -230.232L76.7558 -210.637L201.42 -85.888Z" fill="#D7262D"/>
<path fill-rule="evenodd" clip-rule="evenodd" d="M193.496 -104.377L288.722 -199.009L314.005 -224.134L339.21 -198.93L373.452 -164.691L391.175 -182.301L412.17 -203.165L433.102 -182.236L494.64 -120.702L496.7 -118.643L590.769 -212.17L623.118 -244.345L590.828 -276.621L496.516 -370.925L464.437 -403L432.261 -371.025L311.068 -250.588L152.412 -91.9328L31.9752 29.2601L0 61.4362L14.0126 75.4489L68.8341 20.2835L193.496 -104.377Z" fill="#8FC4FA"/>
<path fill-rule="evenodd" clip-rule="evenodd" d="M312.667 65.6073L195.48 183.527L214.243 202.29L235.238 181.164L313.693 102.217L417.291 -1.30935L496.202 -79.7656L517.31 -100.76L498.3 -119.762L471.434 -93.0518L312.667 65.6073Z" fill="#DAE1E3"/>
<path fill-rule="evenodd" clip-rule="evenodd" d="M434.701 -183.355L413.769 -204.285L392.774 -183.42L375.052 -165.809L414.913 -125.952L440.284 -100.591L414.867 -75.3093L319.844 19.1651L195.095 143.83L175.5 163.547L193.183 181.229L195.481 183.527L312.668 65.6069L471.433 -93.051L498.299 -119.762L496.24 -121.82L434.701 -183.355Z" fill="#FDBD10"/>
<path fill-rule="evenodd" clip-rule="evenodd" d="M127.979 186.696L140.275 198.992L175.5 163.547L131.648 119.695L110.718 98.7657L131.582 77.7705L210.17 -1.30971L313.693 -104.833L375.053 -165.809L340.81 -200.05L315.604 -225.253L290.322 -200.129L195.095 -105.497L70.433 19.1651L15.6127 74.3297L33.6747 92.3917L127.979 186.696Z" stroke="white" stroke-width="3"/>
<path fill-rule="evenodd" clip-rule="evenodd" d="M319.844 18.1654L414.867 -76.3091L440.284 -101.591L414.914 -126.952L375.052 -166.809L313.694 -105.834L210.169 -2.30955L131.582 76.7708L110.719 97.7648L131.649 118.695L175.5 162.546L195.095 142.829L319.844 18.1654Z" stroke="white" stroke-width="5"/>
</g>
<defs>
<clipPath id="clip0">
<rect width="511" height="221" fill="white"/>
</clipPath>
</defs>
</svg>
