<svg width="251" height="59" viewBox="0 0 251 59" fill="none" xmlns="http://www.w3.org/2000/svg">
<g clip-path="url(#clip0)">
<path d="M3.57372 40.3167H0.418945L7.24606 30.9996L1.5034 23.1083H4.70746L8.87274 28.8117L13.038 23.1083H16.1928L10.4255 30.9504L17.2772 40.3167H14.0485L8.82345 33.1629L3.57372 40.3167ZM36.1752 40.6363C33.5956 40.6363 31.4267 39.8004 29.6685 38.1288C27.9432 36.4407 27.0806 34.3019 27.0806 31.7125C27.0806 29.1231 27.9432 26.9925 29.6685 25.3208C31.3774 23.6328 33.5463 22.7888 36.1752 22.7888C37.9334 22.7888 39.4943 23.1739 40.8581 23.9442V26.6729C39.4615 25.7715 37.9088 25.3208 36.1999 25.3208C34.3925 25.3208 32.8808 25.9273 31.6649 27.14C30.4655 28.3364 29.8657 29.8606 29.8657 31.7125C29.8657 33.5644 30.4737 35.0968 31.6895 36.3096C32.9055 37.506 34.4418 38.1042 36.2984 38.1042C38.2702 38.1042 39.9133 37.5798 41.2278 36.5308V39.2596C39.7819 40.1773 38.0976 40.6363 36.1752 40.6363ZM66.0123 40.3167H53.4179V23.1083H65.6919V25.5913H56.129V29.8933H63.9174V32.3763H56.129V37.8338H66.0123V40.3167ZM89.9842 40.3167H78.0799V23.1083H80.8157V37.8338H89.9842V40.3167ZM114.326 40.3167H101.731V23.1083H114.005V25.5913H104.443V29.8933H112.231V32.3763H104.443V37.8338H114.326V40.3167ZM129.104 40.3167H126.393V23.1083H134.255C136.03 23.1083 137.419 23.559 138.42 24.4604C139.44 25.3782 139.949 26.5582 139.949 28.0004C139.949 29.1968 139.612 30.2211 138.938 31.0733C138.281 31.9092 137.369 32.4664 136.202 32.745L141.624 40.3167H138.346L133.146 33.04H129.104V40.3167ZM129.104 25.5913V30.6554H134.083C135.068 30.6554 135.833 30.4342 136.375 29.9917C136.934 29.5492 137.213 28.9182 137.213 28.0988C137.213 27.3121 136.934 26.6975 136.375 26.255C135.833 25.8125 135.068 25.5913 134.083 25.5913H129.104ZM154.623 40.3167H151.739L159.281 23.01H161.894L169.436 40.3167H166.527L164.654 36.0392H156.472L154.623 40.3167ZM160.563 26.4271L157.408 33.6546H163.718L160.563 26.4271ZM177.202 25.5913V23.1083H191.325V25.5913H185.607V40.3167H182.896V25.5913H177.202ZM205.814 36.285C206.98 37.4978 208.41 38.1042 210.103 38.1042C211.794 38.1042 213.224 37.4978 214.391 36.285C215.557 35.0394 216.141 33.5153 216.141 31.7125C216.141 29.8933 215.557 28.3773 214.391 27.1646C213.224 25.9354 211.794 25.3208 210.103 25.3208C208.41 25.3208 206.98 25.9354 205.814 27.1646C204.664 28.361 204.089 29.8769 204.089 31.7125C204.089 33.5481 204.664 35.0723 205.814 36.285ZM216.412 38.0796C214.736 39.784 212.632 40.6363 210.103 40.6363C207.572 40.6363 205.469 39.784 203.793 38.0796C202.133 36.3423 201.304 34.22 201.304 31.7125C201.304 29.1886 202.133 27.0744 203.793 25.37C205.469 23.6492 207.572 22.7888 210.103 22.7888C212.632 22.7888 214.736 23.6492 216.412 25.37C218.088 27.0744 218.926 29.1886 218.926 31.7125C218.926 34.2364 218.088 36.3588 216.412 38.0796ZM234.179 40.3167H231.467V23.1083H239.33C241.104 23.1083 242.493 23.559 243.495 24.4604C244.514 25.3782 245.023 26.5582 245.023 28.0004C245.023 29.1968 244.687 30.2211 244.013 31.0733C243.356 31.9092 242.444 32.4664 241.277 32.745L246.699 40.3167H243.421L238.221 33.04H234.179V40.3167ZM234.179 25.5913V30.6554H239.157C240.143 30.6554 240.907 30.4342 241.449 29.9917C242.008 29.5492 242.287 28.9182 242.287 28.0988C242.287 27.3121 242.008 26.6975 241.449 26.255C240.907 25.8125 240.143 25.5913 239.157 25.5913H234.179Z" fill="#151E36"/>
<path d="M1.86082 56.05H1.29395V47.4458H4.88003C5.70981 47.4458 6.35883 47.6548 6.82712 48.0727C7.30362 48.4906 7.54187 49.0519 7.54187 49.7567C7.54187 50.4614 7.30362 51.0268 6.82712 51.4529C6.35883 51.8708 5.70981 52.0798 4.88003 52.0798H1.86082V56.05ZM1.86082 47.9744V51.5513H4.83074C5.51263 51.5513 6.03842 51.3956 6.40812 51.0842C6.78604 50.7728 6.975 50.3303 6.975 49.7567C6.975 49.1913 6.78604 48.7529 6.40812 48.4415C6.03842 48.13 5.51263 47.9744 4.83074 47.9744H1.86082ZM10.6568 54.956C11.1579 55.4396 11.7659 55.6813 12.4807 55.6813C13.2036 55.6813 13.8074 55.4396 14.2922 54.956C14.7851 54.4644 15.0316 53.8539 15.0316 53.1246C15.0316 52.3953 14.7851 51.7848 14.2922 51.2931C13.8074 50.8015 13.2036 50.5556 12.4807 50.5556C11.7576 50.5556 11.1497 50.8015 10.6568 51.2931C10.1721 51.793 9.92973 52.4035 9.92973 53.1246C9.92973 53.8457 10.1721 54.4562 10.6568 54.956ZM14.7235 55.3002C14.1484 55.8984 13.4008 56.1975 12.4807 56.1975C11.5523 56.1975 10.8005 55.8984 10.2255 55.3002C9.65038 54.7021 9.36283 53.9768 9.36283 53.1246C9.36283 52.2723 9.65038 51.5471 10.2255 50.949C10.8087 50.3425 11.5605 50.0394 12.4807 50.0394C13.3926 50.0394 14.1402 50.3425 14.7235 50.949C15.3067 51.5554 15.5985 52.2806 15.5985 53.1246C15.5985 53.9686 15.3067 54.6938 14.7235 55.3002ZM20.2128 56.0992H19.7199L17.5633 50.1869H18.1425L19.991 55.2388L21.7902 50.1623H22.2708L24.0823 55.2388L25.9185 50.1869H26.4854L24.3288 56.0992H23.8482L22.012 51.0227L20.2128 56.0992ZM31.6699 56.1975C30.7417 56.1975 29.9776 55.9107 29.3778 55.3371C28.7699 54.7553 28.4659 54.0178 28.4659 53.1246C28.4659 52.2396 28.737 51.5062 29.2792 50.9244C29.8214 50.3344 30.5239 50.0394 31.3865 50.0394C31.8713 50.0394 32.2984 50.1377 32.6681 50.3344C33.0378 50.5229 33.3213 50.781 33.5184 51.1088C33.9046 51.7233 34.0976 52.3584 34.0976 53.014V53.1983H29.0204C29.0369 53.944 29.2957 54.5423 29.7968 54.9929C30.3062 55.4518 30.9552 55.6813 31.7439 55.6813C32.4505 55.6813 33.0831 55.4969 33.6417 55.1281V55.669C33.1817 56.0213 32.5244 56.1975 31.6699 56.1975ZM29.0328 52.719H33.5431C33.5431 52.4896 33.5021 52.256 33.4199 52.0183C33.3377 51.7807 33.2145 51.5513 33.0502 51.33C32.8941 51.1006 32.6681 50.9162 32.3724 50.7769C32.0766 50.6294 31.7439 50.5556 31.3742 50.5556C30.6841 50.5556 30.1295 50.7769 29.7105 51.2194C29.2915 51.6619 29.0657 52.1617 29.0328 52.719ZM37.3064 56.05H36.7519V50.1869H37.3064V51.416C37.5283 51.0227 37.8528 50.699 38.28 50.445C38.7154 50.1828 39.1837 50.0475 39.6848 50.0394V50.6048C39.1261 50.6048 38.6374 50.7646 38.2184 51.0842C37.7994 51.3956 37.4954 51.7561 37.3064 52.1658V56.05ZM44.6355 56.1975C43.7071 56.1975 42.943 55.9107 42.3433 55.3371C41.7353 54.7553 41.4314 54.0178 41.4314 53.1246C41.4314 52.2396 41.7025 51.5062 42.2447 50.9244C42.787 50.3344 43.4894 50.0394 44.352 50.0394C44.8368 50.0394 45.264 50.1377 45.6336 50.3344C46.0033 50.5229 46.2868 50.781 46.484 51.1088C46.8701 51.7233 47.0632 52.3584 47.0632 53.014V53.1983H41.9859C42.0024 53.944 42.2612 54.5423 42.7623 54.9929C43.2717 55.4518 43.9207 55.6813 44.7094 55.6813C45.416 55.6813 46.0485 55.4969 46.6072 55.1281V55.669C46.1471 56.0213 45.4899 56.1975 44.6355 56.1975ZM41.9983 52.719H46.5086C46.5086 52.4896 46.4675 52.256 46.3854 52.0183C46.3032 51.7807 46.18 51.5513 46.0157 51.33C45.8596 51.1006 45.6337 50.9162 45.3379 50.7769C45.0421 50.6294 44.7094 50.5556 44.3397 50.5556C43.6496 50.5556 43.095 50.7769 42.6761 51.2194C42.2571 51.6619 42.0311 52.1617 41.9983 52.719ZM52.2807 56.1975C51.3851 56.1975 50.6622 55.8984 50.1117 55.3002C49.5612 54.7021 49.2861 53.9768 49.2861 53.1246C49.2861 52.2723 49.5612 51.5471 50.1117 50.949C50.6703 50.3425 51.3934 50.0394 52.2807 50.0394C53.324 50.0394 54.1332 50.4368 54.7083 51.2317V47.4458H55.2629V56.05H54.7083V55.0175C54.125 55.8042 53.3158 56.1975 52.2807 56.1975ZM52.3792 55.6813C52.8885 55.6813 53.3568 55.5461 53.7841 55.2756C54.2113 55.0052 54.5194 54.6569 54.7083 54.2308V52.0183C54.5112 51.5923 54.1948 51.244 53.7595 50.9736C53.3322 50.695 52.8722 50.5556 52.3792 50.5556C51.6562 50.5556 51.0524 50.8015 50.5677 51.2931C50.0911 51.7766 49.853 52.3871 49.853 53.1246C49.853 53.8621 50.0911 54.4725 50.5677 54.956C51.0524 55.4396 51.6562 55.6813 52.3792 55.6813ZM65.4966 56.1975C64.4614 56.1975 63.6522 55.8042 63.0689 55.0175V56.05H62.5143V47.4458H63.0689V51.2317C63.644 50.4368 64.4532 50.0394 65.4966 50.0394C66.3757 50.0394 67.0946 50.3425 67.6532 50.949C68.2118 51.5554 68.4911 52.2806 68.4911 53.1246C68.4911 53.9686 68.2118 54.6938 67.6532 55.3002C67.1028 55.8984 66.3839 56.1975 65.4966 56.1975ZM65.398 55.6813C66.1127 55.6813 66.7125 55.4396 67.1972 54.956C67.6819 54.4562 67.9243 53.8457 67.9243 53.1246C67.9243 52.4035 67.6819 51.793 67.1972 51.2931C66.7207 50.8015 66.121 50.5556 65.398 50.5556C64.9051 50.5556 64.4409 50.695 64.0055 50.9736C63.5783 51.244 63.2661 51.5923 63.0689 52.0183V54.2308C63.2579 54.6569 63.566 55.0052 63.9931 55.2756C64.4204 55.5461 64.8887 55.6813 65.398 55.6813ZM71.2748 58.5575C70.9133 58.5575 70.634 58.496 70.4369 58.3731V57.8446C70.675 57.9757 70.9338 58.0413 71.2132 58.0413C71.6157 58.0413 71.9403 57.8815 72.1868 57.5619C72.4414 57.2669 72.7372 56.7342 73.074 55.964L70.3506 50.1869H70.9791L73.3575 55.2879L75.6619 50.1869H76.2658L73.2959 56.7138C73.0165 57.3448 72.7167 57.8077 72.3963 58.1027C72.084 58.4059 71.7102 58.5575 71.2748 58.5575ZM82.7425 56.05H82.1387L86.0575 47.3967H86.5874L90.4816 56.05H89.8901L88.744 53.5179H83.8886L82.7425 56.05ZM86.3163 48.1342L84.0858 53.0263H88.5345L86.3163 48.1342ZM93.7281 50.6908V56.05H93.1736V50.6908H91.9536V50.1869H93.1736V49.0192C93.1736 48.4948 93.3091 48.0891 93.5802 47.8023C93.8514 47.5073 94.2334 47.3598 94.7263 47.3598C95.1453 47.3598 95.5273 47.4417 95.8724 47.6056V48.1342C95.5109 47.9621 95.1658 47.876 94.8372 47.876C94.4839 47.876 94.2087 47.9867 94.0116 48.2079C93.8226 48.4292 93.7281 48.7406 93.7281 49.1421V50.1869H95.8724V50.6908H93.7281ZM98.7443 56.05H98.1895V50.1869H98.7443V51.416C98.9661 51.0227 99.2905 50.699 99.7174 50.445C100.153 50.1828 100.621 50.0475 101.122 50.0394V50.6048C100.564 50.6048 100.075 50.7646 99.6562 51.0842C99.2372 51.3956 98.9326 51.7561 98.7443 52.1658V56.05ZM104.028 56.05H103.473V50.1869H104.028V56.05ZM104.077 48.4415C103.945 48.5808 103.793 48.6217 103.62 48.5644C103.448 48.4988 103.337 48.3882 103.288 48.2325C103.247 48.0768 103.288 47.9252 103.411 47.7777C103.543 47.6384 103.694 47.6015 103.867 47.6671C104.039 47.7244 104.147 47.831 104.187 47.9867C104.237 48.1423 104.2 48.294 104.077 48.4415ZM109.942 56.1975C109.038 56.1975 108.298 55.8984 107.724 55.3002C107.14 54.6938 106.848 53.9646 106.848 53.1123C106.848 52.2683 107.14 51.5431 107.724 50.9367C108.298 50.3385 109.042 50.0394 109.954 50.0394C110.611 50.0394 111.203 50.191 111.728 50.4942V51.035C111.178 50.7154 110.607 50.5556 110.016 50.5556C109.276 50.5556 108.656 50.8015 108.154 51.2931C107.661 51.7848 107.415 52.3953 107.415 53.1246C107.415 53.8539 107.661 54.4644 108.154 54.956C108.664 55.4396 109.284 55.6813 110.016 55.6813C110.706 55.6813 111.314 55.4969 111.84 55.1281V55.6813C111.322 56.0254 110.689 56.1975 109.942 56.1975ZM116.527 55.6813C116.996 55.6813 117.435 55.5706 117.846 55.3494C118.257 55.1281 118.59 54.8496 118.844 54.5135V53.5425C118.137 53.0836 117.419 52.8542 116.688 52.8542C116.072 52.8542 115.583 52.9853 115.221 53.2475C114.859 53.5015 114.679 53.8416 114.679 54.2677C114.679 54.7266 114.851 55.079 115.196 55.3248C115.541 55.5625 115.985 55.6813 116.527 55.6813ZM116.368 56.1975C115.759 56.1975 115.225 56.0296 114.766 55.6936C114.322 55.3494 114.1 54.8782 114.1 54.28C114.1 53.6982 114.33 53.2352 114.79 52.891C115.25 52.5387 115.833 52.3625 116.54 52.3625C117.378 52.3625 118.146 52.5756 118.844 53.0017V52.2273C118.844 51.1129 118.146 50.5556 116.749 50.5556C116.042 50.5556 115.377 50.7646 114.753 51.1825V50.6171C115.352 50.2319 116.051 50.0394 116.848 50.0394C117.636 50.0394 118.257 50.2238 118.709 50.5925C119.168 50.9531 119.399 51.4816 119.399 52.1781V54.784C119.399 55.038 119.456 55.2429 119.572 55.3986C119.686 55.5461 119.843 55.6198 120.04 55.6198C120.171 55.6198 120.286 55.5952 120.385 55.546V56.0008C120.27 56.0664 120.109 56.0992 119.904 56.0992C119.625 56.0992 119.39 56.0131 119.202 55.841C119.021 55.6608 118.918 55.4067 118.893 55.079C118.253 55.8246 117.411 56.1975 116.368 56.1975ZM123.279 51.92V56.05H122.725V50.1869H123.279V51.2071C123.559 50.8711 123.919 50.5925 124.363 50.3713C124.807 50.15 125.28 50.0394 125.781 50.0394C126.52 50.0394 127.083 50.2525 127.468 50.6785C127.863 51.0965 128.06 51.6988 128.06 52.4854V56.05H127.506V52.596C127.506 51.7521 127.284 51.1907 126.84 50.9121C126.479 50.6744 126.073 50.5556 125.62 50.5556C125.161 50.5556 124.713 50.695 124.277 50.9736C123.834 51.244 123.5 51.5594 123.279 51.92ZM140.952 56.05H135.369V47.4458H135.936V55.5215H140.952V56.05ZM146.017 56.1975C145.088 56.1975 144.324 55.9107 143.724 55.3371C143.116 54.7553 142.812 54.0178 142.812 53.1246C142.812 52.2396 143.084 51.5062 143.626 50.9244C144.168 50.3344 144.87 50.0394 145.733 50.0394C146.218 50.0394 146.645 50.1377 147.014 50.3344C147.384 50.5229 147.668 50.781 147.865 51.1088C148.252 51.7233 148.444 52.3584 148.444 53.014V53.1983H143.367C143.383 53.944 143.643 54.5423 144.143 54.9929C144.653 55.4518 145.302 55.6813 146.09 55.6813C146.797 55.6813 147.429 55.4969 147.988 55.1281V55.669C147.528 56.0213 146.871 56.1975 146.017 56.1975ZM143.379 52.719H147.89C147.89 52.4896 147.848 52.256 147.766 52.0183C147.685 51.7807 147.561 51.5513 147.397 51.33C147.241 51.1006 147.014 50.9162 146.719 50.7769C146.423 50.6294 146.09 50.5556 145.721 50.5556C145.031 50.5556 144.476 50.7769 144.057 51.2194C143.638 51.6619 143.412 52.1617 143.379 52.719ZM153.021 55.6813C153.489 55.6813 153.928 55.5706 154.339 55.3494C154.75 55.1281 155.083 54.8496 155.338 54.5135V53.5425C154.631 53.0836 153.912 52.8542 153.181 52.8542C152.565 52.8542 152.076 52.9853 151.715 53.2475C151.353 53.5015 151.173 53.8416 151.173 54.2677C151.173 54.7266 151.345 55.079 151.69 55.3248C152.035 55.5625 152.479 55.6813 153.021 55.6813ZM152.86 56.1975C152.252 56.1975 151.719 56.0296 151.258 55.6936C150.815 55.3494 150.593 54.8782 150.593 54.28C150.593 53.6982 150.823 53.2352 151.283 52.891C151.743 52.5387 152.326 52.3625 153.033 52.3625C153.871 52.3625 154.639 52.5756 155.338 53.0017V52.2273C155.338 51.1129 154.639 50.5556 153.243 50.5556C152.536 50.5556 151.871 50.7646 151.247 51.1825V50.6171C151.846 50.2319 152.544 50.0394 153.342 50.0394C154.13 50.0394 154.75 50.2238 155.202 50.5925C155.662 50.9531 155.892 51.4816 155.892 52.1781V54.784C155.892 55.038 155.949 55.2429 156.065 55.3986C156.18 55.5461 156.336 55.6198 156.533 55.6198C156.664 55.6198 156.779 55.5952 156.878 55.546V56.0008C156.762 56.0664 156.603 56.0992 156.398 56.0992C156.118 56.0992 155.884 56.0131 155.695 55.841C155.514 55.6608 155.412 55.4067 155.387 55.079C154.746 55.8246 153.903 56.1975 152.86 56.1975ZM161.781 56.1975C160.885 56.1975 160.163 55.8984 159.612 55.3002C159.062 54.7021 158.786 53.9768 158.786 53.1246C158.786 52.2723 159.062 51.5471 159.612 50.949C160.171 50.3425 160.893 50.0394 161.781 50.0394C162.825 50.0394 163.634 50.4368 164.209 51.2317V47.4458H164.763V56.05H164.209V55.0175C163.625 55.8042 162.816 56.1975 161.781 56.1975ZM161.879 55.6813C162.389 55.6813 162.857 55.5461 163.284 55.2756C163.712 55.0052 164.019 54.6569 164.209 54.2308V52.0183C164.012 51.5923 163.695 51.244 163.259 50.9736C162.832 50.695 162.372 50.5556 161.879 50.5556C161.157 50.5556 160.553 50.8015 160.068 51.2931C159.592 51.7766 159.353 52.3871 159.353 53.1246C159.353 53.8621 159.592 54.4725 160.068 54.956C160.553 55.4396 161.157 55.6813 161.879 55.6813ZM170.628 56.1975C169.699 56.1975 168.935 55.9107 168.336 55.3371C167.727 54.7553 167.424 54.0178 167.424 53.1246C167.424 52.2396 167.695 51.5062 168.237 50.9244C168.779 50.3344 169.481 50.0394 170.344 50.0394C170.829 50.0394 171.256 50.1377 171.625 50.3344C171.995 50.5229 172.279 50.781 172.476 51.1088C172.862 51.7233 173.055 52.3584 173.055 53.014V53.1983H167.978C167.994 53.944 168.253 54.5423 168.755 54.9929C169.263 55.4518 169.913 55.6813 170.702 55.6813C171.408 55.6813 172.04 55.4969 172.599 55.1281V55.669C172.139 56.0213 171.481 56.1975 170.628 56.1975ZM167.991 52.719H172.501C172.501 52.4896 172.459 52.256 172.378 52.0183C172.295 51.7807 172.172 51.5513 172.008 51.33C171.851 51.1006 171.625 50.9162 171.33 50.7769C171.034 50.6294 170.702 50.5556 170.332 50.5556C169.642 50.5556 169.087 50.7769 168.668 51.2194C168.249 51.6619 168.023 52.1617 167.991 52.719ZM176.264 56.05H175.71V50.1869H176.264V51.416C176.486 51.0227 176.81 50.699 177.238 50.445C177.673 50.1828 178.141 50.0475 178.643 50.0394V50.6048C178.084 50.6048 177.595 50.7646 177.176 51.0842C176.757 51.3956 176.453 51.7561 176.264 52.1658V56.05ZM182.718 56.1975C182.241 56.1975 181.777 56.1402 181.325 56.0254C180.882 55.9025 180.537 55.7509 180.29 55.5706V54.9683C180.988 55.4436 181.794 55.6813 182.706 55.6813C183.28 55.6813 183.737 55.5788 184.074 55.374C184.419 55.1609 184.592 54.8782 184.592 54.5258C184.592 54.1981 184.41 53.94 184.049 53.7515C183.843 53.645 183.437 53.5098 182.829 53.3458L182.582 53.2844C182.032 53.1369 181.629 53.0058 181.375 52.891C180.775 52.5879 180.476 52.1658 180.476 51.625C180.476 51.1333 180.673 50.7482 181.067 50.4696C181.469 50.1828 182.028 50.0394 182.743 50.0394C183.597 50.0394 184.304 50.2196 184.863 50.5802V51.1456C184.213 50.7523 183.519 50.5556 182.779 50.5556C182.221 50.5556 181.79 50.654 181.486 50.8506C181.19 51.0391 181.042 51.2973 181.042 51.625C181.042 51.8954 181.161 52.1248 181.399 52.3133C181.49 52.3789 181.629 52.4485 181.818 52.5223C182.097 52.6288 182.434 52.7271 182.829 52.8173L183.519 52.9894C183.625 53.014 183.827 53.0836 184.123 53.1983C184.385 53.2967 184.571 53.3991 184.677 53.5056C184.998 53.776 185.158 54.1202 185.158 54.5381C185.158 55.038 184.924 55.4436 184.455 55.755C184.004 56.05 183.424 56.1975 182.718 56.1975ZM188.399 51.92V56.05H187.845V47.4458H188.399V51.2071C188.678 50.8711 189.04 50.5925 189.483 50.3713C189.927 50.15 190.399 50.0394 190.901 50.0394C191.64 50.0394 192.202 50.2525 192.589 50.6785C192.983 51.0965 193.18 51.6988 193.18 52.4854V56.05H192.626V52.596C192.626 51.7521 192.405 51.1907 191.961 50.9121C191.599 50.6744 191.192 50.5556 190.74 50.5556C190.28 50.5556 189.832 50.695 189.398 50.9736C188.954 51.244 188.621 51.5594 188.399 51.92ZM196.871 56.05H196.317V50.1869H196.871V56.05ZM196.921 48.4415C196.79 48.5808 196.638 48.6217 196.465 48.5644C196.293 48.4988 196.181 48.3882 196.132 48.2325C196.091 48.0768 196.132 47.9252 196.255 47.7777C196.386 47.6384 196.539 47.6015 196.712 47.6671C196.884 47.7244 196.991 47.831 197.032 47.9867C197.081 48.1423 197.044 48.294 196.921 48.4415ZM203.106 50.0394C203.985 50.0394 204.704 50.3425 205.263 50.949C205.821 51.5554 206.101 52.2765 206.101 53.1123C206.101 53.9563 205.821 54.6815 205.263 55.2879C204.704 55.8943 203.985 56.1975 203.106 56.1975C202.063 56.1975 201.254 55.8 200.679 55.0052V58.5083H200.124V50.1869H200.679V51.2194C201.262 50.4327 202.071 50.0394 203.106 50.0394ZM203.007 50.5556C202.498 50.5556 202.03 50.6908 201.603 50.9613C201.176 51.2317 200.867 51.58 200.679 52.0061V54.2186C200.876 54.6446 201.188 54.9971 201.615 55.2756C202.05 55.5461 202.515 55.6813 203.007 55.6813C203.73 55.6813 204.331 55.4354 204.807 54.9438C205.292 54.4439 205.534 53.8334 205.534 53.1123C205.534 52.383 205.292 51.7766 204.807 51.2931C204.331 50.8015 203.73 50.5556 203.007 50.5556ZM217.049 56.1975C215.817 56.1975 214.791 55.7796 213.968 54.9438C213.139 54.0915 212.724 53.0263 212.724 51.7479C212.724 50.4778 213.139 49.4166 213.968 48.5644C214.791 47.7204 215.817 47.2983 217.049 47.2983C218.167 47.2983 219.104 47.5975 219.859 48.1956V48.7979C219.046 48.1588 218.122 47.8392 217.087 47.8392C216.01 47.8392 215.111 48.2121 214.387 48.9577C213.665 49.6871 213.303 50.6212 213.303 51.7602C213.303 52.8911 213.665 53.8211 214.387 54.5504C215.111 55.2879 215.998 55.6567 217.049 55.6567C218.208 55.6567 219.116 55.3166 219.773 54.6365V51.121H220.34V54.8454C219.51 55.7468 218.414 56.1975 217.049 56.1975ZM223.966 56.05H223.411V50.1869H223.966V51.416C224.188 51.0227 224.512 50.699 224.939 50.445C225.375 50.1828 225.843 50.0475 226.344 50.0394V50.6048C225.786 50.6048 225.297 50.7646 224.878 51.0842C224.459 51.3956 224.154 51.7561 223.966 52.1658V56.05ZM229.384 54.956C229.886 55.4396 230.493 55.6813 231.208 55.6813C231.932 55.6813 232.535 55.4396 233.02 54.956C233.513 54.4644 233.76 53.8539 233.76 53.1246C233.76 52.3953 233.513 51.7848 233.02 51.2931C232.535 50.8015 231.932 50.5556 231.208 50.5556C230.486 50.5556 229.877 50.8015 229.384 51.2931C228.9 51.793 228.658 52.4035 228.658 53.1246C228.658 53.8457 228.9 54.4562 229.384 54.956ZM233.451 55.3002C232.876 55.8984 232.129 56.1975 231.208 56.1975C230.28 56.1975 229.528 55.8984 228.953 55.3002C228.379 54.7021 228.091 53.9768 228.091 53.1246C228.091 52.2723 228.379 51.5471 228.953 50.949C229.537 50.3425 230.288 50.0394 231.208 50.0394C232.12 50.0394 232.868 50.3425 233.451 50.949C234.035 51.5554 234.326 52.2806 234.326 53.1246C234.326 53.9686 234.035 54.6938 233.451 55.3002ZM241.661 54.3169V50.1869H242.215V56.05H241.661V55.0298C241.382 55.3658 241.021 55.6444 240.577 55.8656C240.133 56.0869 239.661 56.1975 239.159 56.1975C238.42 56.1975 237.853 55.9886 237.459 55.5706C237.073 55.1446 236.88 54.5381 236.88 53.7515V50.1869H237.434V53.6408C237.434 54.4767 237.652 55.038 238.088 55.3248C238.465 55.5625 238.876 55.6813 239.32 55.6813C239.771 55.6813 240.219 55.5461 240.663 55.2756C241.106 54.9888 241.439 54.6692 241.661 54.3169ZM248.297 50.0394C249.176 50.0394 249.894 50.3425 250.453 50.949C251.012 51.5554 251.291 52.2765 251.291 53.1123C251.291 53.9563 251.012 54.6815 250.453 55.2879C249.894 55.8943 249.176 56.1975 248.297 56.1975C247.253 56.1975 246.444 55.8 245.869 55.0052V58.5083H245.315V50.1869H245.869V51.2194C246.453 50.4327 247.262 50.0394 248.297 50.0394ZM248.199 50.5556C247.689 50.5556 247.221 50.6908 246.794 50.9613C246.366 51.2317 246.058 51.58 245.869 52.0061V54.2186C246.066 54.6446 246.379 54.9971 246.806 55.2756C247.241 55.5461 247.706 55.6813 248.199 55.6813C248.921 55.6813 249.521 55.4354 249.998 54.9438C250.482 54.4439 250.724 53.8334 250.724 53.1123C250.724 52.383 250.482 51.7766 249.998 51.2931C249.521 50.8015 248.921 50.5556 248.199 50.5556Z" fill="#151E36"/>
<path d="M1.10449 1.76999H6.32564C7.53497 1.76999 8.60759 1.9955 9.5435 2.44653C10.4794 2.89755 11.205 3.53737 11.7203 4.36599C12.2356 5.19462 12.4932 6.16484 12.4932 7.27666C12.4932 8.38849 12.2356 9.3587 11.7203 10.1873C11.205 11.016 10.4794 11.6557 9.5435 12.1068C8.60759 12.5578 7.53497 12.7833 6.32564 12.7833H1.10449V1.76999ZM6.19945 10.2975C7.14588 10.2975 7.90302 10.03 8.47088 9.49506C9.04926 8.96013 9.33844 8.22066 9.33844 7.27666C9.33844 6.33266 9.04926 5.59319 8.47088 5.05826C7.90302 4.52333 7.14588 4.25586 6.19945 4.25586H4.22772V10.2975H6.19945ZM19.3734 4.11426C20.793 4.11426 21.8761 4.43942 22.6228 5.08973C23.3694 5.72955 23.7427 6.7155 23.7427 8.04759V12.7833H20.9508V11.682C20.5195 12.5106 19.6783 12.9249 18.4269 12.9249C17.7644 12.9249 17.1913 12.8096 16.7076 12.5788C16.2238 12.348 15.8558 12.0386 15.6034 11.6505C15.3615 11.252 15.2406 10.8009 15.2406 10.2975C15.2406 9.48982 15.5508 8.86573 16.1713 8.42519C16.7917 7.97417 17.7487 7.74866 19.0421 7.74866H20.7457C20.6931 6.84662 20.0884 6.39559 18.9317 6.39559C18.5216 6.39559 18.1061 6.46377 17.6856 6.60013C17.2649 6.72599 16.9073 6.9043 16.613 7.13506L15.6034 5.10546C16.0766 4.79079 16.6497 4.54955 17.3228 4.38173C18.0063 4.20342 18.6898 4.11426 19.3734 4.11426ZM19.263 11.0369C19.61 11.0369 19.9149 10.953 20.1778 10.7852C20.4407 10.6173 20.63 10.3709 20.7457 10.0457V9.30626H19.4522C18.5794 9.30626 18.143 9.5947 18.143 10.1716C18.143 10.4338 18.2429 10.6436 18.4427 10.8009C18.6425 10.9583 18.9159 11.0369 19.263 11.0369ZM33.269 12.4372C33.0166 12.5945 32.7064 12.7152 32.3383 12.7991C31.9808 12.8829 31.5969 12.9249 31.1868 12.9249C30.0722 12.9249 29.2151 12.6522 28.6157 12.1068C28.0163 11.5613 27.7166 10.7485 27.7166 9.66813V6.80466H26.4704V4.57053H27.7166V2.35213H30.7136V4.57053H32.6696V6.80466H30.7136V9.63666C30.7136 9.94081 30.7925 10.1821 30.9502 10.3604C31.1185 10.5282 31.3393 10.6121 31.6127 10.6121C31.9597 10.6121 32.2648 10.5229 32.5276 10.3447L33.269 12.4372ZM39.8036 4.11426C41.2232 4.11426 42.3063 4.43942 43.053 5.08973C43.7996 5.72955 44.1729 6.7155 44.1729 8.04759V12.7833H41.381V11.682C40.9497 12.5106 40.1085 12.9249 38.8571 12.9249C38.1946 12.9249 37.6215 12.8096 37.1378 12.5788C36.654 12.348 36.286 12.0386 36.0336 11.6505C35.7917 11.252 35.6708 10.8009 35.6708 10.2975C35.6708 9.48982 35.981 8.86573 36.6015 8.42519C37.2219 7.97417 38.1789 7.74866 39.4723 7.74866H41.1759C41.1233 6.84662 40.5186 6.39559 39.3619 6.39559C38.9518 6.39559 38.5363 6.46377 38.1158 6.60013C37.6951 6.72599 37.3375 6.9043 37.0431 7.13506L36.0336 5.10546C36.5068 4.79079 37.0799 4.54955 37.753 4.38173C38.4365 4.20342 39.12 4.11426 39.8036 4.11426ZM39.6932 11.0369C40.0402 11.0369 40.3451 10.953 40.608 10.7852C40.8709 10.6173 41.0602 10.3709 41.1759 10.0457V9.30626H39.8824C39.0096 9.30626 38.5732 9.5947 38.5732 10.1716C38.5732 10.4338 38.6731 10.6436 38.8729 10.8009C39.0727 10.9583 39.3461 11.0369 39.6932 11.0369ZM58.1477 13.0036C57.2538 13.0036 56.3862 12.8935 55.545 12.6732C54.7038 12.4529 54.0202 12.1592 53.4944 11.7921L54.5197 9.49506C55.0139 9.82022 55.5871 10.0824 56.239 10.2817C56.891 10.481 57.5325 10.5807 58.1635 10.5807C59.3623 10.5807 59.9617 10.2817 59.9617 9.68386C59.9617 9.36919 59.7882 9.13844 59.4411 8.99159C59.1047 8.83426 58.5578 8.67169 57.8007 8.50386C56.9699 8.32555 56.2758 8.13675 55.7185 7.93746C55.1612 7.72769 54.6827 7.39729 54.2831 6.94626C53.8835 6.49524 53.6837 5.88689 53.6837 5.12119C53.6837 4.4499 53.8677 3.84679 54.2358 3.31186C54.6038 2.76644 55.1506 2.33639 55.8762 2.02173C56.6124 1.70706 57.5115 1.54973 58.5736 1.54973C59.2992 1.54973 60.0142 1.63364 60.7188 1.80146C61.4234 1.95879 62.0438 2.19479 62.5801 2.50946L61.6179 4.82226C60.5663 4.25586 59.5463 3.97266 58.5578 3.97266C57.9374 3.97266 57.4852 4.06706 57.2012 4.25586C56.9173 4.43417 56.7754 4.67017 56.7754 4.96386C56.7754 5.25755 56.9436 5.47782 57.2801 5.62466C57.6166 5.7715 58.1582 5.92359 58.9048 6.08093C59.7461 6.25924 60.4401 6.45329 60.987 6.66306C61.5443 6.86235 62.0228 7.1875 62.4224 7.63853C62.8325 8.07906 63.0376 8.68217 63.0376 9.44786C63.0376 10.1087 62.8535 10.7065 62.4855 11.2415C62.1175 11.7764 61.5654 12.2064 60.8292 12.5316C60.0931 12.8463 59.1993 13.0036 58.1477 13.0036ZM70.4428 12.9249C69.4964 12.9249 68.6498 12.7361 67.9032 12.3585C67.1565 11.9809 66.5729 11.4565 66.1523 10.7852C65.7422 10.1139 65.5371 9.35346 65.5371 8.50386C65.5371 7.65426 65.7422 6.89906 66.1523 6.23826C66.5729 5.56697 67.1565 5.04777 67.9032 4.68066C68.6498 4.30306 69.4964 4.11426 70.4428 4.11426C71.4102 4.11426 72.2462 4.32404 72.9508 4.74359C73.6553 5.15266 74.1549 5.7243 74.4494 6.45853L72.1306 7.63853C71.7415 6.87284 71.1736 6.48999 70.427 6.48999C69.8907 6.48999 69.4437 6.6683 69.0863 7.02493C68.7392 7.38155 68.5657 7.87453 68.5657 8.50386C68.5657 9.14369 68.7392 9.64715 69.0863 10.0143C69.4437 10.3709 69.8907 10.5492 70.427 10.5492C71.1736 10.5492 71.7415 10.1664 72.1306 9.40066L74.4494 10.5807C74.1549 11.3149 73.6553 11.8917 72.9508 12.3113C72.2462 12.7204 71.4102 12.9249 70.4428 12.9249ZM77.3129 4.25586H80.3099V12.7833H77.3129V4.25586ZM78.8114 3.31186C78.2646 3.31186 77.8229 3.15977 77.4864 2.85559C77.1499 2.55142 76.9817 2.17382 76.9817 1.72279C76.9817 1.27177 77.1499 0.894172 77.4864 0.589994C77.8229 0.285816 78.2646 0.133728 78.8114 0.133728C79.3583 0.133728 79.7999 0.280572 80.1364 0.574261C80.4729 0.857461 80.6412 1.22457 80.6412 1.67559C80.6412 2.14759 80.4729 2.54093 80.1364 2.85559C79.7999 3.15977 79.3583 3.31186 78.8114 3.31186ZM92.7315 8.53533C92.7315 8.5563 92.7157 8.80279 92.6841 9.27479H86.4692C86.5954 9.71533 86.8374 10.0562 87.1948 10.2975C87.563 10.5282 88.0204 10.6436 88.5672 10.6436C88.9773 10.6436 89.3296 10.5859 89.624 10.4705C89.929 10.3552 90.234 10.1664 90.5389 9.90413L92.1163 11.5404C91.2856 12.4634 90.071 12.9249 88.4725 12.9249C87.4735 12.9249 86.5954 12.7361 85.8383 12.3585C85.0811 11.9809 84.4923 11.4565 84.0716 10.7852C83.6615 10.1139 83.4564 9.35346 83.4564 8.50386C83.4564 7.66475 83.6563 6.91479 84.0558 6.25399C84.466 5.5827 85.0286 5.05826 85.7436 4.68066C86.4588 4.30306 87.2633 4.11426 88.157 4.11426C89.0088 4.11426 89.7817 4.29257 90.4758 4.64919C91.1698 4.99533 91.7167 5.50404 92.1163 6.17533C92.5264 6.83613 92.7315 7.6228 92.7315 8.53533ZM88.1728 6.23826C87.7101 6.23826 87.321 6.36937 87.0055 6.63159C86.7006 6.89382 86.5061 7.25044 86.4219 7.70146H89.9237C89.8396 7.25044 89.6398 6.89382 89.3243 6.63159C89.0194 6.36937 88.6356 6.23826 88.1728 6.23826ZM101.416 4.11426C102.479 4.11426 103.331 4.42893 103.972 5.05826C104.624 5.68759 104.95 6.63684 104.95 7.90599V12.7833H101.953V8.39373C101.953 7.22946 101.485 6.64733 100.549 6.64733C100.034 6.64733 99.6181 6.81515 99.3026 7.15079C98.998 7.48644 98.8452 7.9899 98.8452 8.66119V12.7833H95.8484V4.25586H98.7032V5.18413C99.0404 4.83799 99.4397 4.57577 99.902 4.39746C100.365 4.20866 100.87 4.11426 101.416 4.11426ZM113.059 12.9249C112.113 12.9249 111.266 12.7361 110.52 12.3585C109.774 11.9809 109.19 11.4565 108.769 10.7852C108.359 10.1139 108.154 9.35346 108.154 8.50386C108.154 7.65426 108.359 6.89906 108.769 6.23826C109.19 5.56697 109.774 5.04777 110.52 4.68066C111.266 4.30306 112.113 4.11426 113.059 4.11426C114.027 4.11426 114.863 4.32404 115.567 4.74359C116.272 5.15266 116.771 5.7243 117.066 6.45853L114.747 7.63853C114.358 6.87284 113.79 6.48999 113.044 6.48999C112.507 6.48999 112.061 6.6683 111.703 7.02493C111.356 7.38155 111.182 7.87453 111.182 8.50386C111.182 9.14369 111.356 9.64715 111.703 10.0143C112.061 10.3709 112.507 10.5492 113.044 10.5492C113.79 10.5492 114.358 10.1664 114.747 9.40066L117.066 10.5807C116.771 11.3149 116.272 11.8917 115.567 12.3113C114.863 12.7204 114.027 12.9249 113.059 12.9249ZM128.576 8.53533C128.576 8.5563 128.56 8.80279 128.529 9.27479H122.314C122.44 9.71533 122.681 10.0562 123.039 10.2975C123.407 10.5282 123.865 10.6436 124.412 10.6436C124.822 10.6436 125.174 10.5859 125.469 10.4705C125.773 10.3552 126.078 10.1664 126.383 9.90413L127.961 11.5404C127.13 12.4634 125.915 12.9249 124.317 12.9249C123.317 12.9249 122.44 12.7361 121.683 12.3585C120.926 11.9809 120.336 11.4565 119.916 10.7852C119.506 10.1139 119.301 9.35346 119.301 8.50386C119.301 7.66475 119.5 6.91479 119.9 6.25399C120.31 5.5827 120.872 5.05826 121.588 4.68066C122.303 4.30306 123.107 4.11426 124.002 4.11426C124.853 4.11426 125.626 4.29257 126.32 4.64919C127.014 4.99533 127.561 5.50404 127.961 6.17533C128.371 6.83613 128.576 7.6228 128.576 8.53533ZM124.017 6.23826C123.554 6.23826 123.166 6.36937 122.85 6.63159C122.544 6.89382 122.35 7.25044 122.266 7.70146H125.768C125.683 7.25044 125.484 6.89382 125.169 6.63159C124.863 6.36937 124.48 6.23826 124.017 6.23826Z" fill="#151E36"/>
</g>
<defs>
<clipPath id="clip0">
<rect width="251" height="59" fill="white"/>
</clipPath>
</defs>
</svg>
