<svg width="260" height="43" viewBox="0 0 260 43" fill="none" xmlns="http://www.w3.org/2000/svg">
<path d="M13.3751 18L8.6251 11.35L3.9251 18H0.225098L6.7251 9.075L0.575098 0.5H4.2501L8.7251 6.725L13.1501 0.5H16.6751L10.5501 8.95L17.1251 18H13.3751ZM36.1493 18.25C34.3827 18.25 32.7827 17.8667 31.3493 17.1C29.9327 16.3167 28.816 15.2417 27.9993 13.875C27.1993 12.5083 26.7993 10.9667 26.7993 9.25C26.7993 7.5333 27.2077 5.9917 28.0243 4.625C28.841 3.25833 29.9577 2.19167 31.3743 1.425C32.8077 0.64167 34.4077 0.25 36.1743 0.25C37.6077 0.25 38.916 0.5 40.0993 1C41.2827 1.5 42.2827 2.225 43.0993 3.175L40.9993 5.15C39.7327 3.78333 38.1743 3.1 36.3243 3.1C35.1243 3.1 34.0493 3.36667 33.0993 3.9C32.1493 4.4167 31.4077 5.1417 30.8743 6.075C30.341 7.0083 30.0743 8.0667 30.0743 9.25C30.0743 10.4333 30.341 11.4917 30.8743 12.425C31.4077 13.3583 32.1493 14.0917 33.0993 14.625C34.0493 15.1417 35.1243 15.4 36.3243 15.4C38.1743 15.4 39.7327 14.7083 40.9993 13.325L43.0993 15.325C42.2827 16.275 41.2743 17 40.0743 17.5C38.891 18 37.5827 18.25 36.1493 18.25ZM68.3384 15.275V18H55.2134V0.5H67.9884V3.225H58.4634V7.775H66.9134V10.45H58.4634V15.275H68.3384ZM80.9614 0.5H84.2114V15.25H93.3614V18H80.9614V0.5ZM118.052 15.275V18H104.927V0.5H117.702V3.225H108.177V7.775H116.627V10.45H108.177V15.275H118.052ZM142.125 18L138.55 12.875C138.4 12.8917 138.175 12.9 137.875 12.9H133.925V18H130.675V0.5H137.875C139.392 0.5 140.709 0.75 141.825 1.25C142.959 1.75 143.825 2.46667 144.425 3.4C145.025 4.3333 145.325 5.4417 145.325 6.725C145.325 8.0417 145 9.175 144.35 10.125C143.717 11.075 142.8 11.7833 141.6 12.25L145.625 18H142.125ZM142.05 6.725C142.05 5.6083 141.684 4.75 140.95 4.15C140.217 3.55 139.142 3.25 137.725 3.25H133.925V10.225H137.725C139.142 10.225 140.217 9.925 140.95 9.325C141.684 8.7083 142.05 7.8417 142.05 6.725ZM169.311 13.95H160.561L158.836 18H155.486L163.361 0.5H166.561L174.461 18H171.061L169.311 13.95ZM168.236 11.4L164.936 3.75L161.661 11.4H168.236ZM188.358 3.25H182.558V0.5H197.408V3.25H191.608V18H188.358V3.25ZM216.778 18.25C214.995 18.25 213.386 17.8667 211.953 17.1C210.52 16.3167 209.395 15.2417 208.578 13.875C207.761 12.4917 207.353 10.95 207.353 9.25C207.353 7.55 207.761 6.0167 208.578 4.65C209.395 3.26667 210.52 2.19167 211.953 1.425C213.386 0.64167 214.995 0.25 216.778 0.25C218.561 0.25 220.17 0.64167 221.603 1.425C223.036 2.19167 224.161 3.25833 224.978 4.625C225.795 5.9917 226.203 7.5333 226.203 9.25C226.203 10.9667 225.795 12.5083 224.978 13.875C224.161 15.2417 223.036 16.3167 221.603 17.1C220.17 17.8667 218.561 18.25 216.778 18.25ZM216.778 15.4C217.945 15.4 218.995 15.1417 219.928 14.625C220.861 14.0917 221.595 13.3583 222.128 12.425C222.661 11.475 222.928 10.4167 222.928 9.25C222.928 8.0833 222.661 7.0333 222.128 6.1C221.595 5.15 220.861 4.4167 219.928 3.9C218.995 3.36667 217.945 3.1 216.778 3.1C215.611 3.1 214.561 3.36667 213.628 3.9C212.695 4.4167 211.961 5.15 211.428 6.1C210.895 7.0333 210.628 8.0833 210.628 9.25C210.628 10.4167 210.895 11.475 211.428 12.425C211.961 13.3583 212.695 14.0917 213.628 14.625C214.561 15.1417 215.611 15.4 216.778 15.4ZM250.098 18L246.523 12.875C246.373 12.8917 246.148 12.9 245.848 12.9H241.898V18H238.648V0.5H245.848C247.365 0.5 248.681 0.75 249.798 1.25C250.931 1.75 251.798 2.46667 252.398 3.4C252.998 4.3333 253.298 5.4417 253.298 6.725C253.298 8.0417 252.973 9.175 252.323 10.125C251.69 11.075 250.773 11.7833 249.573 12.25L253.598 18H250.098ZM250.023 6.725C250.023 5.6083 249.656 4.75 248.923 4.15C248.19 3.55 247.115 3.25 245.698 3.25H241.898V10.225H245.698C247.115 10.225 248.19 9.925 248.923 9.325C249.656 8.7083 250.023 7.8417 250.023 6.725Z" fill="white"/>
<path d="M6.63476 32.6401C6.63476 33.5028 6.34179 34.164 5.75586 34.6238C5.16992 35.0836 4.33984 35.3135 3.26562 35.3135H1.88623V39H1.26367V30.0767H3.44873C5.57275 30.0767 6.63476 30.9312 6.63476 32.6401ZM1.88623 34.7764H3.11303C4.11808 34.7764 4.8444 34.6116 5.29199 34.282C5.73958 33.9483 5.96337 33.4092 5.96337 32.6646C5.96337 31.9769 5.75179 31.4683 5.32861 31.1387C4.90543 30.805 4.25032 30.6382 3.36328 30.6382H1.88623V34.7764ZM15.2851 35.6736C15.2851 36.7559 15.0227 37.6023 14.4978 38.2126C13.9729 38.8189 13.2486 39.1221 12.3249 39.1221C11.743 39.1221 11.2303 38.9817 10.7868 38.7009C10.3433 38.4202 10.0035 38.0173 9.76757 37.4924C9.53157 36.9675 9.41357 36.3612 9.41357 35.6736C9.41357 34.5912 9.67602 33.7489 10.2009 33.1467C10.7258 32.5404 11.446 32.2373 12.3615 32.2373C13.273 32.2373 13.9871 32.5445 14.5039 33.1589C15.0247 33.7693 15.2851 34.6075 15.2851 35.6736ZM10.0483 35.6736C10.0483 36.585 10.2477 37.2971 10.6464 37.8098C11.0493 38.3184 11.6169 38.5728 12.3493 38.5728C13.0817 38.5728 13.6473 38.3184 14.0461 37.8098C14.4489 37.2971 14.6503 36.585 14.6503 35.6736C14.6503 34.7581 14.4469 34.048 14.04 33.5435C13.6372 33.0389 13.0695 32.7866 12.3371 32.7866C11.6047 32.7866 11.0391 33.0389 10.6403 33.5435C10.2456 34.0439 10.0483 34.754 10.0483 35.6736ZM23.8012 39L22.3486 34.5627C22.255 34.2616 22.135 33.8201 21.9885 33.2383H21.9519L21.8237 33.6899L21.549 34.575L20.072 39H19.4738L17.5756 32.3655H18.2226L19.2846 36.2107C19.5328 37.1628 19.6956 37.8627 19.7729 38.3103H19.8095C20.0496 37.3582 20.2246 36.7254 20.3344 36.4121L21.7016 32.3655H22.2509L23.551 36.3999C23.844 37.3561 24.023 37.9889 24.0881 38.2981H24.1247C24.1573 38.0336 24.32 37.3256 24.613 36.1741L25.6262 32.3655H26.2365L24.436 39H23.8012ZM31.5971 39.1221C30.6328 39.1221 29.88 38.825 29.3388 38.231C28.8017 37.6369 28.5332 36.8048 28.5332 35.7346C28.5332 34.6767 28.7936 33.8303 29.3144 33.1956C29.8352 32.5567 30.5371 32.2373 31.4201 32.2373C32.2014 32.2373 32.8178 32.5099 33.2695 33.0552C33.7211 33.6004 33.947 34.341 33.947 35.2769V35.7651H29.1679C29.1761 36.6766 29.3877 37.3724 29.8027 37.8525C30.2218 38.3327 30.8199 38.5728 31.5971 38.5728C31.9755 38.5728 32.3072 38.5463 32.592 38.4934C32.8809 38.4405 33.2451 38.3266 33.6845 38.1516V38.7009C33.3102 38.8637 32.9643 38.9736 32.6469 39.0305C32.3295 39.0916 31.9796 39.1221 31.5971 39.1221ZM31.4201 32.7744C30.7813 32.7744 30.2686 32.986 29.882 33.4092C29.4955 33.8283 29.2696 34.4346 29.2045 35.228H33.3061C33.3061 34.459 33.1393 33.8588 32.8056 33.4275C32.472 32.9921 32.0101 32.7744 31.4201 32.7744ZM39.7653 32.2373C40.0461 32.2373 40.3472 32.2658 40.6687 32.3228L40.5527 32.9026C40.276 32.8334 39.9891 32.7988 39.6921 32.7988C39.1265 32.7988 38.6626 33.0389 38.3005 33.519C37.9384 33.9992 37.7573 34.6055 37.7573 35.3379V39H37.153V32.3655H37.6657L37.7268 33.5618H37.7695C38.0421 33.0735 38.333 32.7317 38.6423 32.5364C38.9515 32.337 39.3259 32.2373 39.7653 32.2373ZM46.0781 39.1221C45.1137 39.1221 44.361 38.825 43.8198 38.231C43.2827 37.6369 43.0141 36.8048 43.0141 35.7346C43.0141 34.6767 43.2745 33.8303 43.7954 33.1956C44.3162 32.5567 45.0181 32.2373 45.9011 32.2373C46.6823 32.2373 47.2988 32.5099 47.7504 33.0552C48.2021 33.6004 48.4279 34.341 48.4279 35.2769V35.7651H43.6489C43.657 36.6766 43.8686 37.3724 44.2836 37.8525C44.7028 38.3327 45.3009 38.5728 46.0781 38.5728C46.4565 38.5728 46.7881 38.5463 47.073 38.4934C47.3619 38.4405 47.726 38.3266 48.1655 38.1516V38.7009C47.7911 38.8637 47.4453 38.9736 47.1279 39.0305C46.8105 39.0916 46.4606 39.1221 46.0781 39.1221ZM45.9011 32.7744C45.2622 32.7744 44.7495 32.986 44.363 33.4092C43.9764 33.8283 43.7506 34.4346 43.6855 35.228H47.7871C47.7871 34.459 47.6202 33.8588 47.2866 33.4275C46.9529 32.9921 46.4911 32.7744 45.9011 32.7744ZM54.0632 32.2373C54.5433 32.2373 54.9584 32.3248 55.3083 32.4998C55.6582 32.6747 55.9716 32.9738 56.2482 33.397H56.2849C56.2605 32.8843 56.2482 32.3818 56.2482 31.8894V29.5029H56.8464V39H56.4497L56.2971 37.9868H56.2482C55.7437 38.7437 55.0194 39.1221 54.0754 39.1221C53.1599 39.1221 52.46 38.8372 51.9758 38.2676C51.4916 37.6979 51.2495 36.8678 51.2495 35.7773C51.2495 34.6299 51.4895 33.753 51.9697 33.1467C52.4498 32.5404 53.1477 32.2373 54.0632 32.2373ZM54.0632 32.7866C53.3389 32.7866 52.7937 33.0409 52.4274 33.5496C52.0653 34.0582 51.8842 34.7967 51.8842 35.7651C51.8842 37.645 52.6146 38.585 54.0754 38.585C54.8241 38.585 55.3734 38.3673 55.7233 37.9319C56.0733 37.4965 56.2482 36.7783 56.2482 35.7773V35.6736C56.2482 34.6482 56.0753 33.9117 55.7294 33.4641C55.3877 33.0125 54.8322 32.7866 54.0632 32.7866ZM67.8789 32.2373C68.8066 32.2373 69.5044 32.5303 69.9724 33.1162C70.4444 33.6981 70.6804 34.5505 70.6804 35.6736C70.6804 36.7763 70.4322 37.6267 69.9357 38.2249C69.4434 38.823 68.7496 39.1221 67.8544 39.1221C67.3824 39.1221 66.9572 39.0244 66.5788 38.8291C66.2004 38.6338 65.9013 38.3571 65.6816 37.999H65.6267L65.4558 39H65.0773V29.5029H65.6816V31.8894C65.6816 32.2475 65.6735 32.5771 65.6572 32.8782L65.6389 33.397H65.6816C65.9339 32.9982 66.237 32.7052 66.591 32.5181C66.9491 32.3309 67.3784 32.2373 67.8789 32.2373ZM67.8667 32.7866C67.0854 32.7866 66.5259 33.0104 66.1882 33.458C65.8505 33.9056 65.6816 34.6441 65.6816 35.6736V35.7773C65.6816 36.7783 65.8566 37.4965 66.2065 37.9319C66.5605 38.3673 67.1098 38.585 67.8544 38.585C68.5787 38.585 69.124 38.3327 69.4902 37.8281C69.8564 37.3195 70.0395 36.5972 70.0395 35.6614C70.0395 33.7449 69.3152 32.7866 67.8667 32.7866ZM72.7878 32.3655H73.4104L74.8142 36.0886C75.2414 37.232 75.512 38.0031 75.6259 38.4019H75.6626C75.8335 37.877 76.1122 37.0937 76.4987 36.052L77.9025 32.3655H78.5251L75.5527 40.0742C75.3126 40.7008 75.1112 41.124 74.9484 41.3438C74.7857 41.5635 74.5944 41.7283 74.3747 41.8381C74.1591 41.948 73.8966 42.0029 73.5874 42.0029C73.3554 42.0029 73.097 41.9602 72.8122 41.8748V41.3499C73.0482 41.415 73.3025 41.4475 73.5752 41.4475C73.7827 41.4475 73.9658 41.3987 74.1245 41.301C74.2832 41.2034 74.4256 41.0508 74.5517 40.8433C74.6819 40.6398 74.8304 40.3143 74.9973 39.8667C75.1682 39.4232 75.278 39.1343 75.3269 39L72.7878 32.3655ZM90.0825 35.8506H86.457L85.2119 39H84.5222L88.111 30.04H88.5078L92.0234 39H91.3215L90.0825 35.8506ZM86.6828 35.2891H89.875L88.6604 32.0725C88.5586 31.8202 88.4366 31.4703 88.2941 31.0227C88.1843 31.4133 88.0642 31.7673 87.934 32.0847L86.6828 35.2891ZM96.9812 32.8904H95.4187V39H94.8144V32.8904H93.5815V32.5364L94.8144 32.3105V31.7979C94.8144 30.984 94.9629 30.3879 95.26 30.0095C95.5611 29.627 96.0514 29.4358 96.7309 29.4358C97.0971 29.4358 97.4633 29.4907 97.8295 29.6006L97.6892 30.1255C97.3636 30.0238 97.0402 29.9729 96.7187 29.9729C96.2467 29.9729 95.911 30.1133 95.7116 30.394C95.5163 30.6707 95.4187 31.1224 95.4187 31.749V32.3655H96.9812V32.8904ZM102.25 32.2373C102.531 32.2373 102.832 32.2658 103.153 32.3228L103.037 32.9026C102.761 32.8334 102.474 32.7988 102.177 32.7988C101.611 32.7988 101.147 33.0389 100.785 33.519C100.423 33.9992 100.242 34.6055 100.242 35.3379V39H99.6379V32.3655H100.15L100.211 33.5618H100.254C100.527 33.0735 100.818 32.7317 101.127 32.5364C101.436 32.337 101.811 32.2373 102.25 32.2373ZM106.488 39H105.883V32.3655H106.488V39ZM105.798 30.5222C105.798 30.1316 105.926 29.9363 106.182 29.9363C106.309 29.9363 106.406 29.9871 106.475 30.0889C106.549 30.1906 106.585 30.335 106.585 30.5222C106.585 30.7053 106.549 30.8498 106.475 30.9556C106.406 31.0614 106.309 31.1143 106.182 31.1143C105.926 31.1143 105.798 30.9169 105.798 30.5222ZM112.739 39.1221C111.791 39.1221 111.049 38.823 110.511 38.2249C109.974 37.6267 109.706 36.7926 109.706 35.7224C109.706 34.6238 109.985 33.7693 110.542 33.1589C111.099 32.5445 111.862 32.2373 112.831 32.2373C113.405 32.2373 113.954 32.337 114.479 32.5364L114.314 33.0735C113.74 32.8822 113.242 32.7866 112.819 32.7866C112.005 32.7866 111.388 33.0389 110.969 33.5435C110.55 34.0439 110.341 34.7662 110.341 35.7102C110.341 36.6054 110.55 37.3073 110.969 37.8159C111.388 38.3205 111.974 38.5728 112.727 38.5728C113.329 38.5728 113.889 38.4649 114.406 38.2493V38.8108C113.982 39.0183 113.427 39.1221 112.739 39.1221ZM121.438 39L121.286 37.9502H121.237C120.903 38.3774 120.56 38.6806 120.206 38.8596C119.856 39.0346 119.441 39.1221 118.96 39.1221C118.309 39.1221 117.803 38.9552 117.441 38.6216C117.079 38.2879 116.897 37.8261 116.897 37.2361C116.897 36.5891 117.166 36.0866 117.703 35.7285C118.244 35.3704 119.026 35.1812 120.047 35.1609L121.31 35.1243V34.6848C121.31 34.0541 121.182 33.578 120.926 33.2566C120.669 32.9351 120.256 32.7744 119.687 32.7744C119.072 32.7744 118.436 32.9453 117.776 33.2871L117.551 32.7622C118.279 32.4204 118.999 32.2495 119.711 32.2495C120.44 32.2495 120.983 32.4387 121.341 32.8171C121.703 33.1956 121.884 33.7856 121.884 34.5872V39H121.438ZM118.997 38.5728C119.705 38.5728 120.263 38.3713 120.669 37.9685C121.08 37.5616 121.286 36.998 121.286 36.2778V35.6248L120.126 35.6736C119.194 35.7183 118.529 35.8648 118.13 36.113C117.736 36.3572 117.538 36.7397 117.538 37.2605C117.538 37.6755 117.664 37.999 117.917 38.231C118.173 38.4588 118.533 38.5728 118.997 38.5728ZM130.04 39V34.697C130.04 34.0297 129.9 33.5455 129.619 33.2444C129.338 32.9392 128.903 32.7866 128.313 32.7866C127.519 32.7866 126.937 32.988 126.567 33.3909C126.201 33.7896 126.018 34.4386 126.018 35.3379V39H125.414V32.3655H125.926L126.042 33.2749H126.079C126.51 32.5832 127.277 32.2373 128.38 32.2373C129.885 32.2373 130.638 33.045 130.638 34.6604V39H130.04ZM138.936 39V30.0767H139.559V38.4141H143.813V39H138.936ZM149.259 39.1221C148.295 39.1221 147.542 38.825 147.001 38.231C146.464 37.6369 146.195 36.8048 146.195 35.7346C146.195 34.6767 146.455 33.8303 146.976 33.1956C147.497 32.5567 148.199 32.2373 149.082 32.2373C149.863 32.2373 150.48 32.5099 150.931 33.0552C151.383 33.6004 151.609 34.341 151.609 35.2769V35.7651H146.83C146.838 36.6766 147.05 37.3724 147.465 37.8525C147.884 38.3327 148.482 38.5728 149.259 38.5728C149.637 38.5728 149.969 38.5463 150.254 38.4934C150.543 38.4405 150.907 38.3266 151.346 38.1516V38.7009C150.972 38.8637 150.626 38.9736 150.309 39.0305C149.991 39.0916 149.642 39.1221 149.259 39.1221ZM149.082 32.7744C148.443 32.7744 147.931 32.986 147.544 33.4092C147.157 33.8283 146.932 34.4346 146.866 35.228H150.968C150.968 34.459 150.801 33.8588 150.468 33.4275C150.134 32.9921 149.672 32.7744 149.082 32.7744ZM158.843 39L158.691 37.9502H158.642C158.308 38.3774 157.964 38.6806 157.61 38.8596C157.26 39.0346 156.845 39.1221 156.365 39.1221C155.714 39.1221 155.208 38.9552 154.845 38.6216C154.483 38.2879 154.302 37.8261 154.302 37.2361C154.302 36.5891 154.571 36.0866 155.108 35.7285C155.649 35.3704 156.43 35.1812 157.452 35.1609L158.715 35.1243V34.6848C158.715 34.0541 158.587 33.578 158.331 33.2566C158.074 32.9351 157.661 32.7744 157.092 32.7744C156.477 32.7744 155.84 32.9453 155.181 33.2871L154.955 32.7622C155.684 32.4204 156.404 32.2495 157.116 32.2495C157.844 32.2495 158.388 32.4387 158.746 32.8171C159.108 33.1956 159.289 33.7856 159.289 34.5872V39H158.843ZM156.402 38.5728C157.11 38.5728 157.667 38.3713 158.074 37.9685C158.485 37.5616 158.691 36.998 158.691 36.2778V35.6248L157.531 35.6736C156.599 35.7183 155.934 35.8648 155.535 36.113C155.14 36.3572 154.943 36.7397 154.943 37.2605C154.943 37.6755 155.069 37.999 155.322 38.231C155.578 38.4588 155.938 38.5728 156.402 38.5728ZM165.248 32.2373C165.728 32.2373 166.143 32.3248 166.493 32.4998C166.843 32.6747 167.156 32.9738 167.433 33.397H167.469C167.445 32.8843 167.433 32.3818 167.433 31.8894V29.5029H168.031V39H167.634L167.481 37.9868H167.433C166.928 38.7437 166.204 39.1221 165.26 39.1221C164.344 39.1221 163.644 38.8372 163.16 38.2676C162.676 37.6979 162.434 36.8678 162.434 35.7773C162.434 34.6299 162.674 33.753 163.154 33.1467C163.634 32.5404 164.332 32.2373 165.248 32.2373ZM165.248 32.7866C164.523 32.7866 163.978 33.0409 163.612 33.5496C163.25 34.0582 163.069 34.7967 163.069 35.7651C163.069 37.645 163.799 38.585 165.26 38.585C166.008 38.585 166.558 38.3673 166.908 37.9319C167.258 37.4965 167.433 36.7783 167.433 35.7773V35.6736C167.433 34.6482 167.26 33.9117 166.914 33.4641C166.572 33.0125 166.017 32.7866 165.248 32.7866ZM174.319 39.1221C173.355 39.1221 172.602 38.825 172.061 38.231C171.524 37.6369 171.255 36.8048 171.255 35.7346C171.255 34.6767 171.516 33.8303 172.036 33.1956C172.557 32.5567 173.259 32.2373 174.142 32.2373C174.923 32.2373 175.54 32.5099 175.991 33.0552C176.443 33.6004 176.669 34.341 176.669 35.2769V35.7651H171.89C171.898 36.6766 172.11 37.3724 172.525 37.8525C172.944 38.3327 173.542 38.5728 174.319 38.5728C174.698 38.5728 175.029 38.5463 175.314 38.4934C175.603 38.4405 175.967 38.3266 176.406 38.1516V38.7009C176.032 38.8637 175.686 38.9736 175.369 39.0305C175.052 39.0916 174.702 39.1221 174.319 39.1221ZM174.142 32.7744C173.503 32.7744 172.991 32.986 172.604 33.4092C172.217 33.8283 171.992 34.4346 171.927 35.228H176.028C176.028 34.459 175.861 33.8588 175.528 33.4275C175.194 32.9921 174.732 32.7744 174.142 32.7744ZM182.487 32.2373C182.768 32.2373 183.069 32.2658 183.391 32.3228L183.275 32.9026C182.998 32.8334 182.711 32.7988 182.414 32.7988C181.848 32.7988 181.385 33.0389 181.022 33.519C180.66 33.9992 180.479 34.6055 180.479 35.3379V39H179.875V32.3655H180.388L180.449 33.5618H180.491C180.764 33.0735 181.055 32.7317 181.364 32.5364C181.674 32.337 182.048 32.2373 182.487 32.2373ZM190.234 37.2727C190.234 37.8668 190.009 38.3245 189.557 38.646C189.105 38.9634 188.464 39.1221 187.634 39.1221C186.747 39.1221 186.043 38.9858 185.522 38.7131V38.0601C186.19 38.3937 186.894 38.5605 187.634 38.5605C188.289 38.5605 188.786 38.4527 189.124 38.2371C189.465 38.0173 189.636 37.7264 189.636 37.3643C189.636 37.0306 189.5 36.7498 189.227 36.522C188.959 36.2941 188.515 36.0703 187.897 35.8506C187.233 35.6105 186.768 35.405 186.499 35.2341C186.23 35.0592 186.027 34.8639 185.889 34.6482C185.754 34.4285 185.687 34.1619 185.687 33.8486C185.687 33.3522 185.895 32.9596 186.31 32.6707C186.729 32.3818 187.313 32.2373 188.062 32.2373C188.778 32.2373 189.457 32.3716 190.1 32.6401L189.874 33.1895C189.223 32.9209 188.619 32.7866 188.062 32.7866C187.52 32.7866 187.091 32.8761 186.774 33.0552C186.456 33.2342 186.298 33.4824 186.298 33.7998C186.298 34.1457 186.42 34.4224 186.664 34.6299C186.912 34.8374 187.394 35.0693 188.11 35.3257C188.708 35.5413 189.144 35.7367 189.417 35.9116C189.689 36.0825 189.893 36.2778 190.027 36.4976C190.165 36.7173 190.234 36.9757 190.234 37.2727ZM197.945 39V34.697C197.945 34.0297 197.804 33.5455 197.524 33.2444C197.243 32.9392 196.808 32.7866 196.218 32.7866C195.424 32.7866 194.842 32.988 194.472 33.3909C194.106 33.7896 193.923 34.4386 193.923 35.3379V39H193.318V29.5029H193.923V32.5242L193.892 33.3726H193.935C194.183 32.9738 194.496 32.6849 194.875 32.5059C195.253 32.3268 195.723 32.2373 196.285 32.2373C197.79 32.2373 198.543 33.045 198.543 34.6604V39H197.945ZM202.671 39H202.066V32.3655H202.671V39ZM201.981 30.5222C201.981 30.1316 202.109 29.9363 202.365 29.9363C202.492 29.9363 202.589 29.9871 202.658 30.0889C202.732 30.1906 202.768 30.335 202.768 30.5222C202.768 30.7053 202.732 30.8498 202.658 30.9556C202.589 31.0614 202.492 31.1143 202.365 31.1143C202.109 31.1143 201.981 30.9169 201.981 30.5222ZM209.112 39.1221C208.09 39.1221 207.346 38.7396 206.878 37.9746H206.835L206.853 38.4873C206.87 38.7884 206.878 39.118 206.878 39.4761V42.0029H206.273V32.3655H206.786L206.902 33.3115H206.939C207.394 32.5954 208.123 32.2373 209.124 32.2373C210.019 32.2373 210.701 32.5323 211.168 33.1223C211.64 33.7083 211.876 34.5627 211.876 35.6858C211.876 36.7763 211.628 37.6226 211.132 38.2249C210.639 38.823 209.966 39.1221 209.112 39.1221ZM209.099 38.585C209.779 38.585 210.304 38.3327 210.674 37.8281C211.048 37.3236 211.236 36.6176 211.236 35.7102C211.236 33.7611 210.532 32.7866 209.124 32.7866C208.351 32.7866 207.783 33.0002 207.421 33.4275C207.059 33.8507 206.878 34.5424 206.878 35.5027V35.698C206.878 36.7356 207.051 37.4762 207.396 37.9197C207.746 38.3632 208.314 38.585 209.099 38.585ZM223.379 34.5017H226.669V38.5728C225.806 38.939 224.836 39.1221 223.757 39.1221C222.349 39.1221 221.269 38.7253 220.516 37.9319C219.768 37.1344 219.393 36.0072 219.393 34.5505C219.393 33.6431 219.578 32.8395 219.949 32.1396C220.323 31.4357 220.856 30.8925 221.548 30.51C222.244 30.1275 223.041 29.9363 223.94 29.9363C224.913 29.9363 225.786 30.1153 226.559 30.4734L226.309 31.0349C225.535 30.6768 224.734 30.4978 223.904 30.4978C222.728 30.4978 221.794 30.862 221.102 31.5903C220.415 32.3146 220.071 33.2932 220.071 34.5261C220.071 35.8689 220.398 36.88 221.053 37.5596C221.709 38.235 222.671 38.5728 223.94 38.5728C224.762 38.5728 225.46 38.4568 226.034 38.2249V35.0876H223.379V34.5017ZM232.75 32.2373C233.03 32.2373 233.331 32.2658 233.653 32.3228L233.537 32.9026C233.26 32.8334 232.973 32.7988 232.676 32.7988C232.111 32.7988 231.647 33.0389 231.285 33.519C230.923 33.9992 230.741 34.6055 230.741 35.3379V39H230.137V32.3655H230.65L230.711 33.5618H230.754C231.026 33.0735 231.317 32.7317 231.626 32.5364C231.936 32.337 232.31 32.2373 232.75 32.2373ZM241.87 35.6736C241.87 36.7559 241.607 37.6023 241.083 38.2126C240.558 38.8189 239.833 39.1221 238.91 39.1221C238.328 39.1221 237.815 38.9817 237.372 38.7009C236.928 38.4202 236.588 38.0173 236.352 37.4924C236.116 36.9675 235.998 36.3612 235.998 35.6736C235.998 34.5912 236.261 33.7489 236.786 33.1467C237.311 32.5404 238.031 32.2373 238.946 32.2373C239.858 32.2373 240.572 32.5445 241.089 33.1589C241.609 33.7693 241.87 34.6075 241.87 35.6736ZM236.633 35.6736C236.633 36.585 236.832 37.2971 237.231 37.8098C237.634 38.3184 238.202 38.5728 238.934 38.5728C239.667 38.5728 240.232 38.3184 240.631 37.8098C241.034 37.2971 241.235 36.585 241.235 35.6736C241.235 34.7581 241.032 34.048 240.625 33.5435C240.222 33.0389 239.654 32.7866 238.922 32.7866C238.189 32.7866 237.624 33.0389 237.225 33.5435C236.83 34.0439 236.633 34.754 236.633 35.6736ZM245.607 32.3655V36.6624C245.607 37.3297 245.747 37.8159 246.028 38.1211C246.309 38.4222 246.744 38.5728 247.334 38.5728C248.124 38.5728 248.703 38.3734 249.074 37.9746C249.448 37.5758 249.635 36.9268 249.635 36.0276V32.3655H250.233V39H249.721L249.611 38.0845H249.574C249.143 38.7762 248.376 39.1221 247.273 39.1221C245.764 39.1221 245.009 38.3144 245.009 36.699V32.3655H245.607ZM256.668 39.1221C255.647 39.1221 254.902 38.7396 254.434 37.9746H254.392L254.41 38.4873C254.426 38.7884 254.434 39.118 254.434 39.4761V42.0029H253.83V32.3655H254.343L254.459 33.3115H254.495C254.951 32.5954 255.679 32.2373 256.68 32.2373C257.576 32.2373 258.257 32.5323 258.725 33.1223C259.197 33.7083 259.433 34.5627 259.433 35.6858C259.433 36.7763 259.185 37.6226 258.688 38.2249C258.196 38.823 257.523 39.1221 256.668 39.1221ZM256.656 38.585C257.336 38.585 257.86 38.3327 258.231 37.8281C258.605 37.3236 258.792 36.6176 258.792 35.7102C258.792 33.7611 258.088 32.7866 256.68 32.7866C255.907 32.7866 255.34 33.0002 254.978 33.4275C254.615 33.8507 254.434 34.5424 254.434 35.5027V35.698C254.434 36.7356 254.607 37.4762 254.953 37.9197C255.303 38.3632 255.871 38.585 256.656 38.585Z" fill="white"/>
</svg>
