<svg width="245" height="38" viewBox="0 0 245 38" fill="none" xmlns="http://www.w3.org/2000/svg">
<path d="M12.7155 17.4051L8.12242 10.8843L3.57773 17.4051H0L6.2852 8.65354L0.338434 0.245143H3.89199L8.21911 6.3492L12.4979 0.245143H15.9064L9.9838 8.53097L16.3415 17.4051H12.7155Z" fill="#151E36"/>
<path d="M34.7371 17.6503C33.0288 17.6503 31.4817 17.2744 30.0957 16.5226C28.7258 15.7545 27.6461 14.7004 26.8564 13.3603C26.0828 12.0202 25.6961 10.5085 25.6961 8.82514C25.6961 7.14183 26.0909 5.63011 26.8806 4.29C27.6703 2.94988 28.75 1.90394 30.1199 1.15217C31.5058 0.384057 33.053 0 34.7613 0C36.1472 0 37.4123 0.245143 38.5565 0.735429C39.7008 1.22571 40.6677 1.93663 41.4574 2.86817L39.4268 4.8048C38.202 3.46469 36.6952 2.79463 34.9063 2.79463C33.746 2.79463 32.7065 3.05611 31.7879 3.57908C30.8693 4.08571 30.1521 4.79663 29.6364 5.71183C29.1207 6.62703 28.8628 7.6648 28.8628 8.82514C28.8628 9.98548 29.1207 11.0233 29.6364 11.9385C30.1521 12.8537 30.8693 13.5727 31.7879 14.0957C32.7065 14.6023 33.746 14.8557 34.9063 14.8557C36.6952 14.8557 38.202 14.1774 39.4268 12.821L41.4574 14.7821C40.6677 15.7137 39.6927 16.4246 38.5324 16.9149C37.3881 17.4051 36.123 17.6503 34.7371 17.6503Z" fill="#151E36"/>
<path d="M65.8624 14.7331V17.4051H53.1712V0.245143H65.524V2.9172H56.3138V7.3788H64.4845V10.0018H56.3138V14.7331H65.8624Z" fill="#151E36"/>
<path d="M78.0684 0.245143H81.211V14.7086H90.0586V17.4051H78.0684V0.245143Z" fill="#151E36"/>
<path d="M113.933 14.7331V17.4051H101.242V0.245143H113.595V2.9172H104.385V7.3788H112.556V10.0018H104.385V14.7331H113.933Z" fill="#151E36"/>
<path d="M137.211 17.4051L133.754 12.3797C133.609 12.3961 133.392 12.4042 133.101 12.4042H129.282V17.4051H126.139V0.245143H133.101C134.568 0.245143 135.841 0.490285 136.921 0.980572C138.017 1.47086 138.855 2.1736 139.435 3.0888C140.015 4.004 140.305 5.0908 140.305 6.3492C140.305 7.64028 139.991 8.7516 139.363 9.68314C138.75 10.6147 137.864 11.3093 136.703 11.7669L140.595 17.4051H137.211ZM137.139 6.3492C137.139 5.25423 136.784 4.41257 136.075 3.82423C135.366 3.23588 134.326 2.94171 132.956 2.94171H129.282V9.7812H132.956C134.326 9.7812 135.366 9.48703 136.075 8.89868C136.784 8.294 137.139 7.44417 137.139 6.3492Z" fill="#151E36"/>
<path d="M163.499 13.4338H155.038L153.37 17.4051H150.131L157.745 0.245143H160.84L168.479 17.4051H165.191L163.499 13.4338ZM162.459 10.9334L159.268 3.432L156.102 10.9334H162.459Z" fill="#151E36"/>
<path d="M181.916 2.94171H176.308V0.245143H190.667V2.94171H185.059V17.4051H181.916V2.94171Z" fill="#151E36"/>
<path d="M209.397 17.6503C207.672 17.6503 206.117 17.2744 204.731 16.5226C203.345 15.7545 202.257 14.7004 201.468 13.3603C200.678 12.0038 200.283 10.4921 200.283 8.82514C200.283 7.15817 200.678 5.65463 201.468 4.31451C202.257 2.95806 203.345 1.90394 204.731 1.15217C206.117 0.384057 207.672 0 209.397 0C211.121 0 212.676 0.384057 214.062 1.15217C215.448 1.90394 216.536 2.94988 217.326 4.29C218.116 5.63011 218.51 7.14183 218.51 8.82514C218.51 10.5085 218.116 12.0202 217.326 13.3603C216.536 14.7004 215.448 15.7545 214.062 16.5226C212.676 17.2744 211.121 17.6503 209.397 17.6503ZM209.397 14.8557C210.525 14.8557 211.54 14.6023 212.443 14.0957C213.345 13.5727 214.054 12.8537 214.57 11.9385C215.086 11.0069 215.344 9.96914 215.344 8.82514C215.344 7.68114 215.086 6.65154 214.57 5.73634C214.054 4.8048 213.345 4.08571 212.443 3.57908C211.54 3.05611 210.525 2.79463 209.397 2.79463C208.269 2.79463 207.253 3.05611 206.351 3.57908C205.448 4.08571 204.739 4.8048 204.224 5.73634C203.708 6.65154 203.45 7.68114 203.45 8.82514C203.45 9.96914 203.708 11.0069 204.224 11.9385C204.739 12.8537 205.448 13.5727 206.351 14.0957C207.253 14.6023 208.269 14.8557 209.397 14.8557Z" fill="#151E36"/>
<path d="M241.616 17.4051L238.159 12.3797C238.014 12.3961 237.796 12.4042 237.506 12.4042H233.687V17.4051H230.544V0.245143H237.506C238.973 0.245143 240.246 0.490285 241.326 0.980572C242.421 1.47086 243.259 2.1736 243.84 3.0888C244.42 4.004 244.71 5.0908 244.71 6.3492C244.71 7.64028 244.396 8.7516 243.767 9.68314C243.155 10.6147 242.268 11.3093 241.108 11.7669L245 17.4051H241.616ZM241.543 6.3492C241.543 5.25423 241.189 4.41257 240.479 3.82423C239.77 3.23588 238.731 2.94171 237.361 2.94171H233.687V9.7812H237.361C238.731 9.7812 239.77 9.48703 240.479 8.89868C241.189 8.294 241.543 7.44417 241.543 6.3492Z" fill="#151E36"/>
<path d="M1.00411 26.3054H3.37074C4.43701 26.3054 5.21998 26.489 5.71967 26.8561C6.21936 27.2231 6.4692 27.7777 6.4692 28.5199C6.4692 29.0266 6.31575 29.4495 6.00886 29.7887C5.7059 30.1238 5.26129 30.3393 4.67505 30.435V30.471C5.36359 30.5747 5.86918 30.7961 6.19181 31.1353C6.51838 31.4704 6.68166 31.9393 6.68166 32.5417C6.68166 33.3477 6.41805 33.9682 5.89082 34.4031C5.36359 34.838 4.61603 35.0554 3.64813 35.0554H1.00411V26.3054ZM1.6061 30.2016H3.50648C4.317 30.2016 4.90522 30.066 5.27113 29.7947C5.64098 29.5194 5.8259 29.0904 5.8259 28.5079C5.8259 27.9254 5.61737 27.5024 5.20031 27.2391C4.78718 26.9758 4.16946 26.8441 3.34714 26.8441H1.6061V30.2016ZM1.6061 30.7403V34.5168H3.63632C5.23375 34.5168 6.03246 33.8584 6.03246 32.5417C6.03246 31.3408 5.19047 30.7403 3.50648 30.7403H1.6061Z" fill="#151E36"/>
<path d="M8.68994 28.5498H9.29192L10.6493 32.2006C11.0625 33.3218 11.3241 34.0779 11.4343 34.4689H11.4697C11.6349 33.9542 11.9045 33.1861 12.2782 32.1647L13.6357 28.5498H14.2376L11.3635 36.1088C11.1313 36.7232 10.9366 37.1382 10.7792 37.3536C10.6218 37.5691 10.4369 37.7307 10.2244 37.8384C10.0159 37.9461 9.7621 38 9.46307 38C9.2388 38 8.98896 37.9581 8.71354 37.8743V37.3596C8.94175 37.4235 9.18766 37.4554 9.45127 37.4554C9.65193 37.4554 9.82899 37.4075 9.98243 37.3117C10.1359 37.216 10.2736 37.0664 10.3956 36.8629C10.5215 36.6634 10.6651 36.3442 10.8264 35.9053C10.9916 35.4704 11.0979 35.1871 11.1451 35.0554L8.68994 28.5498Z" fill="#151E36"/>
<path d="M25.4131 31.9672H21.9074L20.7034 35.0554H20.0365L23.5068 26.2695H23.8904L27.2899 35.0554H26.6112L25.4131 31.9672ZM22.1258 31.4166H25.2124L24.038 28.2625C23.9396 28.0151 23.8216 27.672 23.6839 27.2331C23.5776 27.6161 23.4616 27.9633 23.3357 28.2745L22.1258 31.4166Z" fill="#151E36"/>
<path d="M32.0838 29.0645H30.5729V35.0554H29.9887V29.0645H28.7965V28.7174L29.9887 28.4959V27.9932C29.9887 27.1952 30.1323 26.6107 30.4195 26.2396C30.7107 25.8646 31.1848 25.677 31.8418 25.677C32.1959 25.677 32.5501 25.7309 32.9042 25.8386L32.7684 26.3533C32.4537 26.2536 32.1409 26.2037 31.83 26.2037C31.3736 26.2037 31.049 26.3414 30.8562 26.6167C30.6674 26.888 30.5729 27.3309 30.5729 27.9453V28.5498H32.0838V29.0645Z" fill="#151E36"/>
<path d="M37.1787 28.4241C37.4502 28.4241 37.7414 28.452 38.0522 28.5079L37.9401 29.0765C37.6725 29.0086 37.3951 28.9747 37.1079 28.9747C36.561 28.9747 36.1125 29.2101 35.7623 29.6809C35.4121 30.1518 35.237 30.7463 35.237 31.4645V35.0554H34.6528V28.5498H35.1485L35.2075 29.7228H35.2488C35.5125 29.244 35.7938 28.9089 36.0928 28.7174C36.3918 28.5219 36.7538 28.4241 37.1787 28.4241Z" fill="#151E36"/>
<path d="M41.2763 35.0554H40.692V28.5498H41.2763V35.0554ZM40.6093 26.7423C40.6093 26.3593 40.7333 26.1678 40.9812 26.1678C41.1031 26.1678 41.1976 26.2177 41.2645 26.3174C41.3353 26.4172 41.3707 26.5588 41.3707 26.7423C41.3707 26.9219 41.3353 27.0635 41.2645 27.1673C41.1976 27.271 41.1031 27.3229 40.9812 27.3229C40.7333 27.3229 40.6093 27.1294 40.6093 26.7423Z" fill="#151E36"/>
<path d="M47.3214 35.1751C46.4046 35.1751 45.6866 34.8819 45.1672 34.2953C44.6478 33.7088 44.3882 32.8909 44.3882 31.8415C44.3882 30.7642 44.6577 29.9263 45.1967 29.3278C45.7357 28.7254 46.4735 28.4241 47.4099 28.4241C47.9647 28.4241 48.4958 28.5219 49.0034 28.7174L48.844 29.244C48.2893 29.0565 47.8073 28.9628 47.3981 28.9628C46.6112 28.9628 46.0151 29.2101 45.6098 29.7049C45.2046 30.1957 45.002 30.9039 45.002 31.8295C45.002 32.7073 45.2046 33.3956 45.6098 33.8943C46.0151 34.3891 46.5817 34.6365 47.3096 34.6365C47.8919 34.6365 48.4329 34.5307 48.9326 34.3193V34.8699C48.5234 35.0734 47.9863 35.1751 47.3214 35.1751Z" fill="#151E36"/>
<path d="M55.7331 35.0554L55.5856 34.026H55.5384C55.2157 34.445 54.8833 34.7422 54.541 34.9178C54.2026 35.0893 53.8013 35.1751 53.337 35.1751C52.7075 35.1751 52.2176 35.0115 51.8674 34.6843C51.5173 34.3572 51.3422 33.9043 51.3422 33.3258C51.3422 32.6914 51.6018 32.1986 52.1212 31.8475C52.6445 31.4964 53.3999 31.3108 54.3875 31.2909L55.6092 31.255V30.8241C55.6092 30.2056 55.4852 29.7388 55.2374 29.4236C54.9895 29.1084 54.5901 28.9508 54.0393 28.9508C53.4452 28.9508 52.8294 29.1184 52.192 29.4535L51.9737 28.9388C52.6779 28.6037 53.3744 28.4361 54.0629 28.4361C54.7672 28.4361 55.2924 28.6216 55.6387 28.9927C55.9889 29.3637 56.164 29.9423 56.164 30.7283V35.0554H55.7331ZM53.3724 34.6365C54.057 34.6365 54.596 34.439 54.9895 34.044C55.3869 33.645 55.5856 33.0924 55.5856 32.3861V31.7457L54.4642 31.7936C53.5632 31.8375 52.9199 31.9812 52.5343 32.2245C52.1527 32.4639 51.9619 32.839 51.9619 33.3497C51.9619 33.7567 52.0838 34.0739 52.3278 34.3013C52.5756 34.5247 52.9239 34.6365 53.3724 34.6365Z" fill="#151E36"/>
<path d="M64.0504 35.0554V30.836C64.0504 30.1817 63.9147 29.7069 63.6432 29.4116C63.3717 29.1124 62.9507 28.9628 62.3802 28.9628C61.613 28.9628 61.0503 29.1603 60.6923 29.5553C60.3382 29.9463 60.1611 30.5827 60.1611 31.4645V35.0554H59.5769V28.5498H60.0726L60.1847 29.4415H60.2202C60.6372 28.7633 61.3789 28.4241 62.4451 28.4241C63.9009 28.4241 64.6288 29.2161 64.6288 30.8001V35.0554H64.0504Z" fill="#151E36"/>
<path d="M72.6527 35.0554V26.3054H73.2547V34.4809H77.3683V35.0554H72.6527Z" fill="#151E36"/>
<path d="M82.6343 35.1751C81.7018 35.1751 80.974 34.8838 80.4507 34.3013C79.9313 33.7188 79.6716 32.9028 79.6716 31.8535C79.6716 30.8161 79.9234 29.9862 80.427 29.3637C80.9307 28.7373 81.6094 28.4241 82.4632 28.4241C83.2186 28.4241 83.8147 28.6914 84.2514 29.2261C84.6882 29.7607 84.9065 30.4869 84.9065 31.4046V31.8834H80.2854C80.2933 32.7771 80.4979 33.4594 80.8992 33.9302C81.3045 34.4011 81.8828 34.6365 82.6343 34.6365C83.0002 34.6365 83.3209 34.6105 83.5963 34.5587C83.8757 34.5068 84.2278 34.3951 84.6528 34.2235V34.7622C84.2908 34.9217 83.9563 35.0295 83.6494 35.0853C83.3425 35.1452 83.0042 35.1751 82.6343 35.1751ZM82.4632 28.9508C81.8455 28.9508 81.3497 29.1583 80.9759 29.5732C80.6021 29.9842 80.3838 30.5787 80.3208 31.3567H84.2868C84.2868 30.6026 84.1255 30.0141 83.8029 29.5912C83.4803 29.1642 83.0337 28.9508 82.4632 28.9508Z" fill="#151E36"/>
<path d="M91.9018 35.0554L91.7543 34.026H91.7071C91.3844 34.445 91.052 34.7422 90.7097 34.9178C90.3713 35.0893 89.97 35.1751 89.5057 35.1751C88.8762 35.1751 88.3863 35.0115 88.0361 34.6843C87.686 34.3572 87.5109 33.9043 87.5109 33.3258C87.5109 32.6914 87.7706 32.1986 88.2899 31.8475C88.8132 31.4964 89.5687 31.3108 90.5562 31.2909L91.7779 31.255V30.8241C91.7779 30.2056 91.654 29.7388 91.4061 29.4236C91.1582 29.1084 90.7589 28.9508 90.208 28.9508C89.6139 28.9508 88.9981 29.1184 88.3607 29.4535L88.1424 28.9388C88.8467 28.6037 89.5431 28.4361 90.2316 28.4361C90.9359 28.4361 91.4612 28.6216 91.8074 28.9927C92.1576 29.3637 92.3327 29.9423 92.3327 30.7283V35.0554H91.9018ZM89.5411 34.6365C90.2257 34.6365 90.7648 34.439 91.1582 34.044C91.5556 33.645 91.7543 33.0924 91.7543 32.3861V31.7457L90.6329 31.7936C89.7319 31.8375 89.0886 31.9812 88.7031 32.2245C88.3214 32.4639 88.1306 32.839 88.1306 33.3497C88.1306 33.7567 88.2525 34.0739 88.4965 34.3013C88.7444 34.5247 89.0926 34.6365 89.5411 34.6365Z" fill="#151E36"/>
<path d="M98.0945 28.4241C98.5588 28.4241 98.9601 28.5099 99.2985 28.6815C99.6368 28.853 99.9398 29.1463 100.207 29.5612H100.243C100.219 29.0585 100.207 28.5658 100.207 28.083V25.7429H100.786V35.0554H100.402L100.255 34.0619H100.207C99.7195 34.804 99.0191 35.1751 98.1063 35.1751C97.221 35.1751 96.5443 34.8958 96.0761 34.3372C95.6079 33.7786 95.3738 32.9647 95.3738 31.8954C95.3738 30.7702 95.6059 29.9104 96.0702 29.3159C96.5345 28.7214 97.2092 28.4241 98.0945 28.4241ZM98.0945 28.9628C97.3942 28.9628 96.8669 29.2121 96.5128 29.7109C96.1626 30.2096 95.9876 30.9338 95.9876 31.8834C95.9876 33.7268 96.6938 34.6484 98.1063 34.6484C98.8303 34.6484 99.3614 34.435 99.6998 34.0081C100.038 33.5811 100.207 32.8769 100.207 31.8954V31.7936C100.207 30.7882 100.04 30.066 99.7057 29.6271C99.3752 29.1842 98.8381 28.9628 98.0945 28.9628Z" fill="#151E36"/>
<path d="M106.866 35.1751C105.934 35.1751 105.206 34.8838 104.683 34.3013C104.163 33.7188 103.904 32.9028 103.904 31.8535C103.904 30.8161 104.155 29.9862 104.659 29.3637C105.163 28.7373 105.841 28.4241 106.695 28.4241C107.451 28.4241 108.047 28.6914 108.483 29.2261C108.92 29.7607 109.138 30.4869 109.138 31.4046V31.8834H104.517C104.525 32.7771 104.73 33.4594 105.131 33.9302C105.536 34.4011 106.115 34.6365 106.866 34.6365C107.232 34.6365 107.553 34.6105 107.828 34.5587C108.108 34.5068 108.46 34.3951 108.885 34.2235V34.7622C108.523 34.9217 108.188 35.0295 107.881 35.0853C107.574 35.1452 107.236 35.1751 106.866 35.1751ZM106.695 28.9508C106.077 28.9508 105.582 29.1583 105.208 29.5732C104.834 29.9842 104.616 30.5787 104.553 31.3567H108.519C108.519 30.6026 108.357 30.0141 108.035 29.5912C107.712 29.1642 107.266 28.9508 106.695 28.9508Z" fill="#151E36"/>
<path d="M114.765 28.4241C115.036 28.4241 115.327 28.452 115.638 28.5079L115.526 29.0765C115.258 29.0086 114.981 28.9747 114.694 28.9747C114.147 28.9747 113.698 29.2101 113.348 29.6809C112.998 30.1518 112.823 30.7463 112.823 31.4645V35.0554H112.239V28.5498H112.734L112.793 29.7228H112.835C113.098 29.244 113.38 28.9089 113.679 28.7174C113.978 28.5219 114.34 28.4241 114.765 28.4241Z" fill="#151E36"/>
<path d="M122.256 33.3617C122.256 33.9442 122.037 34.3931 121.601 34.7083C121.164 35.0195 120.544 35.1751 119.741 35.1751C118.884 35.1751 118.203 35.0415 117.699 34.7741V34.1337C118.345 34.4609 119.025 34.6245 119.741 34.6245C120.375 34.6245 120.855 34.5188 121.181 34.3073C121.512 34.0918 121.677 33.8066 121.677 33.4515C121.677 33.1243 121.545 32.849 121.282 32.6255C121.022 32.4021 120.593 32.1826 119.995 31.9672C119.354 31.7318 118.903 31.5303 118.644 31.3627C118.384 31.1911 118.187 30.9996 118.054 30.7882C117.924 30.5727 117.859 30.3114 117.859 30.0041C117.859 29.5174 118.059 29.1323 118.461 28.849C118.866 28.5658 119.431 28.4241 120.155 28.4241C120.847 28.4241 121.504 28.5558 122.126 28.8191L121.907 29.3578C121.278 29.0944 120.694 28.9628 120.155 28.9628C119.631 28.9628 119.216 29.0505 118.909 29.2261C118.602 29.4016 118.449 29.645 118.449 29.9563C118.449 30.2954 118.567 30.5667 118.803 30.7702C119.043 30.9737 119.509 31.2011 120.202 31.4525C120.78 31.664 121.201 31.8555 121.465 32.027C121.728 32.1946 121.925 32.3861 122.055 32.6016C122.189 32.8171 122.256 33.0704 122.256 33.3617Z" fill="#151E36"/>
<path d="M129.711 35.0554V30.836C129.711 30.1817 129.576 29.7069 129.304 29.4116C129.033 29.1124 128.612 28.9628 128.041 28.9628C127.274 28.9628 126.711 29.1603 126.353 29.5553C125.999 29.9463 125.822 30.5827 125.822 31.4645V35.0554H125.238V25.7429H125.822V28.7054L125.792 29.5373H125.834C126.074 29.1463 126.377 28.863 126.743 28.6874C127.109 28.5119 127.563 28.4241 128.106 28.4241C129.562 28.4241 130.29 29.2161 130.29 30.8001V35.0554H129.711Z" fill="#151E36"/>
<path d="M134.281 35.0554H133.697V28.5498H134.281V35.0554ZM133.614 26.7423C133.614 26.3593 133.738 26.1678 133.986 26.1678C134.108 26.1678 134.202 26.2177 134.269 26.3174C134.34 26.4172 134.375 26.5588 134.375 26.7423C134.375 26.9219 134.34 27.0635 134.269 27.1673C134.202 27.271 134.108 27.3229 133.986 27.3229C133.738 27.3229 133.614 27.1294 133.614 26.7423Z" fill="#151E36"/>
<path d="M140.509 35.1751C139.521 35.1751 138.801 34.8001 138.349 34.0499H138.308L138.325 34.5527C138.341 34.8479 138.349 35.1711 138.349 35.5222V38H137.765V28.5498H138.26L138.373 29.4775H138.408C138.849 28.7752 139.553 28.4241 140.521 28.4241C141.386 28.4241 142.045 28.7134 142.498 29.2919C142.954 29.8665 143.183 30.7044 143.183 31.8056C143.183 32.8749 142.943 33.7048 142.463 34.2953C141.986 34.8819 141.335 35.1751 140.509 35.1751ZM140.497 34.6484C141.154 34.6484 141.662 34.4011 142.02 33.9063C142.382 33.4116 142.563 32.7193 142.563 31.8295C142.563 29.9183 141.882 28.9628 140.521 28.9628C139.773 28.9628 139.224 29.1722 138.874 29.5912C138.524 30.0061 138.349 30.6844 138.349 31.626V31.8176C138.349 32.835 138.516 33.5612 138.851 33.9961C139.189 34.431 139.738 34.6484 140.497 34.6484Z" fill="#151E36"/>
<path d="M154.305 30.6445H157.486V34.6365C156.652 34.9956 155.713 35.1751 154.671 35.1751C153.309 35.1751 152.265 34.7861 151.537 34.0081C150.813 33.226 150.451 32.1208 150.451 30.6924C150.451 29.8026 150.63 29.0146 150.988 28.3284C151.35 27.6381 151.865 27.1054 152.534 26.7304C153.207 26.3553 153.978 26.1678 154.848 26.1678C155.788 26.1678 156.632 26.3433 157.38 26.6945L157.138 27.2451C156.39 26.894 155.615 26.7184 154.812 26.7184C153.675 26.7184 152.772 27.0755 152.103 27.7897C151.439 28.4999 151.106 29.4595 151.106 30.6685C151.106 31.9851 151.423 32.9767 152.056 33.643C152.69 34.3053 153.62 34.6365 154.848 34.6365C155.643 34.6365 156.317 34.5228 156.872 34.2953V31.2191H154.305V30.6445Z" fill="#151E36"/>
<path d="M163.366 28.4241C163.637 28.4241 163.928 28.452 164.239 28.5079L164.127 29.0765C163.86 29.0086 163.582 28.9747 163.295 28.9747C162.748 28.9747 162.3 29.2101 161.949 29.6809C161.599 30.1518 161.424 30.7463 161.424 31.4645V35.0554H160.84V28.5498H161.336L161.395 29.7228H161.436C161.7 29.244 161.981 28.9089 162.28 28.7174C162.579 28.5219 162.941 28.4241 163.366 28.4241Z" fill="#151E36"/>
<path d="M172.185 31.7936C172.185 32.855 171.931 33.6849 171.423 34.2834C170.916 34.8779 170.216 35.1751 169.322 35.1751C168.76 35.1751 168.264 35.0375 167.835 34.7622C167.406 34.4868 167.078 34.0918 166.85 33.5771C166.621 33.0624 166.507 32.4679 166.507 31.7936C166.507 30.7323 166.761 29.9064 167.269 29.3159C167.776 28.7214 168.473 28.4241 169.358 28.4241C170.239 28.4241 170.93 28.7254 171.429 29.3278C171.933 29.9263 172.185 30.7483 172.185 31.7936ZM167.121 31.7936C167.121 32.6874 167.314 33.3856 167.699 33.8884C168.089 34.3871 168.638 34.6365 169.346 34.6365C170.054 34.6365 170.601 34.3871 170.987 33.8884C171.376 33.3856 171.571 32.6874 171.571 31.7936C171.571 30.8959 171.374 30.1996 170.981 29.7049C170.591 29.2101 170.042 28.9628 169.334 28.9628C168.626 28.9628 168.079 29.2101 167.693 29.7049C167.312 30.1957 167.121 30.8919 167.121 31.7936Z" fill="#151E36"/>
<path d="M175.798 28.5498V32.7632C175.798 33.4175 175.934 33.8943 176.206 34.1936C176.477 34.4888 176.898 34.6365 177.469 34.6365C178.232 34.6365 178.793 34.441 179.151 34.0499C179.513 33.6589 179.694 33.0225 179.694 32.1408V28.5498H180.272V35.0554H179.776L179.67 34.1577H179.635C179.217 34.836 178.476 35.1751 177.41 35.1751C175.95 35.1751 175.22 34.3831 175.22 32.7991V28.5498H175.798Z" fill="#151E36"/>
<path d="M186.494 35.1751C185.507 35.1751 184.787 34.8001 184.334 34.0499H184.293L184.31 34.5527C184.326 34.8479 184.334 35.1711 184.334 35.5222V38H183.75V28.5498H184.246L184.358 29.4775H184.393C184.834 28.7752 185.538 28.4241 186.506 28.4241C187.372 28.4241 188.031 28.7134 188.483 29.2919C188.939 29.8665 189.168 30.7044 189.168 31.8056C189.168 32.8749 188.928 33.7048 188.448 34.2953C187.972 34.8819 187.32 35.1751 186.494 35.1751ZM186.482 34.6484C187.139 34.6484 187.647 34.4011 188.005 33.9063C188.367 33.4116 188.548 32.7193 188.548 31.8295C188.548 29.9183 187.867 28.9628 186.506 28.9628C185.758 28.9628 185.209 29.1722 184.859 29.5912C184.509 30.0061 184.334 30.6844 184.334 31.626V31.8176C184.334 32.835 184.501 33.5612 184.836 33.9961C185.174 34.431 185.723 34.6484 186.482 34.6484Z" fill="#151E36"/>
</svg>
