<svg width="242" height="38" viewBox="0 0 242 38" fill="none" xmlns="http://www.w3.org/2000/svg">
<path fill-rule="evenodd" clip-rule="evenodd" d="M12.8587 22.0097L9.89289 19.0626L12.8595 16.0961L13.1223 15.8332L12.8595 15.5699L10.873 13.5838L10.6101 13.3205L10.3472 13.5838L7.38065 16.55L4.43355 13.5846L4.17028 13.3197L3.9066 13.5838L1.92009 15.5699L1.65804 15.8324L1.91928 16.0952L4.86841 19.0626L1.92009 22.0105L1.65723 22.2734L1.92009 22.5367L3.9066 24.5228L4.16947 24.7861L4.43274 24.5228L7.38065 21.5749L10.348 24.5236L10.6109 24.7852L10.873 24.5228L12.8595 22.5367L13.1231 22.2726L12.8587 22.0097Z" fill="#D7262D"/>
<path fill-rule="evenodd" clip-rule="evenodd" d="M0 35.3401L2.653 37.9931L10.0076 30.6385L7.36269 27.9774L0 35.3401Z" fill="url(#paint0_linear)"/>
<path fill-rule="evenodd" clip-rule="evenodd" d="M0 2.65328L7.36269 9.97013L10.0088 7.32402L2.64611 0.00717163L0 2.65328Z" fill="url(#paint1_linear)"/>
<path fill-rule="evenodd" clip-rule="evenodd" d="M30.7542 9.89197L20.8622 0L18.2092 2.653L25.4482 9.89197L16.3667 18.9734L25.4425 28.1064L18.2108 35.3385L20.8557 38L30.7477 28.1076L21.6715 18.9746L30.7542 9.89197Z" fill="url(#paint2_linear)"/>
<path d="M54.2762 25.8056L50.5642 20.6333L46.8914 25.8056H44L49.0795 18.8639L44.2735 12.1944H47.1454L50.6424 17.0361L54.1003 12.1944H56.855L52.0685 18.7667L57.2066 25.8056H54.2762ZM72.0732 26C70.6927 26 69.4424 25.7019 68.3222 25.1056C67.2152 24.4963 66.3425 23.6602 65.7043 22.5972C65.0792 21.5342 64.7666 20.3352 64.7666 19C64.7666 17.6648 65.0857 16.4658 65.7239 15.4028C66.3621 14.3398 67.2347 13.5102 68.3417 12.9139C69.4619 12.3046 70.7122 12 72.0927 12C73.2129 12 74.2353 12.1944 75.16 12.5833C76.0847 12.9722 76.8662 13.5361 77.5043 14.275L75.8633 15.8111C74.8735 14.7481 73.6557 14.2167 72.21 14.2167C71.2722 14.2167 70.4321 14.4241 69.6898 14.8389C68.9474 15.2408 68.3678 15.8047 67.951 16.5306C67.5343 17.2565 67.3259 18.0797 67.3259 19C67.3259 19.9203 67.5343 20.7435 67.951 21.4694C68.3678 22.1953 68.9474 22.7658 69.6898 23.1806C70.4321 23.5824 71.2722 23.7833 72.21 23.7833C73.6557 23.7833 74.8735 23.2453 75.8633 22.1694L77.5043 23.725C76.8662 24.4639 76.0782 25.0278 75.1404 25.4167C74.2157 25.8056 73.1933 26 72.0732 26ZM97.2276 23.6861V25.8056H86.971V12.1944H96.9541V14.3139H89.5107V17.8528H96.114V19.9333H89.5107V23.6861H97.2276ZM107.092 12.1944H109.632V23.6667H116.782V25.8056H107.092V12.1944ZM136.077 23.6861V25.8056H125.82V12.1944H135.803V14.3139H128.36V17.8528H134.963V19.9333H128.36V23.6861H136.077ZM154.889 25.8056L152.095 21.8194C151.978 21.8324 151.802 21.8389 151.567 21.8389H148.481V25.8056H145.941V12.1944H151.567C152.753 12.1944 153.782 12.3889 154.654 12.7778C155.54 13.1667 156.217 13.7241 156.686 14.45C157.155 15.1759 157.389 16.038 157.389 17.0361C157.389 18.0602 157.135 18.9417 156.627 19.6806C156.133 20.4194 155.416 20.9703 154.478 21.3333L157.624 25.8056H154.889ZM154.83 17.0361C154.83 16.1676 154.544 15.5 153.97 15.0333C153.398 14.5667 152.558 14.3333 151.45 14.3333H148.481V19.7583H151.45C152.558 19.7583 153.398 19.525 153.97 19.0583C154.544 18.5787 154.83 17.9047 154.83 17.0361ZM176.133 22.6556H169.296L167.948 25.8056H165.33L171.484 12.1944H173.984L180.158 25.8056H177.501L176.133 22.6556ZM175.293 20.6722L172.714 14.7222L170.155 20.6722H175.293ZM191.018 14.3333H186.485V12.1944H198.09V14.3333H193.558V25.8056H191.018V14.3333ZM213.227 26C211.833 26 210.576 25.7019 209.456 25.1056C208.336 24.4963 207.457 23.6602 206.819 22.5972C206.18 21.5213 205.862 20.3222 205.862 19C205.862 17.6778 206.18 16.4852 206.819 15.4222C207.457 14.3463 208.336 13.5102 209.456 12.9139C210.576 12.3046 211.833 12 213.227 12C214.62 12 215.877 12.3046 216.997 12.9139C218.117 13.5102 218.996 14.3398 219.635 15.4028C220.273 16.4658 220.592 17.6648 220.592 19C220.592 20.3352 220.273 21.5342 219.635 22.5972C218.996 23.6602 218.117 24.4963 216.997 25.1056C215.877 25.7019 214.62 26 213.227 26ZM213.227 23.7833C214.139 23.7833 214.959 23.5824 215.688 23.1806C216.417 22.7658 216.991 22.1953 217.408 21.4694C217.824 20.7306 218.033 19.9074 218.033 19C218.033 18.0926 217.824 17.2759 217.408 16.55C216.991 15.8111 216.417 15.2408 215.688 14.8389C214.959 14.4241 214.139 14.2167 213.227 14.2167C212.315 14.2167 211.494 14.4241 210.765 14.8389C210.036 15.2408 209.462 15.8111 209.046 16.55C208.629 17.2759 208.421 18.0926 208.421 19C208.421 19.9074 208.629 20.7306 209.046 21.4694C209.462 22.1953 210.036 22.7658 210.765 23.1806C211.494 23.5824 212.315 23.7833 213.227 23.7833ZM239.265 25.8056L236.471 21.8194C236.354 21.8324 236.178 21.8389 235.944 21.8389H232.857V25.8056H230.317V12.1944H235.944C237.129 12.1944 238.158 12.3889 239.03 12.7778C239.916 13.1667 240.593 13.7241 241.062 14.45C241.531 15.1759 241.766 16.038 241.766 17.0361C241.766 18.0602 241.512 18.9417 241.004 19.6806C240.509 20.4194 239.792 20.9703 238.855 21.3333L242 25.8056H239.265ZM239.206 17.0361C239.206 16.1676 238.919 15.5 238.347 15.0333C237.774 14.5667 236.934 14.3333 235.826 14.3333H232.857V19.7583H235.826C236.934 19.7583 237.774 19.525 238.347 19.0583C238.919 18.5787 239.206 17.9047 239.206 17.0361Z" fill="#151E36"/>
<defs>
<linearGradient id="paint0_linear" x1="5.00379" y1="27.9774" x2="5.00379" y2="37.9931" gradientUnits="userSpaceOnUse">
<stop stop-color="#335C63"/>
<stop offset="1" stop-color="#141F36"/>
</linearGradient>
<linearGradient id="paint1_linear" x1="5.0044" y1="0.00717163" x2="5.0044" y2="9.97013" gradientUnits="userSpaceOnUse">
<stop stop-color="#335C63"/>
<stop offset="1" stop-color="#141F36"/>
</linearGradient>
<linearGradient id="paint2_linear" x1="23.5604" y1="0" x2="23.5604" y2="38" gradientUnits="userSpaceOnUse">
<stop stop-color="#335C63"/>
<stop offset="1" stop-color="#141F36"/>
</linearGradient>
</defs>
</svg>
